<mxfile host="app.diagrams.net" modified="2023-05-23T18:28:00.726Z" agent="Mozilla/5.0 (Windows NT 10.0; Win64; x64) AppleWebKit/537.36 (KHTML, like Gecko) Chrome/110.0.0.0 YaBrowser/23.3.4.605 Yowser/2.5 Safari/537.36" etag="RE98QFxHd7jnSq1ke8E2" version="21.3.3" type="github">
  <diagram name="Страница 1" id="Pd5cuBWMNf_BABWRMXTn">
    <mxGraphModel dx="1386" dy="759" grid="1" gridSize="10" guides="1" tooltips="1" connect="1" arrows="1" fold="1" page="1" pageScale="1" pageWidth="827" pageHeight="1169" math="0" shadow="0">
      <root>
        <mxCell id="0" />
        <mxCell id="1" parent="0" />
        <mxCell id="NDtDcy1t038R8GpBM-gv-1" value="" style="shape=image;verticalLabelPosition=bottom;labelBackgroundColor=default;verticalAlign=top;aspect=fixed;imageAspect=0;image=data:image/jpeg,/9j/4AAQSkZJRgABAgEA5QDlAAD/2wBDAAYEBQYFBAYGBQYHBwYIChAKCgkJChQODwwQFxQYGBcUFhYaHSUfGhsjHBYWICwgIyYnKSopGR8tMC0oMCUoKSj/2wBDAQcHBwoIChMKChMoGhYaKCgoKCgoKCgoKCgoKCgoKCgoKCgoKCgoKCgoKCgoKCgoKCgoKCgoKCgoKCgoKCgoKCj/wAARCANKB9ADASIAAhEBAxEB/8QAHwAAAQUBAQEBAQEAAAAAAAAAAAECAwQFBgcICQoL/8QAtRAAAgEDAwIEAwUFBAQAAAF9AQIDAAQRBRIhMUEGE1FhByJxFDKBkaEII0KxwRVS0fAkM2JyggkKFhcYGRolJicoKSo0NTY3ODk6Q0RFRkdISUpTVFVWV1hZWmNkZWZnaGlqc3R1dnd4eXqDhIWGh4iJipKTlJWWl5iZmqKjpKWmp6ipqrKztLW2t7i5usLDxMXGx8jJytLT1NXW19jZ2uHi4+Tl5ufo6erx8vP09fb3+Pn6/8QAHwEAAwEBAQEBAQEBAQAAAAAAAAECAwQFBgcICQoL/8QAtREAAgECBAQDBAcFBAQAAQJ3AAECAxEEBSExBhJBUQdhcRMiMoEIFEKRobHBCSMzUvAVYnLRChYkNOEl8RcYGRomJygpKjU2Nzg5OkNERUZHSElKU1RVVldYWVpjZGVmZ2hpanN0dXZ3eHl6goOEhYaHiImKkpOUlZaXmJmaoqOkpaanqKmqsrO0tba3uLm6wsPExcbHyMnK0tPU1dbX2Nna4uPk5ebn6Onq8vP09fb3+Pn6/9oADAMBAAIRAxEAPwDx6iiitzEKKSkByMge2KAAgHr0pcMeuCPTNb+meGrm7iSaVkjhIz8xwat634atNN05bmGaRnb6YoA5QdemKdTRnqSSadQAUUUUAFFFFABRRRQAUUncZ/OkByMjketD0BajqKaDkEg5AoBzn1HajzBajqKaT+lLkcZIFHS4C0Ug5bA6evakzyR3HagB1FNyOgIJxnA60Z/P0o62AdRTcjCnI+bpQTgkdxR1sA6mnqOAT70Z4U54Peu8+D+jWOua/NDqEKTRpHuAYZwaErq4r62ODyOTtAPsaFAxkd66T4gWdvp/iee3soESBTjCiubxg4zkUrlWY6iiimIKKKbnmgV7DqKaTijP1oGtRaKQkgAkEZ9aWkw2Ck+9weaKtaXYT6leR21shMrnApSmorUcVcq8n5VCg+5oHAwUB9wa9Rg+HWkW1sh1rUxbzt2DL/WsvxR4C+wWBvdHuPtNsOvIJx68VyRxcG7XOx4Wa6HBA/3Tj2paTgdBz60tdt7aM45KzsFLTTSii4haKKKACiiigAooooAKKKKACiiigAooooAKKKKACiiigAooooAKKKKACiiigAooooAKKKKACiiigAooooAKKKKACiiigAooooAKKKKACiiigAooooAKKKKACiiigAooooAKKKKACiiigAooooAKKKKACiiigAooooAKKKKACiiigAooooAKKKKACiiigAooooAKKKKACiiigAooooAKKKKACiiigAooooAKKKKACiiigAooooAKKKKACiiigAooooAKKKKACiiigAooooAKKKKACiiigAooooAKKKKACiiigAooooAKKKKACiiigAooooAKKKKACiiigAooooAKKKKACiiigAooooAKKKKACiiigAooooAKKKKACiiigAooooAKKKKACiiigAooooAKKKKACiiigAooooAKKKKACiiigAooooAKSlpKBi0UlFABS0lFAhaKKKACiiigAooooAKKKKACiiigAooooAKKKKACiiigAooooAKKKKACiiigAooooAKKKKACiiigAooooAKKKKACiiigAooooAKKKKAEOMc9KTGTnO0ryBQwyOKRiGYluMdqANRtavpYIYd+1BxxXWa6c+E7cscsQP5VwKA74yua73XCP+ETtuecCmwRwKngU6minVKGwooopiCiiigApKWigC3oumz6rqUVlbKXeZhkDqB3Ne2NpXhHwBp0X9sQpe3jDJiwGz9B6VxPwNjjfxzAzYLiN8A/SqPxemml8a34myVSQrFn+7VVPcVggudnV6v4i8FeINEvFttMTT7hEJQhAuTXnnhTQZfEGuRWkA+Un5m/2awn4JDcDHWvV/2f0Q65es+PMEIwaKUeb3mFR291HQ6jN4L8CxJYXtimoXQALAqGYH3qRNL8J+P9JkbSbVLK6RSQiqFPTPNeSePpJX8U3bTnLbzgnrXSfAt5l8aRCIMIWR93p92op+8rDqq0kjntE0s2vjGDTr2NX8udUZccdRXWfHXTbLTtatF0+0ht0MOW8pcZOaj14KfjJNsxj7UCdvHcVf8A2hBnW7QJnHlc+3NOWkIlwV6rj2MX4K2NrqHiOWG9toZU2ZHmLmsjxrbQ23jSaGCFEiEgAVRgda6P4DoT4mnJGAIuDWB47yfG8gHXzR/On/y9ijJP3JM9m1rwf4ajs7DU7+K3s7eCPc2FChyRWb4f1fwV4ou30q20iKGYKQkvlgbuOoNUvjfKw8L6YoZgjRjK547V5v8ACtmbxjaDgMM428elEfemy6nuxRY1/S7Twn45MdxF59or7/KIyNoPpXr3w68V+G9a1SSDRtGWznRMsyxhcivNPjtx4vVjgN5ZHH1qf4B4/wCEluT0xDzj608O+ZOLM63u+8jsvE/jfwlYaxPbX+gCa4Q/M5jBzXlfj7XdG1u6hfQ9P+xRpncNoGfypvxQ48XXJOeTxXK8k5OOe4rCnrub1egtFFFamQV0Gg+FbrWLP7RBPCibiuH61z9dV4Y8P3mp2HnW2o/Zk3EbN2KwxEnGN07HZgqaqVOVxuWj8O9Q6/a7b86q6l4HvbG0aeS4hKjn5TWyfB2qA/8AIc/8fNVNW8LajaWEk0urGWMfw7yc1xQxEm7c/wCB6lbBwjG/s7fM4U85GdxWjOeelIcDgHvz70p64r04KTSs9zwrKM3YK9J+EFpGJr+7cbmiTIJ7V5tXrHwcfzLTUbc7VYoM8djXHmb5aDZtgE51kmtzitauL/xPr8gjWSUb9oC9F5r1rwZosulaNcWN9cCaWVD8jHOBg5xXO6pqWj+Clmi05Vm1FiSSeduag+Gl9farrd3qN3IzKituB6dK8rEc06SlFWiranp0lGM7yfvdjzrX7ZbPWby2i4jjkIUHqBVCtbxc6y+JdSkTpJMW+ntWTXu4e3slLc8rEXdRtoKUUlKK0UuZXsYIWiiimAUUUUAFFFFABRRRQAUUUUAFFFFABRRRQAUUUUAFFFFABRRRQAUUUUAFFFFABRRRQAUUUUAFFFFABRRRQAUUUUAFFFFABRRRQAUUUUAFFFFABRRRQAUUUUAFFFFABRRRQAUUUUAFFFFABRRRQAUUUUAFFFFABRRRQAUUUUAFFFFABRRRQAUUUUAFFFFABRRRQAUUUUAFFFFABRRRQAUUUUAFFFFABRRRQAUUUUAFFFFABRRRQAUUUUAFFFFABRRRQAUUUUAFFFFABRRRQAUUUUAFFFFABRRRQAUUUUAFFFFABRRRQAUUUUAFFFFABRRRQAUUUUAFFFFABRRRQAUUUUAFFFFABRRRQAUUUUAFFFFABRRRQAUUUUAFFFFABRRRQAUUUUAFFFFABRRRQAUUUUAFFFFABRRRQAUUUUAFFFFABRRRQAUUUUAFFFFABRRRQAUUUUAFFFFABRRRQAUUUUAFFFFABRRRQAUUUUAFFFFABRRRQAUUUUAFFFFABRRRQAUUUUAFFFFABRRRQAUUUUAFFFFABRRRQAh96RQWYqvGe5pTSYyCDzQB1emeFEuraKdr5EPXBxXTXunRXmlJZ/aoxsGM8V5gGYBQGbA7ZpxlkIPztg+9DBGrruijSlQrcLLuPasihiWbJJPHc0UkNhRRRTEFFFFABSUtJQBs+ENafQdet70LuVDggHHB617VrmjeHPiJAl9b30dvd7cbjx+lfPf9aessiKAkjqR3Bqm7qwWPWNV+HOjeHtIu59R1WK6fyyYwuOv4GuO+H3iI+HfEKXH/AC6sdr/7tcw0kj5Du7DuCxNR46+4xUx913Q5e8tT6A8ReDdB8cOup6bqUNtLKPmY45/AmktIdA+GumSySXcd1fyKQrJ3OMduleCrNKgISR1z6Maa7u/LMxPqTmkvdWg/iszYGtyTeJ01e4yXadZCPQZFe5eJtC0j4iWNpew6pFazKg3Fsfyr5zPYdhT1mlUfJK69uDTfwpMV3z8yPpLwZD4d8LXA0q0nilvmGWkJxu9814x48kV/G0pV1ceYOnTr61yhkdn3u7MwGAc801yz/eJPuaWvOpdg05Wj2343zxTeG9I2SRyYj+6rAkdK89+GBC+MLVpHVVGTycelcs0jkjLsQOxOaYvyklSQc54NVHSd+gVPegkei/HGVJfFSSQFXTYRkMD3rM+FviCHw94lSe5fEUoCscdK492aVi0rF2xjJNNHGMdRUw91sTXNGzPoDxV8P9M8U3w1Oy1aC2ScZIJBz+vFeVePPCKeFLmGKO9S7EmeUxx+VcussqqVWWQA9txpHYu2WLE+pOaXLa1h3utQopKM1Qgp8c0sYwkjqPRWIpmaSk0nuNNrZ2JTd3BP+ul/77NDTzuCDLIwPYuaj7UmBnkVKhFdC/bT7iNkbVI2gfjSnrwc0DjOO9ABxVpq2xDbk1dhXTeAvEA0DVw85zazfK9czRgc5HWsqtJVYNPqNTlTknBnsOseDtN8SXP2+01GKISfMwYjP6mm39/pPgjQprSzlE17MNu5fpjNeRB3HO993qGNI7PIQZGLEdCa4PqE17rlePY7njFOSbVn3HTNJKWa4OZGbdn1plAGDleD0/CivUVoJRitDhnK8m27hSikoyae5K12HUUmaKQC0U00U0r6IdtLjqKbmjNLyBjqKbmjNJuyuwSu7DqKbmiqSurk8y2HUUmaM0hi0UmaKErgxaKbRmm1ZXFcdRTc0ZpLVXGtXZDqKQUtABRRRQAUUUUAFFFFABRRRQAUUUUAFFFFABRRRQAUUUUAFFFFABRRRQAUUUUAFFFFABRRRQAUUUUAFFFFABRRRQAUUUUAFFFFABRRRQAUUUUAFFFFABRRRQAUUUUAFFFFABRRRQAUUUUAFFFFABRRRQAUUUUAFFFFABRRRQAUUUUAFFFFABRRRQAUUUUAFFFFABRRRQAUUUUAFFFFABRRRQAUUUUAFFFFABRRRQAUUUUAFFFFABRRRQAUUUUAFFFFABRRRQAUUUUAFFFFABRRRQAUUUUAFFFFABRRRQAUUUUAFFFFABRRRQAUUUUAFFFFABRRRQAUUUUAFFFFABRRRQAUUUUAFFFFABRRRQAUUUUAFFFFABRRRQAUUUUAFFFFABRRRQAUUUUAFFFFABRRRQAUUUUAFFFFABRRRQAUUUUAFFFFABRRRQAUUUUAFFFFABRRRQAUUUUAFFFFABRRRQAUUUUAFFFFABRRRQAUUUUAFFFFABRSUAhg23t60ALRT4IJrhlWCJ5GPJCjNTy6ZfRgtJbSqg7laAKtFNUnnPXNOoAKKKKACiiigAooooAbRQcgjjj19KQdcZDA8gr2+tOOwNjqSvRvAXgew8QeG73ULyedJoM7QhGDgV5/exLBdyxIchWKjPWpXxMprQipK7n4XeELPxZeXEd9ctEkQGAhALVnfELw9b+G9dls7WVpIlPVjkj60S0YRWhy9FJnkijnH3T9fSqexK0Y6imk9MEEetKOScHgUkN6C0V0HhLwnf8AiZ5hYvEBCMtuPtmsfUbSSxvpbWRlMsTbXx0zQ9AWpXopCSrbSDnPXtRnr7GgTFopM469+lHI+8CKBoWikGTgEgNQMngEbh1oAWgU0HJwP8+1OHvQIDRSc+h+tGQPvHI9qQ7C0UhznsPrS9fukEd6dhC0UmfY4ooAWm0ppM87R1otcdgooOQcEj8KPwo5RXsBoo/ChsrgkHFGwXvqgpaTOSMdPfrQaYkwoowcHAJ9hUtvbzXTqltC8jHjAGTmpm4RV29S405TZFRV6/0q909Ve+tZoFbpvXGao4+Yg/hilCUZrmiE6cqekgoqa2tbi7k8q0iaaX+6gycVfl8PaxEC0mm3SxhcklKl16a0uOFOo/egjKoodWQ4YHPQjuPrUttby3MqxQKXlb7qLyTVaW5pPQTjJaW1IqK1j4d1gKXOm3QQdW2HFZTq0bmNxiQdR6UvaQvZSTY1GbXM1YSinRxtI4ijG6Vj8qj+Ie1ag8N60yb10y6CAckoaJzjGXK3YFGUo8yVzJop88UkDlZUKEdVPUUwAmQIB85/h7mqjGMY8zd0TzNOzVmFFasfh3V5FDR6fcsh53BDiqN3aT2s5iuYXhcf89BjNZqrTlPliy3TqJXtYhopOnWj6dK1IsOopKWgQUUUUAFFFFABRRRQAUUUUAFFFFABRRRQAUUUUAFFFFABRRRQAUUUUAFFFFABRRRQAUUUUAFFFFABRRRQAUUUUAFFFFABRRRQAUUUUAFFFFABRRRQAUUUUAFFFFABRRRQAUUUUAFFFFABRRRQAUUUUAFFFFABRRRQAUUUUAFFFFABRRRQAUUUUAFFFFABRRRQAUUUUAFFFFABRRRQAUUUUAFFFFABRRRQAUUUUAFFFFABRRRQAUUUUAFFFFABRRRQAUUUUAFFFFABRRRQAUUUUAFFFFABRRRQAUUUUAFFFFABRRRQAUUUUAFFFFABRRRQAUUUUAFFFFABRRRQAUUUUAFFFFABRRRQAUUUUAFFFFABRRRQAUUUUAFFFFABRRRQAUUUUAFFFFABRRRQAUUUUAFFFFABRRRQAUUUUAFFFFABRRRQAUUUUAFFFFABRRRQAUUUUAFFFFABRRRQAUUUUAFFFFABRRRQAUUUUAFFFFACHPakIAbA4GeaU800jr6UAdbZa5Z6ZpsYtkU3WPvEVd0HxJJqd39lvo0MbcZArhs9PQdu9db4Q07yFbULr5I1GVBoAzPFlkllqzrCMRkZFY9aPiG+F/qTyA5HQfSs6gAooooAKKKKACiiigBYYXnmWGBWeSQ4Cj1r0nSPhDrF9ZRzXNzb2W7krIMEmnfA7SYbzWZ724QNHbKScjvjI/lWX8RvGGpal4gu44bmSO2hk2xhCVwKpvl91iXvLmPXPCPhO48K+EtTt7i4hmLBnDJ06V4BHYtqviZrRXjjeaUruI4FexfCi9uLzwLqf2md5WUtgsSeMV4nqUjpqty8ZKsJDhlOCOazelRxNE7w5j1bTvhBrlswksdet4CRkmMkEflXnPjXSrzRtdubbUrtryeMgGTJO7j3rqfg5qF5P4wto57qd0OfkZyQeKp/Gg/8V9qBHqMj8BV1IvTzCk7pvscKvB3AZLcAV3vhP4Y6vr1oLoypbQt0Mg4ritOkSK/geXmNZFJ+ma+hPEthd+KfB9j/AMIxdiPYgJSNtpY+lC1T8jPeSPPNd+Emq6Tpstwl3bXCpliEFcf4Z0CXxBrEdjG6wSOxXc3QYrbvD4u8MK8d4bgLJ8rCRi4xXHi6lWYzRzvHIWJyhIOaSdnYqSPpL4a+A7vwoL0TXtvK84x8nbjFcnrvwfvtQ1i5vI9StAs75IPUU74D3tzcHVzc3Es2xBtLsW/hNeb+K9U1GLxFfrHeXOzzMcSkAVNR2aXccdiLxj4bm8MakbG5uI7jAJDJWn4Q+H+qeJIDPHi2t+gkk6GuQuJ5piXuJZJdvG52JNdloFx4r1bTP7P0YSPbqMgJ8p/OtIbXIlvY6G4+C+qxQM6ahaTEDIVBzXmmqabc6XfyWl5HIsinBB7/AEr1bwN4e8b6V4gtJ7yK4FuG/eeZLuGKr/H2BI9btJNgWSQHcw71F1zJF20Zztp8OtSvfDdvq9tLFKk+NsKj5xzityy+DGr3Nokz3dvDIy58px8wruvCuq/2H8IbO62hmjjIBPqScV47ZeLtXu/E1veTXcoeSUZUMQvJ9Kp/G4ErSCm9jM8TaBeeHL9rO/UZ7Moxn3rNsLOa+ult7KN5ZyenWvYvjtsm0rTLplHnOq7mx1qv8D9KgSK51i4VWCKQuR90jvUx+JrsEmuWL7mfpnwd1e9tVmuL23tSwyEkBBrn/G3gLUPCkSTXTxzQt/HGOKTxp4y1bWNXmU3MiJG5CrG23gGsi58R6nc6f9hurlpYf7r/ADEfjQveV0W1y6Mo6ZYXOp3kdtaRtLM/QDsK9LsvgvqtxCjvf2sDMMlGGCPatL4DaQGsdS1IQhrqEFYlPOSVz/Os3X/D/j/VdUkvfs9ysavlUSXbirlo+Uzg7rmOR8X+DdR8MSlblfNi/vqOK5kdK+iTp2rXvw3vIvE9tsuolJjY4Jx2r54lXZK6+hIqLmlhp6Ug+7g/epaQHaSTzmm20Q3YFXH3AWPenYb0P5Vo+HL5NNvfMlt/tCnnbXYf8JpZ/wDQD/8AHf8A61ctSs4noYXDKsrnnpViPut+ApBj+8c+hr0JvGlmAf8AiR/+Of8A1q4nV7qO8vnlWMQg8hcdKKNXnKxGGVJaFIDPJGMUtHOATRXUjzVrqiW2EZuYhNu8vcN204OK9RtvE+g6TDbW+kWsclwQMysAcH3ryg9Kt6YM38AI/iFc1ehGouZmka3K0erfGB/N0XT3K8uNzE15DGjSMqx/eLBfzr1r4uf8i5peT1X+leV6YAdSsy5+XzFz+Yrkyy8aLb8z0cyjFyVvI9asIbLwR4XS8eJZNQmAIyOR2rN0D4iajqOqx2t9BHLbSHBCLyK1/iRo15rc2nWtgpKFMsw6AZqk76L4GslRAlzqZHPfB9a85Spyg21eTOlKVJ3gtEY3xV0CGyuIr21URxT8YA71teF9PtPDPhl9avoQ91tyuR27Yqz8RpxqHhPS7qXAZ2V/oSKd4v0y61HwzpNpZIzmRRkg8dBVyruVOKnohwpKVWU2t1oYdh8S9TudTiheCJrNzt2qvapfipocKWkGq2duIVI2uMYySauW1lo/gWxE98yXOoEfd9D9Ku+Kb8618NEvZF2+Y6Ffpk0rwp141KSsthRUpQcKjuZXw90e00zRpdd1KFXKqfLVhntniqv/AAs7Un1ALHDF9iLY8vb82P8AGty7tLi4+GemQ6epd5AinHfOaz9J0TS/CFiL3WWWW9IysR7H0p+1VWcvaK5MacqUOWm7XJfiJo0GoaEur29v5EoQPIMYyKx/hdoEFy0+qahH5iQDKZ6Guun1f+3/AIf6hcPEEXlVA7AGqHhKJ2+Hcwt+ZGJAx1PNQsROlh/Z3sW6EatZN6sydT+Jt5DfGDS4YVtVbbsK5Jre16xi8U+D/wC0XtvIuo03kkdcAmsXQvCVnolqdU8SOqyE7liPUe1dToGvx69pmqpFbiG1hRkUeo29aqvanyzofNkUnKVRqpt0PCMENhqReM1Y1FQt5OB0ViB9Kg7n6V9BCV0eTUVmFLSUtWYhRRRQAUUUUAFFFFABRRRQAUUUUAFFFFABRRRQAUUUUAFFFFABRRRQAUUUUAFFFFABRRRQAUUUUAFFFFABRRRQAUUUUAFFFFABRRRQAUUUUAFFFFABRRRQAUUUUAFFFFABRRRQAUUUUAFFFFABRRRQAUUUUAFFFFABRRRQAUUUUAFFFFABRRRQAUUUUAFFFFABRRRQAUUUUAFFFFABRRRQAUUUUAFFFFABRRRQAUUUUAFFFFABRRRQAUUUUAFFFFABRRRQAUUUUAFFFFABRRRQAUUUUAFFFFABRRRQAUUUUAFFFFABRRRQAUUUUAFFFFABRRRQAUUUUAFFFFABRRRQAUUUUAFFFFABRRRQAUUUUAFFFFABRRRQAUUUUAFFFFABRRRQAUUUUAFFFFABRRRQAUUUUAFFFFABRRRQAUUUUAFFFFABRRRQAUUUUAFFFFABRRRQAUUUUAFFFFABRRRQAUUUUAFFFFABRRRQAUUUUAIeabz/AMC7ClY4HNKrlZ0k646A0wOo8N+HxMgvb5SETnGM5pniLVLi+b7NawyR26cDCHn3qe38aXFtAsQtImAGMljTz43lZQPsUHHTk1LA5J43jP7yN1P+0pGaStjXdel1hEWWCOPYc5U1j0xhRRRQIKKKKACiiigD1T4C3sSale2EjYe5BK/gtc7418K6mvjG8hhtHYSS5jZQSCPrXMaRqN3pF9He2MmyZOAQecd69LT406gLNYDpsDTBcecWOaJ6yuEFaNju/BHh2Xw54JvIrllM8qF2UEfLkV88ahGz6tcxwo0jvIwVQM967Ky+J+qwC+NxEly1yCvzsfkz6VzOjazJpXiCHVEhilZZDI0Rbik9anMNO1PlOt+Ddldw+Mrd5bWaJUzlmQgdKZ8Y7K6l8c30kdtNIjkHeqEjoK3l+OF6n3dFsx/wM02X43XkqsG0az+YYJ3mqk72Cm+VNdzyeG2lkvEt9pErHy0BGOT6+ldTFD4q8HzKsS3EUjdPLBkBH4Vg3+qS3mtT6iAsEnmiRFU969D0v4y6nZ2kcMunW10wXBeRjk0LRMnZpnZ/DnWdT8UaddW3ie0/dqpxLImCf0rwrxJDFb65exWzBo1kIHHvXa+I/izq+r2rW9tBFZAjB8tjXnLszuzMVLscsc9ahfFcvdHsP7PswE+qW6solkUBQT1+U1w/jnQtRs/FOoK9pM+58qyISCMe1Y+g6xeaJqMd5YOqOno1emQ/G2/WNFfSLWUqOXZjk1c1zNMlPQ8oS3kSeKGYPDkgMrrj+dfRd7NceHPh3Zz+HbVZJzENzr1HHX3rwzxn4kl8UaoL2W3ituMAIa6Xwr8UtT0KySynt47yJflUux4H4URfusGveR03gPX/AB1rWsQtNPKbIN+98yPZgfiKpfH4j+1dPDDrnJ96oap8YtXv8C1torRYzyEY/MK5rxt4wn8XXFvJcW6QGIcFSTuPvms+qZae6PUIx/xYm3Dc5Cn/AMeNeI6Tk6vaZ/57Lj866k+P7n/hC4/DpsoxGuP3uTng/wD165C2n+zXkcyru8twwB74rR/xHIn/AJdqJ7J8a/8AkXNJyP4VpvwMvobiwvdJdgrspIz3zXD+MfG8/iaztbSa0jgSFQAyk5OPrXOaTqN3pl4lzp8zRTIeoOM0Q+KT7kte7Fdjc8YeE9X0rU5/MtZJQ7khkBPGfasu40G/t9KF9JA8VrkDLjB/I16HZfGjU4bZYptOtrmReryOc1zXjbx7f+K4kt5oY7e3HJjjOQSOazV1ZGjd22d18CNUP9larpsMgW6kO+EnqML/AI1keI/E/j/SNSkt5bmZ9p+QpFkEfgK830fVrzSb1L2wmaG4U444yO9el23xq1GCFY5tLtp2AwWdjzW09XczhpGxRvfEHj6+0O4mup3FkAfN3oF4/KvN2YsxZjkk5Jru/F3xL1PxFYva+VHawuNrJG2QRXBAcCsraml9BaaDtZsDINO7Ug4GO1UQaOg6iNJvvOkjEwIyFNdb/wALAT/oEw/nXA4wcjrRWcqSkdNDEOkrHen4goB/yCoR+NcdrF2by9e48tVDc7QelU6AMEkdamFLlCriHUVgJBC470UClrY5YaAM5HNaGlWd19tgJt5sFgQ2w4xVGFzHMjgKwU5IJ616HZ/FG4trWK3TS7ZvLAAYk1yYvnUPc3N6EIyfvm18VoZZdB0zyo5JcLgqFPHFeTxCWyuoWuEePDhtpXHQ16K3xavNw36XakD/AGzXHeKfEEviK98828MB/wBlq4sEq6jySR24n2UtYs9h1HVr298Hpc6CFkuSnLZAKrzmvJNJ0bUtb1pBNHMWL5lZ1IHv1o8L+Lb7QG8tCJLbqYieCe1dHd/FTUJbV1hsbeByfldWORS+rVKUnGKWpf1mNSldt6dC38VruK3sNP0iNhmEKWwc8V1GmavPfeBxcaRhrqJNiJ3UjjNeH395NfXTXN3IZJXOSTWp4Y8SX2gTM9pJmNvvJng1VTAJUlH7XmTDGLn5new/+zdZ1nWwstvKZmf5i2cdea7n4iSwaP4UtNHVx9oABCjsAeaz5/itdtEVXToY2IwHBOa4TV9UudWvGub2Qu56Z7ULDzrNJqyQRrQpRlJO7Z7H4B1WS88GGCx2veWqbdrHHIFeY6xb65q+sNFdwTPO8m0cHaD9elUNC1u90W6EtlJtB+8ucZrtj8V7wxrGunW+4DG8sc1EsNOjVcooVOvGtRUZvVGp4hWPw14BGnl8XU4wyDsak+EeprJpU1iSvmRglFJ6mvMtd1271q7M15IztngHt7VV0vUbrTLxLi0kaORT1FaLARqUnF7sn63yVVKnsjpPGR13UNYaO9imKqSsYUEgA/Suz0S0HhDwHdyXrCOW7HCdSCVIrGh+Kt5HHtlsIJHxjcWOa5TxJ4mv/EEmblgkQ5CA8VlHD1Jr2UlZI1qYiMX7RasxHcyyszdW5poPzUvpSYr2Iqx5MpuQtFFJVgkOooooAKKKKACiiigAooooAKKKKACiiigAooooAKKKKACiiigAooooAKKKKACiiigAooooAKKKKACiiigAooooAKKKKACiiigAooooAKKKKACiiigAooooAKKKKACiiigAooooAKKKKACiiigAooooAKKKKACiiigAooooAKKKKACiiigAooooAKKKKACiiigAooooAKKKKACiiigAooooAKKKKACiiigAooooAKKKKACiiigAooooAKKKKACiiigAooooAKKKKACiiigAooooAKKKKACiiigAooooAKKKKACiiigAooooAKKKKACiiigAooooAKKKKACiiigAooooAKKKKACiiigAooooAKKKKACiiigAooooAKKKKACiiigAooooAKKKKACiiigAooooAKKKKACiiigAooooAKKKKACiiigAooooAKKKKACiiigAooooAKKKKACiiigAooooAKKKKACiiigAooooAKKKKAEOe1IcdwfwpTnHFICSKYMO+ckj0NGPQCg+5A+tGWHUqR7VLBMBmnU0c806mNhRRRQIKKKKACiiigBuDu6A5oOduSw64wKCT1HbrQAGVSgzxyO9NK9wvawmfm6YXHb1oxgZGMnrTirNgFG+mKQHDODgEdjUp20BoPyo/wC+aFBZycZB7DtQM4BIwV4wadg3YEfKDtUkdSaACOSxGemKXtjtSYoTuEtAYbRn7xpMdwi5pRRRtoOOiEAB/hA+lLnHAJ2dwKOgpRxRsStRG53DClB0zSgZXG4AkflSetBUkZAGaF1iO+voB6DPKr39aMEjOfotIOQM5C0uPm46etJrYb0Yu4/eJYj0pASOuAMUtGM03sLqNPAw7M/oPSjP97cD6jpTsYpM9iSfYdqWwMQ5U/Lhh3zTuFOR+AHQUirnIIPHcUoU9fLk47Yq5WSBdBCeMONzdRtoGT94nFIeAichjzmndzUrVB5jcY5X/wAep1BFNyANvc0WEOooK4HAZh6ikx04Izyc9qT0GgopAevoOBS01qLluFBoooGnqFLSUUDYH+VBYsPT6UUYppakvVCDGO+aCoYY4BpwznucUhG3PGff0oTbBpJaB22lVGO9HGcMcgdqMdB+tLiou0n3Ku9nsNx14GPQUfL1+YGnYoxVNRmlzbg29lsIMkfOzY7CgfN14x60tFF7NWFFJbiexCj39aTBHB/SnEZxnnFIaPtX6A7WsHAHFJk4yaWiiSixx/kewg4Gen1pW6AttoPI5oxmhSaFDRcyClpKKNw2sFFFFCKtrYXNGaapBwF6+9LgkEqG4OCe1C1uLql3FzRTT75P0pQecDpQ9BPew6kopKBjqSkpaBC0maKKQ1qFFJR+OT6CmJb2FozRn1I+go645AwadmCau0FLTBygYAnB7U4cikCd9RaKKKACiiigAooooAKKKKACiiigAooooAKKKKACiiigAooooAKKKKACiiigAooooAKKKKACiiigAooooAKKKKACiiigAooooAKKKKACiiigAooooAKKKKACiiigAooooAKKKKACiiigAooooAKKKKACiiigAooooAKKKKACiiigAooooAKKKKACiiigAooooAKKKKACiiigAooooAKKKKACiiigAooooAKKKKACiiigAooooAKKKKACiiigAooooAKKKKACiiigAooooAKKKKACiiigAooooAKKKKACiiigAooooAKKKKACiiigAooooAKKKKACiiigAooooAKKKKACiiigAooooAKKKKACiiigAooooAKKKKACiiigAooooAKKKKACiiigAooooAKKKKACiiigAooooAKKKKACiiigAooooAKKKKACiiigAooooAQnHSkzgc9TQ2ccHFIRuYDdyKAZvaP4auNQhEokSND3bpV678G3EMReCeOYjsorCGoXssAgjLmNT0Wt/wAHG/S8Z5Gdbcdd9NoSOWnha3maOVSsg6im1q+KJoptXkaHBHTIrKqUUwooopiCiiigAooooATHII6+lepfCPwrY6hb3es6rgQW2SUPQ8ZrC+H3giLxZFdyzalHZm3IVQ2OcjNe3+GPB8eleErrS11CORbhDmYYwOMVa0v6CetvU4e6+Jvhi0mkgh8OxyIp2rJtXn3ryjxPqUGq6tJdWlutvEf4cCvT5vg5B80n/CQ24cDpgcj868ytrSxsvEwtdSl3WEcpWRwOoFZLVly0R1Pwi1LQNP1C5bxGsY3gbGkGV/Ksv4mX2lX3iWWXRFQ25/ijGF6elelaHonwz1u5isrEPNcMPl5Yc968z+JmkWmi+Lbyx06LyoIiAmTntTno0u4Q1TfY5SirOlxLPqlrFL86SSqpXpkZr23U/hTps81rNZr9ktwgebc2dw7j2qtkyb3aR4VR2r3iw8KeAdVmk03T5D/aSjb1OM15F4u0KTw/rk1hnIU/Ln3qXuNbGJ2pDXrXhDwHo9t4fXWvFlwTavyEAIx27VffSPhvqcclvpkxS5Kkxlifl/OibshQPFR1rs/hl4atfE2uPa3pcRom75Tism2s7Cy8Um11Jt9hDLiRgeor3f4er4GGqSnwwzC62ZIOfu/jWiV1cT0bPCfG2mW+ka/PZ2av5MZ6sc1hnJYkEbe1e/8AimP4cnVpW1kv9tz84BavLPiAvhpbyH/hFc+Vzvzn+tYRdzSSOUpKWmnB4PQc1oQLQoy6jHDHGaaCXYM3rge1ep+FvhfDq+lx30mtQwE4PlnGf500rsT2Oi8K6FonhTwumta9EtzK4zsI49uDWXqPxO8OzW00MXhpYyylRJtXqRxXo/izwfHrHhe30xr+O2VFA8w4wa8s8Q/CqDStJmvE1yCZo8fuwBz+tTJ3uuxUVseWu2XZgOCeB6U0DAxXd/Cfw9Ya/r72epwmVFicjDY5Arsl+HOgaJcXl74juQun7yIrfuB2OetO1hLU8TpVOCG42njB617R4g8C+HNW8MTal4TY5hBY8k59ua8y8KJpEeuxR+JCUtQxD4z/AEoTBqx3Pwl1bwxp+l3Uet+Qkx6Gdd35VwXi6eyn8RXsulgCydvkx6Yr2fRPC/w68QCaPSo3mdFyxywxxxXi3iyzgsPEd5aWoItomIA/CpqaNIqOqZkYwFU9MfrR2q1pVlPqd7b21sMtMwQe2a9ki8FeEPDNhEPFs++aT723Iwfwq2rEpniNFez6x4E8Pa5oUl34Ply0OT5ZPLfnXmnhnTorrxVbWV8pMBYrInTp70L4kgatG5h0V77qXwv0GxvPt104g0xFyYy3J/GorXwZ4J8Uadcjwy5+0xgkkk+noaS1cl2CWiTPB6Ku6np8llqs9hgmWOUxDjqa9T8N/D3SLDSBqniufZE6AhOhoTtFMfL71jl/hBbw3HjC2S4iSWPnKuuR0pnxhghtfGl5HDEkSAjCxjavT0r1fwTbeAv7ajPh4t9qXsSfT3ry74zk/wDCdXm7nJH8qKnu8o6a5lI4TvjvTqaOuPSlpWEwoo5GWA6d69C+G/gaDXbWXUtTkxpyfqe9VYR57RXto0/4XSyG2WVluD8obLYBrzDxtpVto+szQ2UwubXd8jDjAqVuN6IwaDXr/gHwDpniLwbLcMhW+3hVkJ4xjritJPC3gHRpIdP1ubzL8gZZWOM/hVPQlHhtFek/E/wLBoccOo6R+8sJeiZ6e+a57wF4TuPFOp+UhxbR8ySngKKUVeTRTdtTl6K9xuNE+G2lXKWV/KWvj8rFSSM/hXM/ETwDBpOnrq2hyCTTpCMEc4zSv7txJdDzSitvwj4fuPEurx2drkA/fbHQeterXPhz4e6A62muymS6CgHaT19eKqa5UvMUdfkeHUV6v46+H1imkHWfDEgltAM7QeQK860HR7jWtVisrMHzHPPtihaSsU31MwcggjBzXtHwbsLS68IaxJcWsUkiFgGdQf4asnwf4K8NWsa+JrjzLkj5wM5z9BXX+FYvDcfhfUj4UJ+yuGZgcn5se9TP4ZNBb34nzXqwC6tdKqjAc4C8AVUXlfQ+lXNY/wCQtd/9dWqn3pR1imU1qxaKKltbaa7nWG2XdK3TmqbsRa7sQ5oroR4L1sAE2oZj/tCg+DNZGd1rtJ4+8KwdZJ2OmOGk1c56irOo6fc6bcG3vF23GOntVb8c1vFqSOdpwdmFGecAbR3Joo6Zyd3oKT6jVrm3onhfU9XYfZYG+znrKelb2vfD250bR2vnvIpFA+6F5FVo/Hd5Do0NhZIITHGEJArvPEMrzfDXzJSTI0QLH3xXjYitiITj2bPQw9KhNNvc8TAwcZwKUdKQdfwpRXsxd4K558kk2kLRRRTJCiiigAooooAKKKKACiiigAooooAKKKKACiiigAooooAKKKKACiiigAooooAKKKKACiiigAooooAKKKKACiiigAooooAKKKKACiiigAooooAKKKKACiiigAooooAKKKKACiiigAooooAKKKKACiiigAooooAKKKKACiiigAooooAKKKKACiiigAooooAKKKKACiiigAooooAKKKKACiiigAooooAKKKKACiiigAooooAKKKKACiiigAooooAKKKKACiiigAooooAKKKKACiiigAooooAKKKKACiiigAooooAKKKKACiiigAooooAKKKKACiiigAooooAKKKKACiiigAooooAKKKKACiiigAooooAKKKKACiiigAooooAKKKKACiiigAooooAKKKKACiiigAooooAKKKKACiiigAooooAKKKKACiiigAooooAQ0hAxuC80uM9s0gyctk8nGKANTQdWOkzGQQpLlSME11GneJ4NRxaTwLF5vGVrCs/Ceo3lqk8Hk7GH8TVpaX4WlsZ1udQmiVIznAam3cEjJ8T6UumXuImLRv8AMDWNW34r1JL+/wAQEmJBgViVKVhhRRRTEFFFFABRRRQAqSyRZMTsg/i2nGa94+Hsjt8MNUckuxjPzMenymvBGIAwSBmvefh4D/wqrU92cCM8evymrb0FFao8Mlnm3MTNJkHg7jURLM3zsT3x60SnLswHy9CDV3RNKuNY1S3sLMqZ5ztXecAVEFqVNnX/AAXCnxvZjGSu7H5VH8Z+fHV9lR1GOfYV3nw5+GmveHvEdvfX/wBlMMef9XJnqKj+I3w013XfE15qFj9lED/Md746CnV1lFjp+7GSPHNEJbVtPBGFEyD9a9u+M2qXdl4Us4LSZohJgPt/iX0rxu2sptP8T29nceXuhuEXAPuK9Y+Og/4p/TuGHK9qibdmTFWaZ5J4b1qfQ9bttSiiErxMD5ZbAb6mrvjbxM/ifW21B7ZIZMKCgbIGPeueFKoBcA9CQOKa11Ge1+FfFWieI/DMega+3lzoMIxHFZmr/CYi3lufD2ppen72NwGB36VXT4TXGo2MFzod7FP5i5YyOAQfwrq/h54N1jwdevda/fwwWaIf3SS8OccHmnOPNEI6M8K1C0msbuWC8VldDtIPUmvSPgFj/hKJzjGIeCK5j4lalb6p4ru57TBXefmHetX4NavbaV4nBun8tJRsDHgZ96cH7thSWtzN+JwB8YXpYAtn+tcmMdhgV7j47+F2pa9rT6jo01q8Uoz88mD+FeXeLPCepeFpYo9T8jMmdvltn86zStoXe6MCkOc8daWirIEwMMV/GpreWQSRqlxLjI4yRjmoqdD/AK5BjcWYDA+tVHcD3j4oSSL8PLGRCctGBndg9q8HM0z4HnSOB2LHmvd/igP+Ld6d6eWOPyrwUYYqF496xp6ymX0R6h8ANx8VuUAVvKfd+QrF+LWq3d94svYJ52aKCQpGPRQelbfwAwPFTgkt+7YcfSuX+Jo/4rTVR6XDVtVdmvQmj8TLXhDx7P4c0u4sktVnjnyNzMRt/CuRuZjLNLLjiRixH41EOc1t+FfDd94nvWt9LaIMo/5bNtFRFahUZ6J+z9xeas2eNo4/4Ca4Dx6SfF2qNgDEnT8K9q+FPgLWPC9xetqfkHzRgeU24dK5Dxp8LPENzq2o6jGbMWxzJxJzgD/61TW1lEKWzMr4E2sVx4vJcBtsLMAex4r0Dxl8PtP17V5bq98SrE3P7lio2+3WvIvh5rKeHfFUM0pwD8jnsFJ5r07xp8Pv+EsuRqnhq9hd5uSjyALz9K0qO9hWsza8D+E9K8J3U80XiCG5jkTBVnUf1ry63ES/FALburwmQkbTkVq2/wAI7+0SWTxBe29tEgyTDLk/rXJeDIvI8a20YZXRZCFdTkkVK1qRYVHamd5+0DfXS3OnWiyssJjOUB4PNY/wDdh4v8kEgeQ7Fs9cY7Ve/aEAOsaaGLIRE3AH0rO+AYz4z43O/wBmcE4+lXT92U33FUXuRK9+iz/F1kYDa18efxrY+PV5PFqtvp6SMsUcYfaBxXN+KLz+zvibPd/dWG7LFV6nB9K9O8aeFh8QtOtL7RbmI3OwbmdgMexqPsI1k+WV/I85+C4x42tcLjruGfamfGghfHN9t++SOvbivTfAHhXTfB99Cuo3CzavNwoUglMeleZfGnB8dXxIIwRyep4FFfXl8gprkUvM4XGCQeo60tIM96Wm2Rawhx1J/CvVfhf4y06w02XRtaTFpL0I5zn19K8qIyflwD616F4W+Hn/AAk3h2O7069jS9LEGF3AH19aaCx0mqfC3TNRZ7rw9qkbtJ8yw7lGP1ry7xHot9oeoSWuoqUkQ8HOQ1epeFPhn4l0XVo7y5vLW1tojlzHNyR+NY/x01i01HWLSKxdZWgQpJIpz37UrWYPVHX/AA4nktvhbqM0TkSqhKnH3Dtrwe6uJ7m4eW5YvM75Z88k+te//CuwbUfhzfWtu3+tGwbuhJWuPtPgzrX2/N/NbQ2g5LrJzj8RVTXvWIhrHmOivmNx8G2eclnVcJntU/wU0+J/B9wxkWJpwVd89Kxvinr1lpvh+Dw7pcscuxcSvGcjp6jvVL4M+ILSOG70bUpUjiuF2xu5wo/GlCVpNlSjpY1JvhPo01w8r+KYxK5JOWT/ABro7nTNM0LwBfab/asF5tiYoTIuchTjAzXF6t8HdXkvHk0Oe3ubYkkNJJ0/KsnxH8Om8PeHjd6rqCi6JH7uNwaza05S076nTfACzjls72cyYfBTeRyOBzVnVPhfpF9fT3Nz4pRZHkLFSUOM9utcj8GvENtpeqS2WoS7La5UruPbPr7VveJPhLfahfyXfh+7tprWZi/zy4xn0xWlR3SXYimrXOx0PRNM8OeGb20/tuC9EiHCvIo/rXDfA2CI61ql1geZEW245xwaz9S+GE2jaHPfa3qMUcyj5Y45Ac/nVb4N65DpPiaSC5cJaz5BcnvjApWu3IH0Rzvj68mu/Fmoy3Eru7SH73HFen/BLP8AwhetBeE3Nx/wGmeLPhRe6t4gk1CxngaxuX3u7vgqvfbXZ+HbLR9I0G/0nSJBLJFExldMHLAd8d6mLtFx7l9U+x816x/yFbv/AK6tVPvVzWP+Qtd5G0+a3WqhxniiOisJ9wq3pC3DahGLIgXH8JziqdSW08lvMskJZZB0IpTTaKpNJ3Z6Etp42IG2dQMcfOKT7J4273IwD/eFckPFGtZwdQnUDoAaB4m1skY1GbIOeWrglRlzHswxVNQsM8TJqKar/wATdw9ztHIPasoY7VPfXtxfXXn3chlf1JzUGPbFd1KLijycQ4yldBQDzkDGKKQnH3vTjFW5Rjuc6Uugv3iSDknmvadbz/wrBfXyR/IVw2k/DvWtUsYru2a2EToG5fBr1DUvD19c+DF0tSguPKCA54zivGxuIvKMV0PVwVJKLbR8/jv9KUVv+I/CepeHUjfUDDtk4BVsnisAV6tGanBNHn1YOM2LRRRWpmFFFFABRRRQAUUUUAFFFFABRRRQAUUUUAFFFFABRRRQAUUUUAFFFFABRRRQAUUUUAFFFFABRRRQAUUUUAFFFFABRRRQAUUUUAFFFFABRRRQAUUUUAFFFFABRRRQAUUUUAFFFFABRRRQAUUUUAFFFFABRRRQAUUUUAFFFFABRRRQAUUUUAFFFFABRRRQAUUUUAFFFFABRRRQAUUUUAFFFFABRRRQAUUUUAFFFFABRRRQAUUUUAFFFFABRRRQAUUUUAFFFFABRRRQAUUUUAFFFFABRRRQAUUUUAFFFFABRRRQAUUUUAFFFFABRRRQAUUUUAFFFFABRRRQAUUUUAFFFFABRRRQAUUUUAFFFFABRRRQAUUUUAFFFFABRRRQAUUUUAFFFFABRRRQAUUUUAFFFFABRRRQAUUUUAFFFFABRRRQAUUUUAFFFFABRRRQAhOPX8KQZ5AxinUlAFyLVL+ONUivJ40UdFbFR3F/dzjEl1OynqGaq9FACDjgAYp1FFABRRRQAUUUUAFFFFADcc5AViOz/wBK0bXWtUtrV7eDULmO3fholfC/lVCkobBCNknJJ/xNTWtzcWdwk9tK0M0fKPGcEVFQaFoD1N3/AITHxJ0/tzUMH/psaG8YeIyNp1zUCvp5xrBoqZblR2JZLmeS7a5lkZ7hm3+aT8wP1q1qOs6nqUSx31/cXEafdWR8gVQoFVImLFFDZxx1opaQGlY+INXsEEdnqd5AvpFJgUt94k1rUIjHf6peXC+kkm6sujFO4xMnI9xk5pVZlkVk4K8jPrRRQtBPU2IPFmv28QSLVr1FHQLIRj6VFPdat4hvI45Z7u/nP3EY7j74rMrQ0LV7jQ9TivrRoxNHnG8ZzQlqDeli8PB3iPP/ACBb7/v0aU+DfEecf2LfZ/65Gup/4XP4p8sZ+xjn/nnTj8Z/FAZiDZ46cx02JHIy+EfEEUbPJo96qKMkmM4FYjB4ZGBBR1OOOoNeh3nxf8TXNlJDKbMxuu0hY+a8+nkM0ryt95zuP1NStGWy5da3qt5bLBd388sC8BHfIFZw5U8cjoD0paXFJK1/MVy1p2pXmmSebp9xLbSkY3QttNQ3d1Pd3DTXMrzTMcvI5yWPqTUdITn5SR+FXL3hLRgOFNWrDUL3TpRNY3Mlu54PlNg1UBz0B49adS2Ha5vHxl4jzxrmo4/67Gmv4u8QvGyHWb5kcEFTKcYrDFIaTV9RrQGJIw+GJ53VqWOv6vp8QjsNRubdOyxvgVl89utA7bWDPnoKa94m5rXniXWr6Mx3eqXUyHgh5M59jWZbzS2syzW0rxzRnKspwaYScfw9eRRS21CWqsXdU1W+1ORX1G7nupBwGlbdimadqN5ptwZtOuZrWYDbvhbbkVVNFU3ZX7g9UkS3M8t1O89zK8s8h3GRjls/Wr2n67q2nReTp+pXNvH1wj4BNZlFJLoU3dl+TWtSlv0u5L+6N2vSUv8AMPoaeqat4ivmES3Go3jfMS/zucVnDJ6DNa/hfxDeeG9QW908x+cAR8wz1oXvA2Tjwd4jcmT+xb75uceUeKUeDvEZxjRb7n/pka6r/hc3igAK32MHGB+760H4zeKR977HwMACOjcSOPu/Cmu20Dy3Ok3sUaDLOY8AD3qnp+r6lpjE2N5JbseCY2xXY6r8V/EWqafNZXRtVhnTacJzXAE8kbfmznPagDan8Va9Kgjl1i+kiPUPLmsZnLSM+5iW65pOe5B9xRSb1QLZnvnw6me2+FmozxSSROikrsOMHbXkE/i3xFMrK+tX7qf4WlJGPSrmkeONV0zQbjSLPyGt5gQ29MkcYrlyTnC4JP3varm/3j9CYfw16g7s8pkkOWf73vQjGNkdOqngUYoqErFN3NqLxZ4hgRVg1m+hQDG2KUgVR1HVtQ1DnUL25uhngSPuqnRQ9QTsIPvZbg542/19q2bfxRrttEsNtqt3DEnRY5CB+FY9FD1EtDQ1DW9T1Fduo309ynYSPurOUsrK2SGByMdqWlp3BmwPFOuxwrHHrGoCIjCoJeAPQ1Vs9X1Czab7Nf3ULTZMpjfG8nrmqNFIdxHeR8l28x2bJZ+TSHAPGf6U6mnI5GPxo2FcByOOlByehI+lI4HBIbH+zTv5dqfMFrjRheuWPqaU+4Uk96KKNGCg+4gwPlI/Gl+pzRRT0DksFHTOec+vaiipaK5mtjTtdf1i1iWK21K6jjUbQokIGKkHifXFTA1a9LE8EyHisiispUYT1aKhWqQLmoapf34Rb+8mudvI81twFVBSUorWKSVkiZSlJ3kLRRRTJCiiigAooooAKKKKACiiigAooooAKKKKACiiigAooooAKKKKACiiigAooooAKKKKACiiigAooooAKKKKACiiigAooooAKKKKACiiigAooooAKKKKACiiigAooooAKKKKACiiigAooooAKKKKACiiigAooooAKKKKACiiigAooooAKKKKACiiigAooooAKKKKACiiigAooooAKKKKACiiigAooooAKKKKACiiigAooooAKKKKACiiigAooooAKKKKACiiigAooooAKKKKACiiigAooooAKKKKACiiigAooooAKKKKACiiigAooooAKKKKACiiigAooooAKKKKACiiigAooooAKKKKACiiigAooooAKKKKACiiigAooooAKKKKACiiigAooooAKKKKACiiigAooooAKKKKACiiigAooooAKKKKACiiigAooooAQ0tNbpQ2S4xQDF69KcqO33VY/QVNp9o15dJBGCSx5r0vS4ba2UWKKjuifOcChgjyzvzS1Z1UY1K4AGAHOKrUkNhRRRTEFFFFABRRRQA3PNLmgAswQKXY9FFdbpHw68R6tbLPZWeImGfnbGfzoSBnJZo6ge9b/iLwfrGgIG1G2KZPDA5GK54fMScFSv60lqxtJIU8daOgPt1rqtB8BeIdctEnsLLMJz8zttJ/A1X1/wAGa1oEPmahYlIj/cbdSlom2JXdkjneoz2oHOKOTnJwRzWroXhzUtdl8vTrZn3DIJ4B/Gq+KKaE/dm4sywckgdqBzXaXfww8UWduZJNPQRgZysgJrjJYmileKYESIcEY70Rs5crKlorjQcgkUo5GRW74f8ACer+ICTptmWVeu44H4HvWrqXw18T6fC89zYqFHJKSBv0pJNXuHRHG54z26UZ+YDuaVkZZmRwySLwQR1NdDceC9bhsbS6ezzHdkCMq27Of5VSV2hbI53OelBznAIB9xmu3Hwv8Utb+YtihjC7ifMGcfSuNvLaSznaCeNopEOCCORSuO2hCwzguc+mKn0+Bry+gtlcI8jhckdM1PpWk3mrXPlWMLSv2AHBruNH+GPiaK/s7ie0UIsiyHDjgA00tbEt+7czPG/gaTwtbW1094k/nYO1Vx1rjFOcnGOa9v8Aj0rx6PpgxggqpFeIDHOPWov7zj2KtomLRnnHrRSDO7IHTvVbiAnnrXWeCPBGo+KHaW3xFbIdrSMOAa5mKyupY98NtPIhP3ljJr320judJ+FELWEciXEkYJAT5jxVNcsbh1SObf4LmOKR3122zz8uP/r15RfW/wBlvJrfcGMTFcjvirc39syGWWVL9STlmIfApmi6Ve63fpZ2SeZcEn5WOM/jUQfO7Dm+VXRnE4Ge1KDkZ7V0MPgzWm1iTTIrU/bUPzDOVH49Kta58PvEWj2jXV9ZqqKRna+7j8KeyBqxyncV1ngDwZP4wupoYp1t1iXdvIzk1zVlbT317DBbAGWRhGgPcnpXpfh/wP480G4Mulxpbuwwx8wHNVBWJejOL8aeHJfC+rtYyyLKQA24cdawiPmC9zW/42XV116RPEeGvAo+YGufXLAqPu+tRD31Yqfu6h3Io747iuj8P+DNb1+Dfp9mXjHA3Hbn3zU+veAfEOhWomvrMBF4Yo27H5UfFaL6CeiucrnjNB4IHc1LbwPcXSQQcvIcbT6+ldDdeCNdtLqC1mtCz3ABj2nI596qL6iaszmW4JznI9KDwQMcGu0uvhl4ntLUzyWaqAMnDg8VxskZin8mQsrJnII70o6XKY3PGOjHn6Vd0WwOqavZWQkCGaRULHnqam0PQtR1248mxtmd2G4kdOPeu+8LfDPxPY67p11cWUawxzK5PmgnAPpVQSaZMm4rQ5jx94Ok8J3qQSXS3G75wQuOvauVwGKk5HqK9c/aC/5DVuMYOwZ+teR/xCsYycmzWSsk+4i9OBgUtA6UtaW1Iegn3ip7j04oOCST97PbirWn2N3qNytraRtNI/QAdK7BfhV4qaEOlhHtAzzKAaJb8xMdFynCg8UA5Ge1XdY0q60i8+zajEYZB261f0Lwvqmu21xPpsCypCMnLY4prWLkEvdaRiE460Hrjv1rqdF+H/iLWrYTWNmNinA3tt/nWf4k8L6p4el8nU7UxSMM7wdw+mal9Smve5TGzgZPSk3CnIhleMRAmQcbAM5rsdP+G3ii/gFxb2oCuMgMwHFPlaSbJum2jjCcDPagHIz2rX8QeHdS0CYJqFuyHueorKwd4EY3ZpLV2G1aNxueM9qUc5rrdI+HXiLVrRbi0tAsTDcu5sHHpWf4i8Jax4fdP7TtSgYZV1OQBRJ8sbsOVtqxhA5zjtzQpG8bhkU3knHXBycdxXUaD4F17XYDLptlvi7F22/zqmmkpINnZk/gHwW/iwXey7W3EIztK5rnNWsf7M1GazL7zE20t617v8J/CGr+G4tRGr26wecnykPu6A14v4xP/FSXw64fr61NR8skl1LgrpmLRRRx6c1SvJWRCV29RCQKdQc9WbAoznpz9alprcEncSjrR+VJ8pJByD1p8wON9EKDnOO1Hag4wpTp0NFCGtdwpQCcBQST6Ckr0DwN/YOnaVLqOoETXK9EbtWVap7ODl1KpQ55WexwZilHWKQf8BNM9fYZr13SPHum6pfJpt1psUMMvyqwGa5j4oaBBpGpxyWoxDImcfjXJRxcrpVVudjwfMnKD0RxPYH1pabyD/skcUtd97nALRRRTAKKKKACiiigAooooAKKKKACiiigAooooAKKKKACiiigAooooAKKKKACiiigAooooAKKKKACiiigAooooAKKKKACiiigAooooAKKKKACiiigAooooAKKKKACiiigAooooAKKKKACiiigAooooAKKKKACiiigAooooAKKKKACiiigAooooAKKKKACiiigAooooAKKKKACiiigAooooAKKKKACiiigAooooAKKKKACiiigAooooAKKKKACiiigAooooAKKKKACiiigAooooAKKKKACiiigAooooAKKKKACiiigAooooAKKKKACiiigAooooAKKKKACiiigAooooAKKKKACiiigAooooAKKKKACiiigAooooAKKKKACiiigAooooAKKKKACiiigAooooAKKKKACiiigAooooAKKKKACiiigAooooATrSAlh8oJJOAAKG6Vf0NYTqsZnk2IOetAM6TR4I9E0lr64GLhhhB35p/gu5a5vrqZwGdlO4k1o6va6TqewvqQRFGNm8VP4e0vTrKSQ2N555K8/MDimxI881YY1O4weDIetVc811PiTStNi8yeK833BY5i3Dj8K5RSSDnt0qUUx2eaWmqTTqYgooooAKKKSgDo/h2lq/iu0+3YEWeM9CeK9c+Kd74t06aGTw7JNHp+OBbDdn3PFeD2UFxcTCO1Sd5s71EAy3Fd1oPxN8RaCGtbkLPjgpdE5A+lV0JtdlPWfHOuXmlyaZrKvMzciSUYYVV+GWiLrviiCOcb4IyC6nuK9SvrfS/G/gS61ZrAWd7ED84TAJx6+lcN8GL2Ox8YC3kZd0vyK/bI9KmmrsuotDq/iF4m8R2OpDT/DdndwQRKAJYojzx9K0Ph7q+r+IrK503xLZXPKHbNNGR2NHjz4jeIfDWsTW40y1a0UDZK4b5q520+MXiO/AFrpUExKncI1Y4pR96PvDqe7blPP9T0UReMH0hc7ROI8+xI/xr2PxXrcfw80C10/S4EF88YBfoceteRWurTXPjaPUruIJJLcK0ikY28jpXo/x00m51EWGq2avJa+UFyoycZ605+7H3QXvVPeOMs/id4kt7zfLfSXEDcmJ+lYemQyeI/EscR/dNcSFjt575rItYZ7i48mCMvL/Co5JNb3gW4Gl+LrGW5BiKuQ4k49qdNJz5nuKp8J6v8AEPxK/gnTrLSNBCwTMnMq9R61y3gb4masNYht9WnN3bysI8SH14q98edKujdWmoQwma3Zc+YgyqdOp7V5/wCCNGuNY1+0FnC7rHIrMyDIXBB5pQfM25Cl8KOv+N+iw6f4hiuLRBHHOu5iPUmvTJNcg0D4b6deyQrLKkCiJSOC2O9cD8e7xG1Sxs42DGOP5sdjmtzx3gfCrSAv3fKX88USfLSuaNe/E5nwp8R9avPFVulzcubSZ8GLsv0p3x2s4h4htbiFAjXI+Yge1cL4M/5GSw/66V6H8djjUdK+YjABwO/SplooEPRyNrQ2t/AXwzTU4oUN/Ptwx68kiuH0v4j+J7jX4A2pzeVLMqtEMYAJrufHEDax8JbG409VkWMLx/eG45P4V5X4F0G/1rW7QWUJKRyK8kmOFwfWrekiVrBHpfx6YyaRYM5yThs9814gowK9x+Psfl6Tp8WcuhCg+teHL+vesl8ci/sodTCMgg8ehFPprVaJPQvB3xMufDOkrYw6bbXHTLSE5r2O78XyweBYdbFpE7yIG8on5Rx0r5bH3xXvepf8kas/+uS/yNOq7U2xxV5I5nUvjJeX1nLanSbSOORcEqTmsf4QSeZ48t5sY3OSV7VwI713Xwb/AORztPqf5VVCPv8AyFV2PRfib44h8NX1xY6PABfS4M0xGCvpiqnwx8ZHW9P1Gx8S3cUgKMIzO4H8JrivjZ/yPF5+H8q4HsMgAr1K1ktUXPSxqas/9m+Ipm02YIIJf3Tocjjoa9K+FfjDXdW8Sra6jqEtxAV+62K8fI4zldp6DNegfBVlPjFMgjCDp061tFfkZSeoz40/8jvP3+QD6Vz/AIK0lda8RWlkT8jNnHrjmug+NbY8cTNlQCgxzVH4VXUNj41sJZseSCcsPUis6GmhdRXR6b8Rdc1jQo7fSPC9jdRRxrhpYYic1F8NfEPiHUr99L8SWNzPazRtmSeMjHbA4rX+IfjzX/DF+wttNtZrJhlZpA38646y+M3iG6kWO30u2mnxlQgY1VtWHRHMa7pK6P8AEQW0J2w/asoo7LnpXsvjrxWnhXw/aTwwK15MgSNiPu8V4hdavea342trvUbdLe5MwDxgEEHPvXoHx2/5AOjfUfyqFokD1kyv8MPHmsan4l+wancvcwXJOFb+H6VynxTsIo/iDdW8AEaNIqhR05xTPhB/yPunA9CWz+VXvisyj4jv5nAjmQk/iK0krcvmOOvN5HdajdxfDzwLarYIg1GdRufv3BrivCHxA8RXnimxhuL+UwySqpUnjk11fxos5NU8LabqFpGWhVByo7Zrgfhb4fv9X8S2Vxaw4tbeQSSO444PalHSUkS9YI6f9oM51q2O7JKDJryP+IV65+0FxrVuAAMIOleR/wAQrKlo2aVV7sQHSlpB0pa0W5mz2P4CJatBqLKIzqY3eSGPPT/Gs/xLr/jvStYuTLLdmIMcBFygH1xXAaJJq1hIb7SRcx7OGmQfKPbNei+HPixe3M8Vhq9nFcQtiPIBZ3NU0EThPFniW68RSxz3sSpOoCHHU47mvUfgAVWx1NpBuQKCaxvjN4d07T4bLVNNh8hrkZMRGCDjPStX4Cg/2RrA6q0fP5GiGtFodRaoxPGXxN1A6nJb6C5s7SJsAx9X+orr7e+Pjf4ZXUt+ga4tF3bsZO4KTXhmqoRqkyBD5zuQFH1r2zwpayeHPhXqEmpFrZ7lD5atxyVIANRLSFi2v3hyvwU0CG91OXUbuESx265C4z845zVvxZ4w8ZS6xNHpdvf2tvG5VVihOCAevStD4A6iEjv7NQGunUyqPfA/Sk134t+JNH1O4tbjSrSPynKqZVYFgO9XJvlVyElzOxuWUl14y8D3Uev2TpeQrkSTIVJ/OvOfhN4dh1TxQRcRiS3tyxKnpkdK25fiz4j1DT5dukWstsQQ7RqxxTPgRqaR+ILqBwVlmywB6A46Uox1bRM2+VIv+PfFniiLV5bPQbW9t7SE7EeKIkt+lbvg+/1LxZ4avdN8SWMyzJGdk00ZBJx1571R8Y/E7xH4f1y6tZdKskgRiEkcMN/09ayIPjB4mv4Jfs2kWsqqpD7VY7R71nJc8PeNHLkaUTl/BHhqK/8AG8unyENb28p357gGux+JXju80bURo+hOLOKBAN8ff61ifCHUUm8d3E12I4prkn5F4+YnpWX8W9NuLbxhcNJA2yTGGYcNTlKSUV0FpJts9F+DfijVdeg1FNVunuhEnyl/cGvHPGOT4jvjk4L8A9q9i+CHh++07S7+7uokiimTKA5BPB61454y58T6gQTgydD2pVv4kSqe0jGoOTgdB60UjYIAP5VaaS1Mu5YtTCl3GbgBogea7iPUvBuxd9mxbHJ2GuGtXjju42mi3wg8jFd0mv8AhRUUPpTFgOSIhXDXV9rnqYGaW7S9Rf7S8F/8+J/74Ncv4nudLmu420eMpCFwwK4xXUf8JB4S/wCgS/8A36Fcv4mvdMvruNtIgMEYHzKVxWeHg1Lr8zpxk1y/FF+hisMKMdGbjFOpi8bv7pPFOFejFWPD3Yp6UAnaATkHqD/DSVv+FfDV1rt4iopWPrJI3Ax9azq1IU1zTNIc0nyxLXgDQp9U1yLYCttCwfcenHPWtb4tavFeaqttAwZIB5ZPuDWn4k1+w8LaYdJ0Jw82NskmRkflXl8kjTM8ruJGbnJOea4Yc1eqqr2XQ7WlhqTgt2MHzLg9jkU4U3HyKSCDntTq9STTd0ecthaKKKQBRRRQAUUUUAFFFFABRRRQAUUUUAFFFFABRRRQAUUUUAFFFFABRRRQAUUUUAFFFFABRRRQAUUUUAFFFFABRRRQAUUUUAFFFFABRRRQAUUUUAFFFFABRRRQAUUUUAFFFFABRRRQAUUUUAFFFFABRRRQAUUUUAFFFFABRRRQAUUUUAFFFFABRRRQAUUUUAFFFFABRRRQAUUUUAFFFFABRRRQAUUUUAFFFFABRRRQAUUUUAFFFFABRRRQAUUUUAFFFFABRRRQAUUUUAFFFFABRRRQAUUUUAFFFFABRRRQAUUUUAFFFFABRRRQAUUUUAFFFFABRRRQAUUUUAFFFFABRRRQAUUUUAFFFFABRRRQAUUUUAFFFFABRRRQAUUUUAFFFFABRRRQAUUUUAFFFFABRRRQAUUUUAFFFFABRRRQAUUUUAFFFFACGgcHdgZpaKAG4ySWJyfSt3wvq8OkvKZo3cMCBsrEooAlvpFubyWYAjcxI9ag/lTqKBifypaKKBBRRRQAUUUUAa3hPWpPD+tw6hGgcoCpVhkEHrXqR+JvhGcB7zwyJJ2++/koSTXiwop3exXmek+MviUNS05tO0KzWxsmGCu3acfhXnlldTWV1FPbOVkQ7gc8g1DRSi+XYUnzbnsOnfFfTbrToofFGki9ljGAyxgg/XNOv/ijoMNtKNC0BLSd1K7vKUDkY7V47RSkuZWYo+6ST3Ek109wx+dzuI7D6V6X4P8Aim+naethrlqL20Rdijbk4/GvMKKcfdVkEvelzM9mn+J3haKNn07w2kN0B8khhUYP4V5DqF293fyXZwHdy/05zVeihaS5geqser+GPitHb6b9j8Q2P22JQAqqoII981duvirotlaSL4a0X7FcOMbvLVQfrivG6KHqHSxc1XU7nVL57y9cvMzZ9sV3XiPx5Yap4LsdGhtbhJ4FAZ2xtJA7V5zRRL3lysrme5e0G9TTtWtrqVWZIm3EL1NdN8SvFtr4qmtZLKCaEwrg+ZiuLooetvIl6novw/8AiMPD1iNP1O1+12AGBGFzj862NU+KmnQW7ReGNKFgZD852BSfyryGkbOPbPWh6u4LRWO98feNrfxPpFhbQwTpcW4Xc8mMMRXB/hg96nsFt2voVuGIgJG8+1eu22j/AAua2iM2pyCUqNw809fypW1bHfoeN0jdgOfX2r2r+xvhX/0E5P8Av6f8KRtG+FgRtupyZ/66n/CmB4sCN55GB0969Ku/H9jN4Dg0NbW4FxGgUucbelcL4gjsYtavI9KcyWCviFic5FUB0pSXMrMNtRBXR+BNdg8O69BfXMUkkcfVU61z1FXGTi7oT97c6P4geIIPEviKfULWKSKKTGFk69K5rG1iV79c0tJUJcuiG3fc1fDV7Z6fq8NxqNsLi2QgmPAOfzr1yz+Kfg+xk8yy8OyQSf3kjQGvDqKtSZNr7nuF/wDFHwdfSPLdeHJJ5mGN8sSMRXj2pXkcmrPdaeht4t+5EHGOao0VKVndFXbVmeuaH8V7ZtOFr4m01b5VwFwgP55q1cfE/wAMW6M+keHRb3G0hGMSjB/CvGqKdxGo+rmfxH/atyvzNN5rKn9K6n4jeNrPxRpthb2lvPE1ucsZMYPHauBNFJpOyGt2ze8Ea1DoHiK21C5jkkjiJyqdTxUvj3X4vEXiK41C0jeKOQghZOoxXOUU227eQ1pfzPUfBXxPi03SBpviCza9tlGFVQDx+NWdT+KlpGYYfD2m/YbQSAyBUCsV7gYryWkpKWrZLjpY7T4j+LbbxTdW8trBNEI0CnzMZJFcXkZFa3haHTZtbtk1uQx2Rb5mBxXqiaL8Ku2pv15/en/CjlXQbm3ZPoeK9BzStlQSRx/OvZxovwq/g1OQj+LMp/wqK90f4YLbXBtdSkacRsY1MpIJxx2oWgbnL/D3xtb+G7Sez1CyF3aSvvK7QTnGO9defiZ4PRVkt/DAS5Q5VhCgwa8YcKHbYcrnimmnzBY6Xxv4wvPFF55l0Fjhj/1SKMYFel/s/MsVhqjsNyhASPXrXh/G45G/jtXqvwg8SaXomm6jHqd1HbmWMhQ3c4NNabEttvU2734keDorx2bw1uuUJw/kp19a4Px349u/E4W3RRFYocpHjH0zXJ6i6y3srqcgsSDVYfdrN6u5pJ9TU8Pazd6BqS3tg5SUdeeD7fSvVh8VPDt/BE2vaD9pulADOIlIP514vRVuTkrMziuV3R6l4o+JGl3elS2Og6OlikgwSIwv8q840vUrnTdQjvbaQpOpySpwDVSiktHcpvmVmey2vxX0a8s408SaIL2cYy3lqwH0zVTWfibopsJoNA0RbOSRSpYxqMg+uO9eS0US95WYJ2LmnancWOqrfw7FnV94IHevXE+K+h3lnF/bWjPdXaKMOUUjP414vRTvpYVtbnrtr8XV/tWV7m1kXTwpWKGEAEcdxXmGvXqajq1xdxqyrK24ButUaKmS5mmxp22G0vToBn3paKaBOw3nqSaXFLRQITFHU8gAY7dTS0UANPPXseMUcmnUUDTsJ3r0zwj4+0vRNFjtJbGd5x951Aw1eaUVhXw8K8eWZpRrSoy547nqsnj3wrJIzyeHg7sclmiUk/WsLxd4m0DVdMWHTNHFpOJA24Rqox+FcPRWFPL6VNpxvobzxtSd72E7H60UtFdxyN3CiiigQUUUUAFFFFABRRRQAUUUUAFFFFABRRRQAUUUUAFFFFABRRRQAUUUUAFFFFABRRRQAUUUUAFFFFABRRRQAUUUUAFFFFABRRRQAUUUUAFFFFABRRRQAUUUUAFFFFABRRRQAUUUUAFFFFABRRRQAUUUUAFFFFABRRRQAUUUUAFFFFABRRRQAUUUUAFFFFABRRRQAUUUUAFFFFABRRRQAUUUUAFFFFABRRRQAUUUUAFFFFABRRRQAUUUUAFFFFABRRRQAUUUUAFFFFABRRRQAUUUUAFFFFABRRRQAUUUUAFFFFABRRRQAUUUUAFFFFABRRRQAUUUUAFFFFABRRRQAUUUUAFFFFABRRRQAUUUUAFFFFABRRRQAUUUUAFFFFABRRRQAUUUUAFFFFABRRRQAUUUUAFFFFABRRRQAUUUUAFFFFABRRRQAhpCwBOaUjNIuSrbevvQAbgWIGeKMjdtHWtqw8Oale2yTRBWVxnrU6+ENWAx5UeT33UAc/8AXrS1Y1Cwn0+4MNyoD4zkHNV6ACiiigAooooAKKKKAEpKUUUx3EzjrxRuGcd69Y+GfhfSdX8JaheahZpNPESEYk8cV5fqKiK+nRT8iuQqelSwsQUtIKWmIKKKKACiiigAooooAKKKKACiiigApMd+9LRQA0DBz3pQPWlpKADFJjnI49fenUlAxMDJ447D0paWkoAWiiigQhpF+bOO3WlPSvXPh54W0jVfBGpX19YpLdRoSJCTkfKTTSJb95I8i3KDycehxRTn+Rigb5M8L6U2ovqXNWClpKWqBi0UUUCENFB60UrajQmeaTOAx9KVunvQeOD1NOTsAHjg9T2o46Dr6V02jeCNZ1ayW4sURlfkFmxV8fDTxIQd0EBI7+ZXN9agpcr3Nfq85LmWxxRBHXg9qTaO3WtLXNIu9FvPst+irLt3YU54rOrdT5tjPk5dwIyMY+tK3Ix+VApaoQgoNLSGgBvVAD1z1pT+npRS0yZaMTByTR/DilopWKb0FooooEFFFFABRRRQAUUUUAFFFFABRRRQAUUUUAFFFFABRRRQAUUUUAFFFFABRRRQAUUUUAFFFFABRRRQAUUUUAFFFFABRRRQAUUUUAFFFFABRRRQAUUUUAFFFFABRRRQAUUUUAFFFFABRRRQAUUUUAFFFFABRRRQAUUUUAFFFFABRRRQAUUUUAFFFFABRRRQAUUUUAFFFFABRRRQAUUUUAFFFFABRRRQAUUUUAFFFFABRRRQAUUUUAFFFFABRRRQAUUUUAFFFFABRRRQAUUUUAFFFFABRRRQAUUUUAFFFFABRRRQAUUUUAFFFFABRRRQAUUUUAFFFFABRRRQAUUUUAFFFFABRRRQAUUUUAFFFFABRRRQAUUUUAFFFFABRRRQAUUUUAFFFFABRRRQAUUUUAFFFFABRRRQAUUUUAFFFFABRRRQAUUUUAFFFFABRRRQAUUUUAFFFFABRRRQAUUUUAFFFFABRRRQAUUUUAFFFFABRRRQAUUUUAFNXlOwz60pOKacAgsMj2oA72C4mtfBlvJBMEfAGQea5f8A4SDVWBVb2UEHua29I8SadBpkdrdWrOEHTaDV6zu9A1aXyha+Q7cA7QKGNHEXN1NdS77iRpJMYJNR1reJNJOl3hVR+6blTWTSQMKKKKYgooooAKSlooAsaZYXGpXkdpaIZJ5DhVAz+des2Hwl021s0bxLrKWVwR8yCRRz+PaqXwHs4n1S7vmUGS2QgH0ytch8QtXutU8T35kneRElKqkhyAPSqk7KwR11PdvDnh3TvD3hPUIdK1H7dE+5t4YN29q+dJrKa/16S3tU3yvKQoXk5zXsPwcZj4E1X7xOWAB6DjtWL8G9PiuvGWpSSoBLbEyKSO+amK99xZU/g5kWNN+E+nwWSP4m1dbG4cZVQ4C/jmodf+E8Q0xrzw1qSX8ajJJcEfpXJfE3WbrVfFFz5szmOI4WMn5fyrpPgVrVyviAaY7M1nOjHyx90YHpRH94vdDl948x8mUXHkFD5u7ZtHXNeq6B8KrdtMivPE2pDThKNyAsF4981h+JoLXT/itKCoS2S7X2xyK774y6JrGuRWd3oyyXdpsCiFAWzz1x6U7ckVfqJfFYjs/g74evofNstdmmjB+ZkZSBXm3xC8O6Z4dvUh0rUDeoTgtuBwffFelfB/RNV0S1vrrWd1raFCPJlyoB9cV4z4kkil1y8ktyBEZWwo+vWok7PQpJWM6k57daWj1xVEITORx2613ngTwBN4htmvb2YWmnr1kJwf1rg8ZCleAOR717j8P9Z0nWvCEmh394LKdhgYbbu4q0lYmT1Ksnwv8ADEibbPxIJJz0TzF5NeU65pkmj6rLY3BBeM8lTkEdq7zWfhZr2kFr7T7hJ1BJjWAkyY9vevPdSN2t+39qeaJwcOJfvD61knaaua29256JpPww/tbwXZ6tY3ErXtwR+7P3AM4JrbtvhPoKhYL7XjFfkcxb16+1buhajNpHwYtrizb94qbVPpkmvBjqt9LqQvp7ppLoNuyzZwauTTqNIlL3Ezc8e+ELnwrf+WxMls3Mcnr7fWqnhHwxe+Jr9beyQ4/jY9hXqfxOJ1H4aaLfTshuCEJx1LYq78IdJnbwHdy6ewh1CYsokPGKORq7CWiRlj4V+GoiYbrxFsuwBmPzFzmuF8e+B7vwtch8+dYN92Uc/nXXXHwf8Uz3b3kuo2LSs27eWbdXV+L9CvLL4W/Y9buPtNzCV3SoSe5I5NQ3ou5cbXPCvDeiXXiDUks7BC0jH7x6Ae5r1RfhRoFqiRat4gW3vCOYxIo5/GrPwF00vpGrXMXlfaWO2Jx/CSvGfxqjrHwk8V6nqLXt1qWntOz8M7NgVfXQxT3OX8ffD+bw3El5ZSm701uPMHJB/DtXI6Nptxq9/Ha2aFpJDgcV9CJ4b1HSfh5qVhrl1FdSqhIaMkqq+2a434FWUEd/ql0RuMCZjLevNKG7v0NJ6JElp8JtKtbSH/hI9djs7xxkxrIox+dd3oug2Og+DNUh0q9+2W7RMdxIJ+6fSvnzxlrF5rGuXMl3IZHDkKAc4Ar174VOzfDnVQS+VjIy/wDummtiZJcyPB5SDKSBgDjmm0+X/Wsrc47imVEdS56h060+KKSSVY41Z3boFGaYQDwelXdEuLm31KOaxiE0yfdUjOaU5cq0HTSlJRYLpWot0srj/vg0p0nUcZFjc/8Afs1248R+KgoB0hAPaI0v/CSeKxg/2QN3p5Rri+s1L20+89b+z6PLzNy+48+nhlgfbNG8bejjBqKtTxFdXl5fmXUYDBORymMCsyuynJyjc8uvCMJWiIehNKvVR1yOp7Ud89hTV5yRxiqnqjJHsml31xafDCKW1leOUKMMOPWvOR4y14Lt/tS4yeTtauu8NeOtHsvDcGnajZzT7VGVRQR+Oa1tO1Twdr0gtYdOis3ddil0VTmvEdqc5TqRuj14uVSnGnB2PKNQv7vUpzNeztPKFwGY5OKqjpz1rqvHnhlPD+oqLd90L8g5rlcYLE9K9XD1ac4XgediKM6cnzsBS0ClroMEJRS0UAJRilooB6iYoxS0UAFFFFABRRRQAUUUUAFFFFABRRRQAUUUUAFFFFABRRRQAUUUUAFFFFABRRRQAUUUUAFFFFABRRRQAUUUUAFFFFABRRRQAUUUUAFFFFABRRRQAUUUUAFFFFABRRRQAUUUUAFFFFABRRRQAUUUUAFFFFABRRRQAUUUUAFFFFABRRRQAUUUUAFFFFABRRRQAUUUUAFFFFABRRRQAUUUUAFFFFABRRRQAUUUUAFFFFABRRRQAUUUUAFFFFABRRRQAUUUUAFFFFABRRRQAUUUUAFFFFABRRRQAUUUUAFFFFABRRRQAUUUUAFFFFABRRRQAUUUUAFFFFABRRRQAUUUUAFFFFABRRRQAUUUUAFFFFABRRRQAUUUUAFFFFABRRRQAUUUUAFFFFABRRRQAUUUUAFFFFABRRRQAUUUUAFFFFABRRRQAUUUUAFFFFABRRRQAUUUUAFFFFABRRRQAUUUUAFFFFABRRRQAUUUUAFFFFABRRRQAUUUUAFFFFADWxjnpQBjJ+96AUpGaQ98HBFAGjBouoXMaywWcjI3cCtnw/4avEvUnvFMEUZz83FZ9p4l1Gzto4YXXYB/dqO/8QaleLsmlwp/u8U2NF/xrfx3V8sUbBvLGMjpXOUhJLc8n1NLUoGFFFFMQUUUUAFFFFAHp3wK1OG21qexuGEaXSk7j6gYFHjD4ba3P4suGsrVntbiTcJ1X5AK8zt5pLe4jmgkaOVDkEGu0T4peJ/sn2cXcccWOMx5P50NXakC0jynsfhnQbXwz4SvbGO4Elz5Zkk5zzjtXmHws1qLS/G90lw22O6cpkn3rl9P8b63Yfatl2p+0gmTeu7OfT0rAknkknFwxIctu+U4OaE/3rl5Df8AC5T1b4lfDrU5tXlvtGga5t5cMQgyRWv8MPB8vhZZdd10/ZiqHaj8FeK4DSPiT4m0yBYbS4UqvQSLu/nWd4i8aa14hVYtRvNwX/nmNgP4UW5Y3iNy941o7yz8R/EyS6uJVS2ecMN3QnjivXPF114y0y/iXwtZJPZ+Vx+7yBz0614x8L9Jh1jxZbW9w2I1/eAA4JwR3r0z4oeLPEfh/VY7TSUaK0RPlYpv3c073iuYlP3jnfFE/wARtcszFqGmzQQDkmFNmfrzXlUyNFPJHMCJVOGz2r274feM/F+va5DbXkSzWhIEn7oLha5v432lqvicpYIvmqAZEjXp+VZz3NFseZZ/2qX8c+1S/Zrn/nhJ/wB8Gg20/e3l9sIetX0M0QlvnHykOe3YV3Fr8Pdbk0qHUNNBuDKAw8ofMtcY8E8abpIZEOcs5U8V0Xh7x3rmhQeTp96oiJ6Om7AppiaPRPhtp/jbTtbjXUorsWJ4Z7glgB7c8Vy/xplsZPGEhtChbjzCvTOKp6j8T/E+oQG3lvYxEe6R7TXHTTyTytJM5aRjks3OaSXvaml9LHv+i6dcan8GLW0skMs7qCir7E15tofwy8RXOqRR3unS28CsGkkdeMd69N0PVbrR/g3Z3lk6rMijblc9zXl958UvE93C8c12nluMEqmCKJ29rKwL+Gjq/jJqtnZ6RYaDaSKzW4GSvtxVv4QagmpeFLzQxdm3uzlkbcQea8WvLie7laa4cyMeNxNP0++uLC4WWynMUg7ihN63Ie0T0TVPCvj221JooZdVuIsna8cpxj86o+IfD3ijTPDzX+s6lcrDkB7aaRiSScDvSQfFbxXDEscVzF5ajG5owTXPeIvFOq+IQv8AadxvUHOBwD+FS9kUnqz0P4E6tCtpqWjzTeRJdZMTk4x8uPzyapeI/CXjey1CWOzutTvYGOVaKVsKPzrzOC6mgnE8LmMggqVOK7O0+KPiq0txbxXkPljjLR5P51p9pGa2Zc1Lwx4vtfD817quoXcUSDmGSRsuPzrT+A+pxRald2Fz8r3CbUDdSa4vxD4z1vxBEE1G4zGvZRtBrBtbmW0njeKRonQ7lcHkmpp7sqb0R6Lrvwx1o+JpI7aBjau5Y3AHyjNepaHo1t4e8E6jpsM4muViPnkHODtP9K8bb4oeKRYm3a8i2kbQ3l8kVk6Z4z1rTLe8ht7kEXn+t8wbj0x1PtRH4Rvc5+fAncZz7im0N944IIPJNHelEJMQ1Z068l0+8S5t8eYnTI4qtRTfK1aRUZcjutzrR4+1kAf8e/H+xQPH+sg5/wBH/wC+K5KiuZYWne/Kjp/tDE2tzuxd1bUp9UujcXW3zD/dGBVOkpa6OVRVkc05ym7yd2GOeTgU0gnJCnI646GlblSCOKGIBwzYVqN0SjZsfC2tX9stxZabPJDINyMo4xXT+D/Aupf2nbXGoxmzhhYOxlHXFY2l+Ota0mzisrOeNYIl2rlM5pmqeNNb1G38u6ulVf8AYXFefUhiailFW5Tsg6FNxlJu5t/FjWba9vxbWrrIsIxuX1FcAQfL9zSl95LMxdj1JpoGMkmurDU40KSitTDET9pU5hRTqaDnrTq2Rje+oUUUUwCiiigAooooAKKKKACiiigAooooAKKKKACiiigAooooAKKKKACiiigAooooAKKKKACiiigAooooAKKKKACiiigAooooAKKKKACiiigAooooAKKKKACiiigAooooAKKKKACiiigAooooAKKKKACiiigAooooAKKKKACiiigAooooAKKKKACiiigAooooAKKKKACiiigAooooAKKKKACiiigAooooAKKKKACiiigAooooAKKKKACiiigAooooAKKKKACiiigAooooAKKKKACiiigAooooAKKKKACiiigAooooAKKKKACiiigAooooAKKKKACiiigAooooAKKKKACiiigAooooAKKKKACiiigAooooAKKKKACiiigAooooAKKKKACiiigAooooAKKKKACiiigAooooAKKKKACiiigAooooAKKKKACiiigAooooAKKKKACiiigAooooAKKKKACiiigAooooAKKKKACiiigAooooAKKKKACiiigAooooAKKKKAEpexFFFADcDj2oApaM0AGKWkpaACiiigAooooAKKKSgBDgYJNLyVz264oBwfkXJPUntV7RtHvNXuxb2ETSSN/EBwKcFvcGyiDx0xRnPP516Inwd8UsEdo7bYef9ZzXE61pN1o2oTWl2EDr/dOanqu5TWhQIyCPWjsR60Ufzqn5ENalvStSuNMvo7ixcpOhzmvUrH4zTpbql7pUN3KOC7kcmvITnBPVgea1vDugX3iG8NppscZlPzcnFGjQS0PRdR+Ms8ts6afpsVlMeA6EHBrm/Cvj2bSNUub29tUv3lxkyVieKPDF/wCGrpYNQiRJCAdynIJrEwQSCq9M5zU7l7Hsn/C6Yf8AoXrb8x/hSj40RE4Xw7a59yP8K8a/AfnSEA/eAx7UMR6b4p+J8et6VLY/2NBbbzkspB5/KvMu/PXtQcEfMOnSlBJHX8Kb1aBfCwPNKo+YDp3pKMZGc9Km2rF2O6/4WA3/AAhEPh/7EA0eB5u7tmuEYAOxUcZp24/eJO30qS1gkurmG3hIEsjBVzwOa0fxN9wv7hEfvBu1Axziuj8T+DtS8O28M+opDtlIAKtmuc571F9WgelgIyMdqKKKLXKktLoOlFFAqmTGzVg75o7YoopXsFrbgOpPrS+1JRSburAtdRO49uKWijNE5ckbLcfuvcKKMiii21wcdNAopaSm9xx2ClxSU6hkiYoxznvS0UAJikAw27vTqKFpohNJ7iUEZxS0ULTYpu4dTRRRQIKKKKACiiigAooooAKKKKACiiigAooooAKKKKACiiigAooooAKKKKACiiigAooooAKKKKACiiigAooooAKKKKACiiigAooooAKKKKACiiigAooooAKKKKACiiigAooooAKKKKACiiigAooooAKKKKACiiigAooooAKKKKACiiigAooooAKKKKACiiigAooooAKKKKACiiigAooooAKKKKACiiigAooooAKKKKACiiigAooooAKKKKACiiigAooooAKKKKACiiigAooooAKKKKACiiigAooooAKKKKACiiigAooooAKKKKACiiigAooooAKKKKACiiigAooooAKKKKACiiigAooooAKKKKACiiigAooooAKKKKACiiigAooooAKKKKACiiigAooooAKKKKACiiigAooooAKKKKACiiigAooooAKKKKACiiigAooooAKKKKACiiigAooooAKKKKACiiigAooooAKKKKACiiigAooooAKKKKACiiigAooooAKKKKAELbRnGaMZ+TPPWg0RDdNECfmYgfrTQmdD4e0Fb6Nru7fyrcc8nGa1X1Dw7aHy/sgmxwW2g1fv9LuZ9FgsrJ1jwAWLdKw5PBF+ItxmhLf3VByaljRi6zcWtxdlrGLy4uwxiqNTX1nLZXBimR1YevSoaENhRRRTEFFFFABSUtJQAbiFYEgA+te4fCCGPS/BOqajAiG6jy6luwC9q4f4eeKNC8P292mu6P8A2iZmUphFYoAOete4eHfEOjX/AIVub/T9MENlGpaSEIoLDGe3FaXsiLangOoeP/EU91NOmrXEaMxOyOTp7Vz80l5qt2pmM11dzHA7k16/L8R/A7BlTwqVftmKP868/wDC88Nz4+tp7dGijkuCVjP8IrKmrms3ZGFNpWoW14tvLZzJcN0ikXDH6CrFx4c1m3t/tFxpd7GvUsYiEH419D+OtU0Pw2q6leQJPqLqBFuAJyB71geAPiHceLtWn0nWba32SqfLREwMAd6qOqYNHgiI7soiUuznAXqSa7PwjB4q8NXwv9O0O8lYrt2tCSCKo+NrVdD8bXiWahBbzgxgjjjBrvPBXxU1/Udas7GZbIQM4jbbGQ2Pzop63JlujifiJres61qKPr1lJaOFGI9hUD865Ightp7D8a9S/aAYf8JQg+fb5KnOe9eZ2lsbq4igG5i5AO3rUQ1NJqxJp+m3eoSGOytp7hl/55ruqzdeHtZtIzLd6Vewp6tEQBXtOqX9j8M/DlpDa2gl1WZc79oOPr371n+Evijca9qA03xJb2kkM3yAxJgDPHOfrVtdDNHiQyMjjGfxq/PpGowxQzS2NwkMvCO6YDfSuo+Knh+Lw/4mdLVR9mnzIn517Qt3plh8PtKv9WjWRYIFZI3wdzY7Z70or3Wxv4kj54XwvrpjL/2TfbMbt/lHGKyWVo2JbClTgK/Bz717Z4c+LV5qPiKGwltrdNOlbagCYIHvXOfG7R7Ww8QRXFrGi/aOcRjCD8Khy1Q7bnnFvBNczLFbxs8jclAMn8K6XQvC+vDWbKV9JvEiEqsWMRGOa9K8Hadpfg/wP/wkOpQrNdzAFd4BweQMZrJ0/wCMWuXerW9sbezW2eQKP3fzAZ781tLSVuxmvgNH47qw0XTVYbSCuVPrXiQr3H4+ymXStOkb77FWOOleHDPOaxWsmaSV7BRjLDJwKKRvuEk9CMVo3ZC5ug7IDkEgEetJghhnBrpPC1hot2k/9sXQgcNgZbHat3+wfCAPOrZbt+9/+tXLPEcrOyngnUSaPPh35+b0orur7RfCiWrtBqRM/Yeb/wDWrh5AqyMEOVB4PrWkKykZ4rDujuNoFFGct7Vt10OdarQu6NZLf6hBA8mxZHCk56Zr06ZfB/haJIL2D7dLnBbaGwa8mjcpIGjcqQeoPShnlmZpJJCzZwBIc5964q+GlWbfNY3w9RRequeu6r4c0TxHoTX2iRiB0BKrGAMn0NeRSIUcg/wkj8q9e8BxtoXg65vr4PGrg4V+n1FeSXe1rqVlbKs5b8zXPgXJNxbvY6cU1NXSsRZyciikHXAHSnV6jPOQlOpKWgEFFFFABRRRQAUUUUAFFFFABRRRQAUUUUAFFFFABRRRQAUUUUAFFFFABRRRQAUUUUAFFFFABRRRQAUUUUAFFFFABRRRQAUUUUAFFFFABRRRQAUUUUAFFFFABRRRQAUUUUAFFFFABRRRQAUUUUAFFFFABRRRQAUUUUAFFFFABRRRQAUUUUAFFFFABRRRQAUUUUAFFFFABRRRQAUUUUAFFFFABRRRQAUUUUAFFFFABRRRQAUUUUAFFFFABRRRQAUUUUAFFFFABRRRQAUUUUAFFFFABRRRQAUUUUAFFFFABRRRQAUUUUAFFFFABRRRQAUUUUAFFFFABRRRQAUUUUAFFFFABRRRQAUUUUAFFFFABRRRQAUUUUAFFFFABRRRQAUUUUAFFFFABRRRQAUUUUAFFFFABRRRQAUUUUAFFFFABRRRQAUUUUAFFFFABRRRQAUUUUAFFFFABRRRQAUUUUAFFFFABRRRQAUUUUAFFFFABRRRQAUUUUAFFFFABRRRQAUUUUAFFFFABRRRQAUUUUAFFFFABRRRQAhz2p0ABnjz1DA5/GmnpTfu5bvTEeg+I764j0KCW2ztYDLCuT0zU76O9hZZ5JNzDK7ia2ND122WySx1IZiVcZq5Hd+G7E+daHfMOcHNSxkXjlVa1tZWAEzfe/KuOrT13Vn1W58wjEY4ArMpjCiiigQUUUUAFFFFADfm3AAhc9Sa95+HYA+FuqBFOfLOTn/ZNeDbc5PUjoK9Z8HeLNG0/wAAXunXdwUvZUIVMH0xVxejJktTyeQnezdgcGt7wJ/yNumlDwZOprCk2tKRn5etanhK8isfENldXZ228cmc1nT0kyqusT0j9oHP2qwVgR8vH5V5NBPNay+ZBM6SDo8bFSPxr0H4v+I9L8Qz2b6VOZdoweCMcV5wpwfl4appqyZcnsSTTS3LtLNK8sucsznJNdH8N+fF2ntj5fNXH51h6b9nN/bi9/49vMXzSP7uea9p0u9+F2m38V1BI6yx/Mpy3Brak+W5nJao574/qR4qjVhjdCpFcH4VnS38Q2k0wBiDAV7T4i1v4b+ILn7Xqs7yzgYXBYcV4z4nOmR65I2gsRZjBQHJ5rOGhpN3PoPx/wCLtO8OpZPf6L/acUyZRwF+Tgdc1xyfFrw/E6lPCyo2eCqoCP0qDwt8RNH1LR10/wAWRDEY2iU87/8ACrEVx8LbFzNbK8lwn3QWYjPpVSI6HDfEfxZH4r1mG4Szlto402BWI9c16L47wfhRpO4FW8tcZ9MV5P4z1a11bWzPZwCCBTgAeld14t8W6Pf/AA9sNMtbrddxIAy7TxxU1NaVi5P34s4DwYd3ifT97qMPwAOtehfHM51DSSRheM/pXmvhm6is9csrm6bbFG+ScV1/xd8Rafr11ZS6XP5pjXDLjGOKVVX5BL4pHYfEVDdfCeymtQTEmzgdPvV5N4Qs5r7XbEWiGZhKpO0dBmvQ/h3490uHQhoniVd1rGu1c9xz/jWgfF/g7wxA0nhSMS3Ep5ZgflH41rP+I2ZRX7uxJ8fI2h0jTkkUhwQteH16f8U/FuneJND08W05a6XaZRg8HvXmH4YrGPxSNZu1gpGxsbPqMUtHGQG6Vo1dE26nR+FrXQ7hJ21qVkbdkYbHat37B4JJz9qcMOg8w/4V5/tBdiQfXrR1YYXBFck8PzM9CljfZJWO6v7Dwgto7wXTGYdBvNcPJt8xtn3c8fSmDGS38XpS1dOjymWLxPtkFIcfNu6E8UtGcdOVNdFuqOTaOgYwVHqOK9B8E+EEMP8Aa2vfu7KMblU8fj9K5jwjJp9vrccmrn90h3DvXq+q+J/BuqWq291cN5a/dRMqD+VeXjas72id+ChFq8zz/wAdeLH1hxZ2eIdPh+VFH8XvxXGjn7pyRXqpT4cgcM6t6ZY1574g+wnVJRpJzbDoavCN21ROJactDNGO/wB6lpq/dTHTvTq9C90cVhBTqSlpIAooopgFFFFABRRRQAUUUUAFFFFABRRRQAUUUUAFFFFABRRRQAUUUUAFFFFABRRRQAUUUUAFFFFABRRRQAUUUUAFFFFABRRRQAUUUUAFFFFABRRRQAUUUUAFFFFABRRRQAUUUUAFFFFABRRRQAUUUUAFFFFABRRRQAUUUUAFFFFABRRRQAUUUUAFFFFABRRRQAUUUUAFFFFABRRRQAUUUUAFFFFABRRRQAUUUUAFFFFABRRRQAUUUUAFFFFABRRRQAUUUUAFFFFABRRRQAUUUUAFFFFABRRRQAUUUUAFFFFABRRRQAUUUUAFFFFABRRRQAUUUUAFFFFABRRRQAUUUUAFFFFABRRRQAUUUUAFFFFABRRRQAUUUUAFFFFABRRRQAUUUUAFFFFABRRRQAUUUUAFFFFABRRRQAUUUUAFFFFABRRRQAUUUUAFFFFABRRRQAUUUUAFFFFABRRRQAUUUUAFFFFABRRRQAUUUUAFFFFABRRRQAUUUUAFFFFABRRRQAUUUUAFFFFABRRRQAUUUUAFFFFACUUGigAoozzRmkwQUtIOee1LTGFFFFAgooooAKKKKAEoopKL2DcKKM0dQSO1Gwt9A9KKCRSkY/Gi9hy3EpaTsfajPGe1BUkLQaB196M0EhRRnjNJkUDsFFFAoWqsLzDFFLSUbgFFFLRe+oW6BSUtJ2pWFuFHWjI7UCnexcnpYKBRS4PPHSi5MbLcSigc9KOvSiwaMKKPrQfei/KCWtwoo7Z7UAZHHSpUIvVjlOUtIhzRSDkZByKXp1quWL2Bya0YClpM0ZotYlO4tLTaXNBTFoo7Z7UmaBC0UmaM0ALRRSZoAWikJooAWiikoAWikzRmh6ALRSZozQMWiiigQUUmaM0ALRSZ5x3oJosAtFJnjPaigBaKO2cUmaAWotFJmjNAC0UmaM0ALRSUUALRSZ4zRkUALRSZpaACiiigAooooAKKKKACiiigAooooAKKKKACiiigAooooAKKKKACiiigAooooAKKKKACiiigAooooAKKKKACiiigAooooAKKKKACiiigAooooAKKKKACiiigAooooAKKKKACiiigAooooAKKKKACiiigAooooAKKKKACiiigAooooAKKKKACiiigAooooAKKKKACiiigAooooAKKKKACiiigAooooAKKKKACiiigAooooAKKKKACiiigAooooAKKKKACiiigAooooAKKKKACiiigAooooAKKKKACiiigAooooAKKKKACiiigAooooAKKKKACiiigAooooAKKKKACiiigAooooAKKKKACiiigAooooAKKKKACiiigAooooAKKKKACiiigAooooAKKKKACiiigAooooAKKKKACiiigAooooAKKKKACiiigAooooAKKKKAEPApFDFwoBLHoBQwyMU5JHSZZEAyvrQDLo0fUWAIs5mU91WlOiaoOlhcbT6pWnH4w1OONUTyMAY5StDRPEerX9+kP7pkHLbU6CmxI5S5sbmzA+0QvGD03DFQ11XjrUBcXEduNp2ckj1rlalFMKKKKYgooooAKSlooAbxk53Ui/NkjhR610Wl+F5tQ0ia+iuIxsGdmDkVzzH5Bu7HBx3oavK3YpwskwU7X6ZBGct0rV8MafFqmsw2k7FUlOCUOKh0bTTqt+trC2wv3bkCum0HSX0Xxra2kkscnIIKirpRvO/ccYNtmT4x0i30XV2trZmZMDmQ5rAwduW3M/YDpXpfi3w3d654kYxr5cIA/esOOlYur+Ab+wtzcCdLkKM7YgRgVPJdm9Wl7yOOPCKTwzcsBW74R0aDXNU+z3DvHERn5Tgn6VjW8fnXKxD7zsFye1d7Z/Dm/wktrqsULMueCwIqqauYqNpmH420C30K9RLSRyMf8tTXNLhWG4jk8kdK3fF2k3el3yQ392blsfeJJ/nWCBwQCAPes46SLqRtI7/SfDnhe5tLdrrVitw/VFlA5qn468M2mhRwtaNI4YdWOe9cpYndqNvkYO8cj6ivRPir/AMedkSTyvT8auXwfMqhH3JHmlGDkYorb8PeHL7W2Jtl2xD/lowyKVjninMwxjccE5pQflGSv4V3dx8NtQhhaSO7t5WxnYqnNcVeW0llcvBPGUkQ85pWL5Ha5FRSUo5o2MwxSHGPvYz2pc1f0TSL7Wr1bXToDNI3YDOKaVxX1RQ4bAC4BIBIr0vXPAmm2Pw8TWoJp2unK5Xd8oycVes/gnqrxpNJqVrF0JiZWyK634k6bLo/wpWylZGkiZAWUYB+alUfupeZS1qnzw+Np38AHtXq/gL4caZ4h8OyahdXsqSAfdR8Acd64rwX4Xm8UaobOC4igO0tulBIyK9DHwk8Q6fZyvb+IoY4VB3LGXAJ+lOStBsLWqI8m1m2S11O4toTuihkKhl9qpHbjALA+9WdQga1vriGd2kmDFSynAJ9aZaWs95dR29pGXnc4VeuaS3RL2ZDzjClC3vS/dXDEEj1r1HS/g3rF7aJNPeWtm7DO2VDn9KwvGvw81LwpAtzPJHc244aRFOAT060pbMqO6OMLcAHHrxXUaf4K1G98P3GtpJEltCpOw5yan8CeBbrxhBNLb3lvBsbGHU+ntXuemeDLiz8C3GiSXcLSSggSqDtXiqkvcJg/fPl05UkAAD09KQ5BwpQg9c167J8EdTVXLavYkAbuEbJFeVXdq9veS2YKu6vsDKPvHOKXYpogHOdu3HqelGSeGCgeor0jQ/hDrGqWcc8k8NluH3JlPP5U/XPhBrGl2j3EFzBfBBllhU8fnQ+pK1PM+O360m4YJA5HY1atbKW41BLN/wB3I7+X838Jru5/hRrMV5bRQSRXEMiBmkRDhM+tFuo+tjzoYHB389h0FL04Xke9eqXXwW1e3snnXULaZwMiJFbdXmd/aS2V3Ja3MbRzRnBBpPT5lL8iuBg/eG0dQaARgsQ3tWz4d8Oaj4jnEGnW7SYOGcDhfrXoS/BHVDEHOqWYGOUKtnPpTasSvePIxyetOJxwVz7itbxNoN34e1N7K+xuA3BgMZFWPCXhXUvEt2YNPibaPvORkChajasYGdv3sBe27rSDBPU/hXrUvwT1VbdpF1KzmZRkRhGzXmut6TeaNfSWmoReVKhxjGKU9B9CiKKRegzS0dCRo+ZselL2y3UUh4QEdc1oaJbW1zqSJeTLFEeNzdKU3yfFqVFKU9ChnPQUA546V0fiXwzNpZ862zNB/fHSuc/2jxmpjVU/hNKlGpTleaFoNFDdK0MRMEcmjg9qD0rb8InT11eI6swW2AJbJxz2qZy5IuSKjFSdmULDS7/UQfsdpLOQcfu1yaivrK5sJzFdQSRNnkSDBr2nwt4rsb3xGunaPZxw24RiX2jLY9xXBfFcL/wlL7SwBU9Tx1rzsPjZzrNSVjvng4+z5kzjCQOvC1oWOj6lfrvs7G4nX/pmuat+EtK/tnW4LYqTGCCxHYV6L4r8WJ4VZNL0SGMSooLOVBrSriZ39nTXvGNGjGMeab0PLr/RtR08b760uIR6OuKoA55yK9p8I64/jWxntNTtVLqP9aEAFeV+J9OOl61c2uMBGwKKGLlOXsam5VXDU4x9rTZlUUUd69BtxfKzii76gaM7RxjJ9aG4610OgeEtQ1hDKgEUHaRxxQo6l0o3bK/hXS4NW1qG1uXkCOpP7o0/xhpUGj6mbe0aQqAR855ruvDPga60bU4rqW7gkAGAEBFcz8ThnxAyggAAk+tOquWzNacLQbOPICsg6jHIFH8WSrY7VveHPDF7rm426NHFjHmsOK3pvhrfQwFkvIpn/uqDQoe9cyUOVnB9Wz0FKKsajYXGn3bW92jK47VXFS37zFKHKxaKKKCQooooAKKKKACiiigAooooAKKKKACiiigAooooAKKKKACiiigAooooAKKKKACiiigAooooAKKKKACiiigAooooAKKKKACiiigAooooAKKKKACiiigAooooAKKKKACiiigAooooAKKKKACiiigAooooAKKKKACiiigAooooAKKKKACiiigAooooAKKKKACiiigAooooAKKKKACiiigAooooAKKKKACiiigAooooAKKKKACiiigAooooAKKKKACiiigAooooAKKKKACiiigAooooAKKKKACiiigAooooAKKKKACiiigAooooAKKKKACiiigAooooAKKKKACiiigAooooAKKKKACiiigAooooAKKKKACiiigAooooAKKKKACiiigAooooAKKKKACiiigAooooAKKKKACiiigAooooAKKKKACiiigAooooAKKKKACkoNBoBiH2rt/DsC6Ro8t/OMPIuVzXNaBYtf6hHGFJUHJ+lbfjW+VTHp0B/dIMnHrTYkcxdTNcXEkrnl2JH0qOm96dUophRRRTEFFFFABSUtFAHonw6cS6FqkOctt4H/ATWb4J8OWuqvdG9VgiEqOe/apPhdLuvrq2x80iNj3+WtjU5m8NafEiMFllnV3Ht3reyvfyOukuZK5leD9NFp4yurcA7YgSufTNSWc/2j4hKx5KPgV1dpaL9vfV4x+7lt8lveuD8Myeb45DdzKTSp6SXkXUiot2N34j+Irm0uzYWvyKRlnFHwyv7i7t7+3upTMpXgk+xrE+J+f+Emfn5doyPwq/8KRj7f22rx/3yamm+/mE5XkcZrKCLVbiNflCNwRWp4Qu7ltfsxJdylC4AXccdaz9cB/ti5VVyS3brV/whaXK+ILMNBKFDg5KEClh7rcws3UTRt/Fj/kNx/7grhD0Nd/8UreabWUMUUjjaBlVJrgnjdSVZGVvQjFRb3i8RdSJ9P8A+P8Ag/3x/MV6J8VDtsrIgZ+T+tcDp1pcm8t3EEu3eOdp9a9C+KMMstlY+VG7nb/Cue9W/g+ZWGTUZXPMreMSzImfnbjFeu3llqVr4Ws7fRLctLIo8wrgHpXk8Ye1vFeSNkcfMAwxXrd5e6nP4Ws7rQZR5igGTgE9PSqgrozwrtJ8xy+iaN4ssdSjmW3nKbsvvkyPyzUvxUtVSa0nZVWaQHeAMdKz18TeLGk8vzpt7HGPJrN8VXOsyvCusvu2/c4AqJaM0u+WVzBHWgfeIoHWjpk96jqcjEA7dzXuHwvji0DwBqOu7F+1ICFcjNeIL1B7ivc/h/GNb+F19p0JBucsQueauekdCUtVc8n1PxLqWpai91Le3CuXBwkhUYz6A17B4zmkuvg1DLK5eTKZY9/mryzS/Bur6hrJtI7d0KPyWXAAzXsPxKsV034V/ZBIJEiKAsO5zUPWC9S0v3lz56guZbaXzYJ3idgRlCR/KvbfghdT3Ph7Uxc3Es7ZOC7E44968StreabCW8EjnrlVLV7f8Ebe4h8Pap50ciZZsBkIJ4om24tCbvNHjniLjXL8E5bzmra+Gl5bWHi2wmviojVjlj0FZ3iHT7tNXv3NrOqeax3lDjGaraPpN7rFytvYR75uvXGKcN0KS0Z7N8TfDXiDV7sahoF5JNaMMrHE5GP1ry7XL7xFY6e2kam0iRo4yko3k4960tO1vxf4anW2tftKqhwF8suPevU9UKeIPhtJfa/aJBchcgsMMTzSqFRPnuC8uLdma3uZYATyqOV/lXvXh+5uW+EF9cSTyGUKdrFjnp618/Dlcnp0A9K9+8EwnVfhTe2lsPMuMFQM98VpL4LGUNKlzw59Uvz96/u8scH983+NVo5XEqOSXIOVbuTVy40jUYZXjktLgkMQcRntWp4Csob3xXZ215hYmb5s+1ZrobPY3o7Xxz4rtIp4Irh41GFMTeWMfTNeh/CfRvFWmXU8HiCCb7DKpOZH3c4wB1p3xV8Qa7oBtrbw7C0cZXmSOPd09qn+Fd94t1G5N1rrE2LIQm5QpJPQ4q57MiG55Jr0Sw/EyaOMBQLsgL7Zr1r4peKLjQPDVjHYrtknQIX/AArynxIv/Fz58t0vD/Ou0+PGf7B0YNzyMH8KzfwxsNfHI5/4Q+ItQk8ZxQT3EswuSQ6sxIHHvWb8X4VHjy9SNdoLAD8hUfwfLf8ACe6cN3ALdvarHxkbb46vZB0V1xj6CtJJPkKjtM9B0uWPwR8LIdRhQfarkKu7H8RyBXjN54j1a6vWuZ72dZs5IWQhT+Ga9pis28Z/Ce1tLORTdQKrFPcZOK8TudA1SC8NvNYzmcccISAaib/eNdCYq0E+o3VtXvNauYpb+QSPGoQHGOB617xpek6lpHw6ji8OW2++nXduGM814Lq2lXmkTxRajGY5HUP9Qa+gNP1TVNS+HkE3huYfb4U2kcHOKqWiuiYtt6nn+l+F/iDZ6rDdLb3RYvubdLlcZ54zXQfHHThJolhqM0QivAoU/iec1yz+N/iBHOYmnuDIDj/j34rP8d6j4rnsbaLxJKfImHmINoGcGolrYtnEgEDk5NFJnPQYFFPoKwUZwcikP3d3apYYXmlWOJSztwAOaNFH3hrRrS51fhfxM0MQs9STz7dvl3H+Gn+K/C8dvF/aGmtmCT5ih9PWrek6FZ6Fbfb9ZIacDKx56VgeI/EVxqz4jbZag8IK8+CfP+7R7lSahQtW1/Mwh0paQUteieEFNanUqRvK4WNGdj2UZNJgjsvhF/yNyf8AXF6b8Vsf8JRz/dP86sfCi1uIfFavLBKiiNlyyEc034p2lxJ4lYxwSuoUjKqSOtePOtFY6/Sx6lOD+rSbRN8HI1fX7gycYjyv51p3Hg+41vxHcXuqN5NkrHk8ZANc18NdSGmeJIln+USEIc8YNdf8VbjWciOzjb7A4zmPkn8qyxqm8RdOyZphnBUNrs0dG8Sada61b6PokKsgyHkGO1cL8VVUeJpZF5LnJrW+GGgTwXrapeIYoIgSrPwTxXK+OdQXUfEt5LG25N/BrTDUlGunF38xV6rnh3HlsYFA5yD1xxRQTxx25r2Em22zyHZNRRb0e3NzfxQtyWIFehePdTl0bT7aw047FZBux16VwWg3AttWtZ3PG/BruPiTp011DbXtrGZF2jcV5rae2htQ6mN8O725fxFGklzJKhBO1mJxUvj+Mz+K4oSMb22n6E1e+HXh24S9XULnMMQ+6COTVPx9N5Hi+Gdv4GyfzpT96KuaxuqbTN3xbenw/wCHbWy035N6jc4rgtI129sr1JluZHAbLBmJFd9400+TXfDtrd6eBIygM6j+7XBaPoV9qN+kAhkVc87lwBQm+YmtF2VjsfiXEt3pWn3xQLJKOSOO1ecCvRPiTcpb6fY2CMC8S4YDtxXnY6VMkubQMTa6sLRRRSOUKKKKACiiigAooooAKKKKACiiigAooooAKKKKACiiigAooooAKKKKACiiigAooooAKKKKACiiigAooooAKKKKACiiigAooooAKKKKACiiigAooooAKKKKACiiigAooooAKKKKACiiigAooooAKKKKACiiigAooooAKKKKACiiigAooooAKKKKACiiigAooooAKKKKACiiigAooooAKKKKACiiigAooooAKKKKACiiigAooooAKKKKACiiigAooooAKKKKACiiigAooooAKKKKACiiigAooooAKKKKACiiigAooooAKKKKACiiigAooooAKKKKACiiigAooooAKKKKACiiigAooooAKKKKACiiigAooooAKKKKACiiigAooooAKKKKACiiigAooooAKKKKACiiigAooooAKKKKACiiigAooooAKKKKACiiigBDTSTkqaVunNKxyQW6UAaui60dLjZY0zIeM1Qu7mS6unnl5LVACRnOPagA4yASaABOV565p1JjnJ60tABRRRQAUUUUAFJS0UAaXh/WJdE1BLqFBIQCNp4HNT+KNfm8Q3Mck0KQrGM4U5rFNIOQD/FVOWhcZtHXWXjq6t9GNh5Cy5TarMcYFYWlas+m6kmoBBI6tkoelZzcndjBpAoXOOc9c0oysOVSTNXxNrMmt3zXUsSxMQOFOaseGfEUmhPOYYVl8wYO447YrEB+bceTSDOCcfNS2FKpJl37ef7Ta+2KXMgkwT6V2i/Eu4CgfYIB3zXn3oNoxR1GDmq5wjUaPQT8TLvdh9NgbPfOa4/VtSfUtSN2yLHk5C9qzgSQckg9sUHnAPIHTNTcqVRzO7tfiLPBDGg063YRjHWp2+Jt0ck6fAxJ4yeleejjkAA0EA9z71V7jjVcdDW8S60+t3onkhWHC4wlT6B4nvdJcCEmSPGNj8CsI8geopOSwJY8dqXPymbnaR37/Eq5ZMixhUr3rktc1e41i8NxcEc9FB6VntlV5A/Gkx1YKFHtRe+pcqzasOpKTORQKLGdha3/AAh4ov8Awzfi4sW+T/lohOA49K5/PylvTtRyV56EZxQnYlnqGqfGLVLy0khtrKC1mYYEyHkVgah4+vLvwkuhz2yOCcmUk5POa4/04/8ArUgyvPU+9S9y09Dq/A/jCbwnLI0dpDdE8ASH2rtf+F4X6neNGtEXptRjzXj/AF7D3oGMk5xjpV7ojqen678XbvWNJubJ9Nt4xOpXK9RXCeHdbutC1NL6zOWB5BrK9s9ecigjJwelRB2LnseuRfGu9SJFfS7WRh/ETzXJ+L/Hup+Jj5Ux8i2/uL0rj/un7oI96XJPBwV96HuJbByq7Q2UFdR4N8Zaj4WlZrY74mGdjHiuXHHGBigDqSSfQVRJ66/xsvZFZF0azPHJJ9a8u/tCQap9sh/dT7y429OuapksMHbjNJjjaOAOhHWp6l9D1bTfjPqUFlHDcWME7oMbnPNVf+Fv6wNUW58iPyAhH2bOFU+teaN82GIG7vR1bc3XFW3oTHRmvqGtyXfiT+1zEvmNJ5pQngH0rX8beOLjxTa2lvc26W4g6GM5zxXI9VOevajnKkDJHrUobd3c1vCmuSeHtZt9ShjWaSEnAY4zUni7X5vEWsy6lLElu8vVYzmsXA3ZPfrQoxjPagG7nQeFfFmpeG5t9hKSjEFkJ4Nd43xrvhydKtCSMFwec15GCeOBuxSAbRgA8+tKSugRseJtfu/EGoyXt7hiRhVHYVd8IeL9R8LylrRyYuvlk8GubI78jihuQCep71SelgZ64fjZelNp0i1XcPvnrXB+LvFV94nukkuyqpHwqqegNc+cn73zHtmjaDjjbxzikCYv0oNAGB60UBcQcgEdB2q7pOoSabfC5gUMfQ1S6nPSjA9SD7VEo84KThK6NHWdWudUn8y5c4/uis4469vSgDBz9760nQ59aIx5DStWlUSHUtJS1ZkFaPh7Vm0XVYr1IUmZARsbpzWdSH6E/SplHmVhp2dz0tfixdB8/wBnW+ccYNNPxWumRg+mQbmPB6mvNiRs/gB9utIMgZBOemTXI8BC/OdP1yTjyFi7uWub6a6P7sySF+OxNdjovxF1GwtFguLeK5ZeB5h7dq4YgEAHpQck/Nz9a2nhY10r9DOOIlTdkdn4g+IGoatbGBYUt0P/ADzNcaSScsxLHqTSHpxScKMk04UI0tiZ4ictxaDwM9jxR/FgHPuKVeSQegrYz31EUFSMHBHIrr9E8d3um2ywSQJcKOAJDxXIdsk49KOoPmZAXpTUgpzkmdbeeOL66vUlIWNEOfKU8GsbxBq763eNPIgjJB4Hasv72chRjuKATjjv1pN3LlVk2dF4e8V32jrtT95EExtNbFz8R7yWAqtqkbEYDCuFxjG0n3o+bd94ke9VfQr2srE99dz31wZ7hyznsahFN2/Nup1QZuTluLRRRTEFFFFABRRRQAUUUUAFFFFABRRRQAUUUUAFFFFABRRRQAUUUUAFFFFABRRRQAUUUUAFFFFABRRRQAUUUUAFFFFABRRRQAUUUUAFFFFABRRRQAUUUUAFFFFABRRRQAUUUUAFFFFABRRRQAUUUUAFFFFABRRRQAUUUUAFFFFABRRRQAUUUUAFFFFABRRRQAUUUUAFFFFABRRRQAUUUUAFFFFABRRRQAUUUUAFFFFABRRRQAUUUUAFFFFABRRRQAUUUUAFFFFABRRRQAUUUUAFFFFABRRRQAUUUUAFFFFABRRRQAUUUUAFFFFABRRRQAUUUUAFFFFABRRRQAUUUUAFFFFABRRRQAUUUUAFFFFABRRRQAUUUUAFFFFABRRRQAUUUUAFFFFABRRRQAUUUUAFFFFABRRRQAUUUUAFFFFABRRRQAUUUUAFFFFABRRRQAhpvXk9KcaThhheSTQAZBPHNH4kV1ekeHLcWS3WqSeXCRnGcH86ux6V4au2EVlclpTx989aAOHG3tuz706tLX9LbS7wxlgyEZBxWbQMKKKKBBRRRQAUUUUADjCKfWm9KklOYoximMM8Z6UDuJRSijFAXCijFGKAuJRS0lFguFFLRimJNoSloxQalhe4lOjjaWRUjUszHAA603+XrVrTpmtryKdULhGyRjrVxjzbiik2S3ej31nGJLm1mjjPQyDiqHfgMB79K7XxR4zOraalsLJoNoxubBzXE4GNozk1MlZ2NJqK2FYgVestI1C/TNpayyqD1UVDp8Imv7eNh8rMBn8a9R8Uav8A8InYW1rpsCidlyzkAjOa0SstTSlByR5zd6Fq1pC81zp88cQ7lcVmAYHf15rpNT8a6xqVo1vcvC0RHO2MA1zYx2NZvfQiaXQWiignkDPWkZhVrTdPvNRm8uwt2uG7hBk1U6D5uK978FJa+E/h+daS3WW4lTcCQDgke9WtE7itdnlI8C+J/LZxod7j1Cf/AF65yaJ4ZGjlUq6nDKeoNehT/GHxTMZFjltFjbO1fIGcVwM80l5cSTPy7sWYgdz1rOOr0Lm7LUhJpaAOQGUhj2xSlHGdyMF9SKoT2EPv0q5pGk3+rSGLSrOe8dTkrEMkVSHJx74rtvhz4v8A+ESvpZbixknRl2gINpp3uTtuclqFhd6ddPbajE8Uy87G4I+tV66Tx94j/wCEo1+S+Ft9mj2gBCBn8cVzS5bgDLelTHUuWgtFA5J25bHBwO9KY5F+/Gy/UUyWJRSDrhuDSlXUAujKp6EjrQD03CilKMByrA+mDSEYYA0lqFrbiZAI4OfWpLaCa7uFgt1M0sjYVE6mosFh8oJb0FdB4IjdfFukGSNlUTJk46jNaJdWK9ihq2jajpEiRalaS2zsMhZBgketZ4ABPtXrf7QWf7ZtscAoMfSvI8cn1NYp3dy3pbzFBJ606m5orTfYl6DqQ0m4DqcUMcY96m4XCilxjrwKT6cj1p7bDUrhRRmile4R1FpaSgnApiFpDntn8KTPGa0dD0m41q/jtLUfvH6e1TKSirvYqKcnZGd0+9GR7mjjtmvXND+GumQ3Qt9YuzPMRnbGxXFcN460q10bW5LWyDCIZxubPeuSljITnyXOmWEnCPO0c5RRRXbFOKZyKSlqFAOGx8uSOM0Uqq7kqiluM4A5oUbhKXcQEqNpALdytBwQPmGM4r2X4Q6TZz+CtcnubVXnUMsZkXJ+715ryTUIpBeyqYzw5GAuKG+V8rLS0uiusbTOI44JHc8Lt71o6poOq6XDHLqWn3EUUoypYYzUGkLjU4B824OO+K9g+OwJ0LQU5yydF78Cm1ZXJhrKx4kw3L0Kc96X9acIyu4sr7Rxkg0zO3Af5cjNSD3FooGSyqASzdAPSnmN1BZkcKOCcU2mtxJ3G0Ckz93PANLghGYggD2pIBaKXY+AdjYPfBppDBipBDAZxRfWw7C0Un8II69x6UUxC0UUUAFFFFABRRRQAUUUUAFFFFABRRRQAUUUUAFFFFABRRRQAUUUUAFFFFABRRRQAUUUUAFFFFABRRRQAUUUUAFFFFABRRRQAUUUUAFFFFABRRRQAUUUUAFFFFABRRRQAUUUUAFFFFABRRRQAUUUUAFFFFABRRRQAUUUUAFFFFABRRRQAUUUUAFFFFABRRRQAUUUUAFFFFABRRRQAUUUUAFFFFABRRRQAUUUUAFFFFABRRRQAUUUUAFFFFABRRRQAUUUUAFFFFABRRRQAUUUUAFFFFABRRRQAUUUUAFFFFABRRRQAUUUUAFFFFABRRRQAUUUUAFFFFABRRRQAUUUUAFFFFABRRRQAUUUUAFFFFABRRRQAUUUUAFFFFABRRRQAUUUUAFFFFABRRRQAUUUUAFFFFABRRRQAUUUUAFFFFABRRRQAUUUUANY4GaVRskAXoCCTQRmiIF5FRT8zHFNAd7AIvEWhJbRTbJ0HTHWs/TPDFza3YmvH8uGI5yO9aGy38OaMkyR7rhhjP1qno3imaSdYb1VdJDjOelKQIzPFupx396FhbKRjb0rCrpPGelx2lwlxB9yWubpR2GwooopiCiiigAooooAdJ9yOmdSae5zHGMVHj5jzQAopaQdKWgAooooAKKKKACiiigApDz0OKWmsAetA72AkcLjkV2+geM4NPsUtJdNjmOfvHFcOScZY8CnoMyKR7Grpl06juepfEMwzeHbe5ihSFpBnAUV5dbhQ6eaMLn5jntXp3jrJ8IaaR02jP5V5dxu4z9amekjaq20el6Sngova+Wz/aMjHLdc10fjAeHTPD/bpYPs+TBPTPtXkGg5/tW15GN44/EV2vxdyLq09dmc/jWkn7peHekjJ8UL4WFgv9hFjNv5yT0/GuSFIxIXjvQvTisUckhaB0bHWlpvVh7U0Sek+CF+Hx0Zf+ElZxe8dGYfyr2G6XwuPBMInLf2NtGzBP3cV8q8nIY5Fe+agf8AizVmD08lT+hp1Xamxr4kYWqJ8LRYS/Y2f7Rj5PmbrXN/CmOCTxzakossJdgAw4x24rhBkcjg9q7r4NHPja0GOcnr9KdFfvLeRNXY9S8UweG/COsT6zqCRS3kv+rhA4HGOnSm6PqWj/EfQr6I6ZHbyQKcbcA5wSOgrzX43O//AAnFyGYkrjaM/d4rk9E8QajoReTTbloHlGGIGc8YqI6ot6WHRE+H/EeTEJUtJwTG38WO1e4eCviHZ+I9UFkPD9vBlc7vlb+lfP15NLeXT3Fy2+eTl3PG4+td18FAP+EvUgYYLge/NVFaETepF8ZY4k8b3CIFWNY1OFXaM1yWjWEuq6hDaqMO7DAHYV13xp58cT55bYMmq/wj8v8A4TmxEuD97+VFBXlZjqbHpV5e+H/hrp8cS2cd7fygFkbHP50aPrfh/wCIsE+nXenx2l2yFkVCOuPvZA/StDx3f+BItX/4qO1kkuum4KaydI8TfDTRrwXWn28kEyjhghPFKOsmh/ZR5W2lHSPGkenSHcsdxsBI+8Aa958QWPh7TrG01nWIIzJCg8sAbQSB6d68c8R6zaa74+tr2wLNC8owxXHeuy+O7E6DovJCgj8eKlP3V6jtebRueFfGWjeMb+XSptJgtvMBVG+Ul/04rx7x5oiaN4tutOtYyQrYAz61d+EKg+O7AbRkk459q0vioM/EuRGxxNHnn6VpJcvJ5ih73Nc6jwtoGi+DPC0Ov6+BLdSAbEI+7ntjv0q74f8Aipp2o6xb2aaJDAskgRJMKSc9+lU/jiJV0LTBAQLXYMAdBzXmPgGJ5vF+liJWdkmVmAHAGaKcuapKLEleKZ3n7QWTrVsSMZjHFeR9xXrn7QY26xbnvsHHpXkf8XNYR0k0aVdogKKQdKWtHFpaEJXlqdboXhBNUsVnfUY4twztI6Vo/wDCAQkBv7XiGPaqWgeGbW+sUmk1UW7OMld1aX/CGWHH/E8/DeP8a8ypVnGWjPew+HhKOtJP5mVrvhBNMsGuhfxzMP4RVbwz4ZXWbczPepAR/Cau6/4atNO0554dU89x/AGzmqnhbw/bapAz3GoC2cfw7sVaqytfn/AwnRhGuqfIvvNf/hAYQedXi/Kq9/4Ijt7WaYapE/loW2gdcdquf8IZY7v+Q5/49/8AXqDUfCVlb2k0qawJGRCwXd1x261lCtLm+L8DrnhKcL2pL7zhR0oPvQOgoNeqj517iHGMCrWm39xptwJ7Z9kgBAP1qrjmg8HOaJRUlZgnZ3O8+GF7cX/jMSXU7yExOcEmq/xX58TE9PlP86PhGf8Airl6/wCrbtR8Vx/xVLZwDtPf3ryJRjDGpLax6kKjnQaOLoo/nmjg9K9iolpZnl8zirWCun8CeJ4fC+otdT2K3gKldrY7/WuYpR15+7j9apfEiJH1H4I8YQ6/4ev7+HTI7aODO6NSOcDPauFuvjDYxTTRHw3C2GK7vl59+lT/AAXAPw/18kdSwH/fFeL6iT9vnHTa5zUV1+8RrHSJr3+pjWfEqXUdstujODtBHrX0H4og0WLR7HUddIKWsQZEJ6nFfM+khTqsBIySwxXsfx1Y/wDCP6IATyn9BWk/4a9SKf8AEfobHhbxtofi6/8A7IbSYYEdGCS4HzAfhXkPxC0Q6J4pubaBf3O4sg/pVn4SDPjW0HXAOOa2vi+V/wCE9gaXlA4yPxrOWjQRd7nQeD9E0fwj4VXxBrqrJdXI3xIw6ZGQKs6b8S9B1y8Gn6jokUMEnyrINvPvwK6fxFceGYfB+lSeJIWlsNqhMA9ce1cjDrPwrilEkVnJuXkfI3FVfmuhpWSZxvxU8Kp4d1ZJrU/6JcgNGP1r07wRo2mal8MbRtUjiWJfneTAB4OetcJ8WvFWjeIbewj0WRmWLIAZcYGK6vTWK/BJO2B1B9zSj/AcupTj+95RLb4jeHLbVY9Is9LimsCwj88gfT0zXN/Gvw7Z6fPbapYKI4pwMKPc15tprt/a1sAfl81cD8a9f+NfPhHRjIcsNn9amt7sOZCj/E5TxRSS5JGM06kByx+lLVbk9WLRRRQAUUUUAFFFFABRRRQAUUUUAFFFFABRRRQAUUUUAFFFFABRRRQAUUUUAFFFFABRRRQAUUUUAFFFFABRRRQAUUUUAFFFFABRRRQAUUUUAFFFFABRRRQAUUUUAFFFFABRRRQAUUUUAFFFFABRRRQAUUUUAFFFFABRRRQAUUUUAFFFFABRRRQAUUUUAFFFFABRRRQAUUUUAFFFFABRRRQAUUUUAFFFFABRRRQAUUUUAFFFFABRRRQAUUUUAFFFFABRRRQAUUUUAFFFFABRRRQAUUUUAFFFFABRRRQAUUUUAFFFFABRRRQAUUUUAFFFFABRRRQAUUUUAFFFFABRRRQAUUUUAFFFFABRRRQAUUUUAFFFFABRRRQAUUUUAFFFFABRRRQAUUUUAFFFFABRRRQAUUUUAFFFFABRRRQAUUUUAFFFFABRRRQAjZxxRG/lSpIv3lOaDzR3zQgO9tdQsNa01be+kEbAfeJqK20jQ9PmFwbwSlTkLkVw9BFD1BG94q1hdQuFihGIo+lYVIBS0kNhRRRTEFFFFABRRRQA6T7kdM6k09z8kYLKB+tR/wARxzQAopaQdKWgAooooAKKKKACiiigApD164paaRmgadhNoDhQMgnk132keFtDubOOe51cRTYB2BxXBc7SM8Ueh74qoOxSmk72PatXttF1LSoLGTU4QkYxu3jNea+L9IsNK8lNNvftIbO7BBxWByRg80c96merujWpWUo2SLujlE1S2dwiqrjJY47iuv8AileW11PaG2mjlHlnOxs4Oa4LHBzznnmlPSqb0sZ0p8qdxB0ANAoIyc0tSZK4UnenUnegYdzXtt9q1g3wktbUXts1wIgDHvG4HB4xXiXOaQrkY7ZzRPWNg6oQdFz8pHpXa/Ca6gtfGFnPdzRxRKTmRzgDiuMPLA+nagcDHanTlyu7FNXR2/xfu7e88Z3U9nNHNE2MSRtkdK4cDgDqKMdfQ9qCM4xxj0qY6XLk72NTwxY2up6rFb6hP5ELMFZycYHrXt/hPwr4T8N6mL238RRSOvRWkXFfPhGfb6UpHT2qouxnJXPf/GHhTwn4h1STUbjxFFFIy42pIuDivGUm/sDxIJNOmDrA/D5+8Kxhke/tSdgD2qY3TuVJpqx75Le+EvH+nI2o3CWF6gw0mQCT+NZ8fgzwPoym6l1sX+1STGXU14oevHH0pOnA49cd6q9te4PVKxvi5s/+EvSWxxFYeflAeMLmu/8AjXqdlf6LpEdpeQyshBZY3yRxXkBHXHGfSnHnHqO9TYHe90dd8KriG08bWM1xLDDEpOWkbHapviteQXHji7uLGVJULqwkU5XjHeuKAHHAJHegjK4zxVN3tfoNu17dT3jQdb0Dxn4Qi0vW7iO2lgAG+QgZIycjNO0648JeBZrdNOnS9up3C+cSDgH1NeCkZGMcDp7UpyQck9MfShaNtbsl7WR6d8cNTttU1K3ktZ45v3YyY2yAfSvLzyM+lKMjHJOKMdfeogras0m7qPkBooxS1akyZO+wgOAcfjzSsSCpBOPrSY4I9aMcVHIr3ZSlJLRilj74PpSDjkZwfWjpj2o54zmq91aWFq3zXAs2ep/Ol3E9T+tIKMVKhFa2BVG3qKKWkozVCFrU8M2FrqWsRW1/cC3gYEmQnGKyqDUTi5RaTsOL5Wm0e0eF9B8O6FqQu4dbWRgpGHcYpvibw/4d13UTfTa1Cjj+FZBXjJJPc0mMg8Yrzv7Pnz87ndnf9cioOPIT6jElvqFxFC3mRLKVVhzkVBgr8vUdaXnj2GKSvShGz1ZwSal0Cjrx265NFBGevT0qvtXJlax6h8HPFtnpBudM1Xi2ucnefcY5ro9T8B+DL+6kuU8SJF5rFtgkXA9q8M75oHVj69vSir70rocdFqdBqVlaaV4mEVlcpPbRsMSk+9egfGfUrG+0PRks72Cdo0+YI4JHArx/HGO1BAPUdOlEruCRULKTZ1fwwuILXxfaz3MggjAILOcCtH4wXlveeKZJ7K4SWNQQHRsjPtXBjPck/Wg89Tx6USV7GcVZs9n8GeKtG1/w9DoXijYrxIPLdvugAYDZ9anHw/8ABiyNOviKNl6mMyLyPSvESMketGOQRxih+Q15nXfEM6EupRR+H41McQwz+prvbHVbD/hTa2bXlutz/wA8Q4z19K8U7YHAoxwABjHeltHlKUteYtaeQNTtizBFEgyOwGa9V+L2o2V54V0qKyureWSPZkK+fWvIDycnrR3GeQOgPSqkuZW6E9eYOoBLc9MClpAOvHU5p1SAUUUUwCikNJQHkOoptGaAi+a9ug6ikooGLRSUUCFopKKAFopKKVwFopM0Uxi0UlGaAFooooEFFFJQAtFJRQAtFJRQAtFJRQAtFJmgUALRSUGgBaKTNFAC0UUUAFFIaKAFopKWgAopDRQAtFFJSuAtFJRTAWikooAWikooAWikpaACikooAWiiigAooooAKKKQ0ALRSUUALRRTaAHUU2loAWim0ULUdh1FJmkzQIdRTaWhajsLRTaXNAWFopKSmlcQ6im0tTcHoLRSZopgLRSUUBcWikopXGLRSUUxC0UmaWgAooooAKKSigBaKSigBaKTNGaBi0UlFAri0UlLQAUUUlAC0U3NLSuD0FopM0UwQtFJRQAtFIaM0BcWiiigAooooAKKKKACiiigAooooAKKKKACiiigAooooAKKKKACiiigAooooAKKKKACiiigAooooAKKKKACiiigAooooAKKKKACiiigAooooAKKKKACiiigAooooAKKKKACiiigAooooAKKKKACkoJx1pOelAC0tIFJ+6ST6AUrRuBnYwx6igBKWmjnkNx6U6gAooooAKKKKACiiigB8vMUQERPHWowQCexp8gASM85+tRgEsaAFFLSCloAKKKKACiiigAooooAKQ0tNbpQA7HFN71JEAcg/wB3NR96AHUUUUAFFFFABRRRQAUUUUAFFFJSYBRRSAMAMDefSnYBaK1rjw5qlvpKanLbMtkesmfyrIyMnNIdri0U3kKNx5rrvAXgyfxbdSRLcLaKq5Dsu7P5VVhHJ0Vu+M/DcvhbV20+4mWYgZ8xRgflWATtUEjI9akbVh1FI37sLvHLdKD3z8pB/OmIWikYqMZbBPI4peeu35aYBRSH1xhfWj7oz94etIBaWmrzzTqACiiigAooooAKKKQ0ABopAQ3A6+lB3dSuBQ1qNOyCijjGc9e3pXdD4fSDwbHr7agnlum7y/LOe/GfwoloKOpwvaijnadw25GVNd94H+G9x4q0pryO+S3CkjBQtnFGw1qcDSmrms2D6VqM1pOcvGxAx/FVIHJIPH9KAegtFICCpYcigAEfM21j0GKA3FoprE5Cjj3rYs/DuqXumS39vasbWPrJkYp20uJbmRS0jBlba42470Dkdef51NwaFopCRjBbmjJP8P1NMaFooBBO5fnXuOlIOchm2N24piFpKG6lT8uO/rSZ569elIY6ikJAGCfmpM4Xk4NFhDqKQkcDp70DGchsrS3AWikzzgHNJuwcUwHUtNGR1p1ABRRRQAhpO9L17ZOK3ovDcn9hvqM06oB91CvWpc7OxrSpuV32MCig9cY/GinczirJsKWkpaNxdAopMEsoXk5+6B1rtr74d6lZeERr93IIY25WBhyVxkHND0GtTiqKQZ+YAZcfw1c0jTbvVryK1tIi00h6DtTjruK5Uor1y1+C1xJbq13rVvaykf6t05/nXGePvCP/AAiV5Db/AG+O8Mib9yLj8KJ6bDOVpa1PDGjTa9qsFlGwjEjAGQ84/Cuh+IHgG48HRQSy3iXaTHA2ptxxSewHFGkpMls7RQclmVRk00A6ikPK8duppMgjIOQOpoEPpKTnGQNw9aUADvmgAopoYYB3Z9RiprWCa7niitoy0khCqmepNCB6EdFaWtaFqOhzrFqlu0Luu5QSORWZzxng0DSuLmik6kilHp3oDYKSlppOAS3CgdfehK5LY6iuk8G+EL/xRdBbIYgUZkkxworvR8EpNpL+ILVCBkqU/wDr0noNI8eoq7rmnnStSltTMsuw4DgcGqAIJyDxTGOFFNPDdc56LThnOSmF6E56UhBRXT+AvCM3i69mtorpYNgzvK57+lReOPC03hTVPsk86zJgHzAMZ49KHoNK5ztFJuGQTwKTIbo2APbrTsIdRSehX5vb0pMgYLNtycYoQDqKafQN9aO+S2FosA6ikGT90ZHrSbh2NCWoXHUVc0WxbUtStrNW2mdwgkP8P4V0Xj3wTJ4RazEl8l0ZuSFQrjjNKW4HI0Ugz3XH9adTuMKKaSfTj1pRnuMD1oEFFNyMjad3tSnO/G3igB1JQAX4QZ96Rs/THWiwC5opoII3LyKX6ck9BQhtWFoppPOCdrelHT5s5X1oYJXHUU3Iz8x2+1OAbOSMg+9AgopFHJDHae1AJx8y7QO/rQCCikwdoO6uk8DeF5PFerCyinW3O0tuZc9KdtA6nOmkrV8UaO+h6vPYmQSmJ9pIGKyifmIqYjnoFFFHfk4qkrglpcKKX5uy7h9aB1+Ybfak2kJJvUSlpBzx3paW4rsDSUtIeOp4Pf0qr2GLRSYxwWx6H1pVB3hSv3u/pShEJCUV3Ou/D+TSfC1trD36SCVQ3lhCO2etcMvPK/N7Ubsq1kLRSe5/Kgcj5TuPftRcmwtFB7EDPqKRfvHv7UWC4tFNzyex/u+tOw3Zc+2aSYWEpaQ8HBOD6UtNgLSUhx3OKOnU4osAtFNBBOc/L2pQGKkBcsPegYtFHbJGPb1pPc8e1DEhaKOfTINJj5cZ+f0oGLRSEMei4x15oJHY8+lArC0U3cM4HLn+H0pRzx3HWhghaKQfeA6j1oIYMAR/9ehag9Apafbxme5iiPyCRgu89q7Pxj4Cl8NaLb373yXCzY+UIVxmhqwtziaStnwjoUniXWY9PhmWB2ONzDP41J4x8MX/AIW1N7PUEII+62OGHrSTKSMOimsTkjuKdnLNjpRuJ6BSUtJRcaQ6iiimIKKKKACiiigAooooAKKKKACiiigAooooAKKKKACiiigAooooAKKKKACiiigAooooAKKKKACiiigAooooAKKKKACiiigAooooAKKKKACiiigAooooAKKKKACiiigAooooAKKKKACiiigBrYxzT4kaWRAONxxTTT4H8uaJz/CwP60AdvGlj4e09J54RJcsOFNJY+IrTVJPs15ZpGr8KRVjVbFfEVhby2cieci4wTWVp3hO7gu45Lp449rZBVs0PQZleJdMGnX5EQxC3K1k12Xj9FAtyCGOACe9cbSTuIKKKKYBRRRQAUUUUAOfGyOmEcmnyY8uPjmoxkk0AKKWkFLQAUUUUAFFFFABRRRQAUhpaQ0APh+8f92mVJBjJ/3TUXegB1FFFABRRRQAUUUUAFFFFABSUtIaQBXVeGfAeu67bxXmmWyyW+7li4HQ1ynSug0LxXrekwpbaZqEkEG77q4x1rRO6B6HufivwpqV98PE0q0hVr4bcx5AHB55ryO6+Fvim0tpJ5bRFgRSxO8dAK9W8Ya/qVl8Mob62vHS7YLmQDnrXjVx4+8TXEDxTarM0bgqVwOQayb1Kizn7C0nvL2G1tlzcSOECnuTXpPh7wN4+0GaWbSIkgkcHPzg/wA680trma2uY7iByk0bBlYdiK9Z+FXi/XdW8SJbahqMk8OPusBWrIvZnAeNo9Yj1xx4hI+3FRuwQeKp+HtEv9evhbaageYgnBOBgCuo+NIx45uCOpjUVe+BOD4sVf4cHj8KmCugqO1jF0/4c+I7trj7LYgmP/WFnA7dqr6T4E8QarcTw2dqWkt22SK3y89a9kvfFMn/AAsq20ezPlwRqwlQDhjxg0zx14rk0jxnp+maafKe5nUzMo+98wBz+FQ3t5uxVrXv2ueC6zpN7o15Ja6hD5UqZ4znir3h3wlq/iA50y2Zl9W4Fej/ABj01L7x5pdso2+eFVmHqTW/4yvtT8LaHb6d4bsZvNKAPLFGSR71T92N2PlvKx5Xq/w68SaVbm4vLTEK9drZzXItuUt8u3HBU17R8P8AxL4rm1NLLXLW6uLSfhjLGQFrjPi7o0WkeKpmt1CRSHKgdqmo+W3mEI81/I4kc8/pTqbkEnBJ9SRRVbaEc1xaKAVzznjrXa6XqHhWOyjW9tGafudvWsalVw6HTh6Mazs5JHFUV6B/afg0dbE/981j+JLzw9NaCPSrdo5+u7bWcMS5u3KzprYCNNXVRM5eg0gPHIwaWuk896Ow0/8APQjnpUkEDT3CxQo80rdFUU0cfQV7F8GNJtrbTrzXLuNXKLlC3brVfZ5ib+9ynJ2Xww8UXaCWGyXBH8TgV6nqmm3ej/CEWN/GIriJQCAc9jXmWu/E3X7q/kazu2tIFb5I06V6Xqeo3GqfCGK6vXL3MkYLE9+DzUVH7nOaQVp8h4T4f0O98QXottOjEsoXOwnHFek6F4U+Ivh+0kt9KjSKE5Zl3qa8x0jVb3SLn7Rp07QTbdu5fSvb/gx4j1bXZb5NVvHuVSLKhu1aJc6bRCfLueHaqLgajcG+bfchj5h9DVUZJAyck/KQM5rT8Tf8h2/HYyt/OrvgIWx8UWQvQpgDchulRT95XKn1Re0j4e+ItXgW7tLL9y3QM22qfiPwZrnh+MSapa7EJ+8pzivYfijdeKbJrebw3JIun7fl8gZJ59K8x1fxvrk2lyadravI7fNulGGH4UT0FDYyPDPhPV/EbyLo8ayhVyckDFe5+HPCmp2Hw1uNKmiVL1y2BkHPNeB6H4i1TQg50u8e2Mg52jqK918Ma/qV18L7jUp7t3vFLbZT1q3/AA2xRV52PMZvhR4rDySNZIQMnPmDpXE39rNZXUlvMuJkbayDnmumm+IfijzJFOrzkMSMYFc0buZ78XkzGS43BiT3rKHvFVHynRaJ4B8RaxaiewssxnuzY/nUmrfDrxHpNv8AaL2yzCPvbWz/ACrYfxx4rvbOKHR7e4hhiXaTbpuBPvXdfCnWvEWpXVzY+JIJ3gMRYSTJj/gNaNCizwFIWllMSqQSdoX3rpLvwNr1rPaQy2hzcjMe05/P0qx4os47HxxLHEAFaXIA7c17b468Ux+F/DVlOkKyXckQERx7URknT5x8j5+U8ZuPhf4ogtHlmslIQbiQ44FcbOjQylJ1bfnuMEV678L/AB5q2peJ0s9VuXmtZgThh909hXM/GG0jtPGF0Y1C+aS7AetS9LPuJe8ml0OP06wutQuRBaQNLIehHauvi+FniqSDelku3GeXGa7zwVaWvg7wCdckiWW7l/eR7x0BGcVwV78TvEk9+biC+eKMnIiGMAVTfvcgRV48xymsaZdaTe/Zr2MxzDrml0jSL3Wrr7Pp8LSOPSr3ijxDc+I7tJbpFD4AJXqTXr3hO1PhT4dpqtnZtPqUoxhVyeuKSVk2SpXt5nn0vwt8Vrbee1kpRRnhxmuOvrWewuTb3kRSQetekab4u8dQ6ms1xBfSWzuD5RiOMVq/GfTI7jQrHW1gENxLtEikYwTkmpk7R5y1G8uU8aHU89KWmdCM9+4p1UtVcT0v5C0UmKM7QG6jpijpcSd1dlrTbQ31/Bbrn53A4rrfHt2LS1tdMhHMSgNg9ccVH8PrIJLcajN/q4UIGfXrXO69eNf6jcT7s/McH2ricnOrZHq0kqOGlKXUzQApwDk9SaXtRwANvA9Peiuz4dGeTeySClpB1x2o5AI9O9VFXY5uyueofA/wkmtawdTvgBYWJ8xmPQkHpVX4xeNZPEGuS2Vq3l6Za/IkS9GI4zXo/h2JPDnwOvpYgFkvI2bcOuStfObu0pLE8nnNZyd5OPYqKtFS7iwwyTEJAryOegVSSK9c+BWkzJrF1dSwSRGNflLp14964Dwd4jk8N6n9sigjnIH3X717p8NfH9x4re482wgtvJH8J61pJWVjO92eR/EKfWtR8VXbbLsxxsVQKrAEfhXHXS3CSkXYlSY8KJMkgevNe1eIvi9d6brN1ZjSrSVIXwGY8mvLfF/iKfxLqZv5LeO3bG0qncVEX3NEdF4f+H/i+OW01TTIFVyqvHJvHI7HFQfEaHxbElsfFjKcMfLII9Pam+FPG3iEalp9kupSi1DKgjwMBfSuy/aAO6y0V2OWPOffbTm7JeYovmbXY8VOGHzn5a3j4R1f+wY9V+y7rNiNrBufyrB6lgetfSHgOe0tPhpb3F8gkijXftPqKprli5CjLmkonkOk/DrxHqdmLu0st8TDPzttP5Vz2saRe6Rdm3vYTFKOxrudT+KWrTa7C9lMbawjcYjUfeGe4rZ+M15p2r+HNK1KGa3+1yFfMVHBYDHcVKdxnlekaVd6xdC30+FpZjx7V1j/AAr8URQ7zZrgjOd44rufgmsf/CMXzWIiOrLuKAnnGeK5jV/EfjzSdTla7lujEGJARMpjPc07X0Fe2pwF9p15Y372NzHsuAQADXf+C/hz4hGq6dqEtkn2dXVy3mDpn0rjPEviGfXdTF7MmyYdx611Hgjxn4hl1rT7OTUpTbl1TyzjpmnR992HVXKuY7z4weCdb8R6tbzaVao6RwhG+cDnNeVeIvAut+HrJbrVLdY4mO1SGB5r0r40eKtY0TXLS30u+ktomhBYKOpz1ryrV/Fut6xb+RqOoSXEIYkBgOtRfmbt0LtypX6mDnhSPWl/iNAAHFKaaRDYVLFaXE6F4baWZR12KTzUNdv4F+INx4RsJraCwhuQ7+YWk7e1aRIlornpHgyC70f4T6jJaxPFdsHkC7PmXOOf/rV4reJrEszzSR3zOxJJw4FfR1l4xluPAN1rxtYlZFJEQ6ZGK83uPjTfSwtE2j2aBhjcDzWcvisaQ1jzHmelafe6tqKWtom+ZzgBm5/WtOXwbrSamdPa0MlwDg4PA/Gr3w5mab4hWdyUVS7sSFOcZr1z4n+MYPCihbGBW1KcffI6e9EvdjcmOsrHkeq/DjxHpdkbi7tAIVGcqwJFctaWk15eRWkIPnO21VPc17J8LPHVxql/daf4ivUeGRS4eUgAe1eY+JXWz8VXk+nShQlyzRMhyBzwRS2GveOy8O+BPHehz/atHgSCSRQM7wc/nXKeO49dTXWTxMwa/AHyggjGPaux+GXjLX9S8V2NpeajLLbM4UoQMEVnfHAkeN5wOCET+VVVVreY6Ot/I87z3HKj9DXQ+HvB2t+IVMmm2pkUfeLfKDVPwppv9q67a2q/ddwWHqM17T8QdV1Xw9a2uj+FrGdVCAmWGMnBqmuVEL3meWa18PfEOj2xub6y2wY42NuI/KuWRG89UX5XY7QuOpr3H4c+I/EV5qRsPEdpdXFvKNjPLEQACa8/8eaQmjeN3gtwNjP5oHoCTUrWSj3KfwuRTu/A+vWUtqk1p811ygU7gwIzye1aM3ww8VW1obh7JFixnhwT+VeyeNvE8PhnwpYXKReZeSQqI8jgEKK4D4bfEDWr/wAXJBqM5nt5sjYegqkrtoUtIqR5NcRSQzPHOpWRDggjFXdH0fUNXuBDZQNI54GBx+ddf8YNOii8YMsPymY9APWu7a6i+H3w9tJ7WFBfXKgZ75I61mp2XMPlu7HKeGfhj4osdcsby5skEMcgcsJB0rV/aByDpqk5I4I/4DXP+FfH3iO78T2MVxqEjQSzgNFxjFb/AO0Gxd9Odh74/wCA0VHy2fcKa5r+R42o2gL6UtNHPJPWnVVhXvqHfOfwqewsZ7+5WGzjaWVjgADpVckqcnhema9e+Akdp9pu+YxeYJjDfXimK5zifCrxXNEsn2RduM53gH8q5PWdIvdHuzDfRGFh6969I8V61480zXJlM12ItxMflplMZOOa4vxd4ou/Ehg+3RDzIshj3PbmpempSVyp4e8Mal4iSdtNgEy24ywLbcVpaR4B8QaqzrY2WShwdzYxXc/s/ANcah5mBGME/lUPxE+I99a6lPYaE32NYnwWQdab0aiEVdXOC8ReENY0BRJqVuVjHXHIrAUNIQNpOfugda9/8L6vJ428AahFqiLJdQqyqx6k461w3wj8OQ6l4xnW6XK2mDtxwcHFOK97lCT925kaX8O/E2qWq3dnaBoD2YhTWZ4k8Jav4ccDU7Upu/iU5FejeNvFviv+12i0O0vLW3iOwGOI4YDiuh8J3F94r8MajYeJbKQSQplXlQgsetS3zJy7DtytR7nz2vUAjg9hzXU6J8Pdf1qHzrCw3xsOC77au/D/AMPJqHjhLKcExoSxGPQ13PxE8ReI7O8/svw3aXUFtBx5kUROcelU9EvMSjdtdjzPxF4M1vw/GsmpWZRB3U7q5z7xznJPTtivoH4d6rq/iOC50zxTZTNCI8rNNGQSc4xXlFr4f+0ePF0o4CS3DKAPTJx/Kla8lHuJu0OcqeH/AAlrHiBgbC1YkdCeAa9U+FPgTX9A8Ri61a2RIwpGQ4p3xJ8Vy+D7e10XQQkMhX55F6rwDVX4P+Lta1rxF9m1K9kuItpPzVUXzJrsElycsn1OA+KOP+E51QH5f3hxXJDI4PI9a674pjPjbUh/00Ncl2FZLa5pNW3Cgn5SMdaKdFG0sixpjLHHNXsiJXloghQPIkW7G44roNd8NJpemQXQl3eZg1btvAurq8T7YdoIbO7nFdX4o0C81LSLe3tgm9ccE4rgqYjlnY9jDZfVlS+E8nBwzccYpQMfjzW9q3hbUtKszPeLEEHGFbNYHGOK66UuZHm4ihKnKzQtIcAcjI7iihRliFOG9a062MehYsrOe9uFgtoWlLcLjtXZW/ws8VSwrKtorqeeXAxXZ/DCwtNA8G3XiGeNXnYZj3jpXFXvxN8RXN88qahLDEWyI1Ax9KuPxcgvijznpHxPtprH4badbXabZYkCsoOei14JbQSXc6xQxM8x4UKK96+J13Le/DLTbi45kkUMT6krWL8GdKs7LQb3xFepv8sEIrDoQe1Ypcs5J9C2+aMbdTkbT4X+Kbm3WeOyXB5ALgGuf8QeH9T0GcJqtuyFv4x0rp9a+JviKfVnktbxraBWwI0x0Fei6dqMfj7wDdm/jX7VapksBk5xmqekeYX2uQ+f4YWmnEMQJY9MDrXY6d8MvFGp2ontbQNGf77BTWj8GNMt7zxgI7oK4jQuobsQeK0fiN468RWniKa2tZnsYYmKoqD74HetNkvMlK9/Ixv+FTeLMcWMYHf96K4zU9Pn029e1vYgk6cHDZr6Fs/EeqXvwputTuHktb6NSEfHJxjmvnnUbua7vpJrmQyyk8uay+1YprS5VXOTuOTT6aO+etLVXJEY4HAya6bQfAuva1AJtPtSVboWOKxtGER1W1+0Y8nzBvz6V9A+Nn1u18LWMnhFituqAt5Iyx49KYXPHdc+H3iLQ7Rpr61CIvJKturmLa3e8uRHbpmViFwTjmu6l8eeJLe1mtdZEswmG3Fwu3GPSuU8PNv1y3LEq5lBwvI60oLmkkOTsjTu/A2vWeoQ2klofMmGY9pyMVevvhn4msrY3EtkGQDJw4JFexfE7xcnhewt/s8CNqEqfI3oO5rhfhx8QtWvPEItNVuDcW1ydhDfw5qrczcRfCkzyOVDFIyyAoyNg57Gtnw94a1TX5f+JdatMOmTwK6v4paAkHjpLS1QKlxhhjvk13/iO5vvB3hiytfDlhK9zOgDvGhJU4BzSTXs+cN58p5bqnwy8Taba+ddWAEY5JSTca490dHMeCrLwQeK9g8EeKvFyaysGtW15c2sxw3mRHArD+M+hQ6X4oiNsqqLr5go7VLW3mPv5HF6Jomo63P9m0+EyOe+Pu/jXTXXwv8AFNvbF3sl8tRliHBJr0bToZPB3w6gu9LspJtSuAN2xMkZ71ymieLvG0OqxyXtvfTWxbJjaI4Aqmry5BLSPOeYXVu9nOYrqJo5EOChFT6bp13qE621lE00hPJA+7mvU/jbpcSpp2sQwrFNd4V1PB6ZrV8GxW/gv4cT64YUe9k65788fzqYuyb7FSV2l3ONsfhb4oFzBO1mpiV1YneB3rtvjbG8Pg+zjlX5wVBX05rgoviN4luNXQLqMiRtIo2DGMZrvvjfKZ/B9nJKT5hK9qU37vMLZ2PD7C8nsbyKe1kMc0bBlYdjX0FEbb4ofDuVp0U6xZqQMdSRxmvnM5z/AFr1v9nXVGs/F0lrklLlAnt1q1DdEzlySSPK7uJ7W5lilGHRip/CoiMbcfjXbfGHTE0vx1e28ahVbD4Hqea4kHHH51jTdzSro7BQKKB1rW5CWg6iiigAooooAKKKKACiiigAooooAKKKKACiiigAooooAKKKKACiiigAooooAKKKKACiiigAooooAKKKKACiiigAooooAKKKKACiiigAooooAKKKKACiiigAooooAKKKKACiiigAooooAKKKKAENNOSf9mnGg5ZHwMgEdKAJra+urUFbedkB6YNdDoK6tqV5C0ssohTBYt0xTtM17SbWwghnsRJKF5OBnNJqHixniaOxiWFcY4GKGNEPjS8SfUBFEcrGME9s1z1DyNK5Z87icmikgYUUUUxBRRRQAUUUUAOcjYlM7nFOmI8uL1pucGgAHSlpBS0AFFFFABRRRQAUUUUAFIaWkNAD4fvH/dplSW5HzZ/u1GOaAFooooAKKKKACiiigAooooAKQ0UGgAp0Jw6H7q7h/OmmmjLEqfudc0QYTPf/ABhC938IYfsaGUgKTjnvXgJ49K9L8CfE0aJpR0/V7U3Vn0AAH9a19T+IfhC5sp4YfDXlzOjKr7EwCR1pNAjx2vQPgp/yNyfQfzrlfDd/bafrEdzfW3nW6uGMZAOR6V63afFXwnZy+baeHZIZP7yKgNW3qyZLU4v41HHji49dgq78CAD4p6/MQcflXTX3xU8J30jS3Xh55ZmGN8ioTXDeEPF9hoPimXURbP5DE7Y1xkZpQ0T9Cpq6R1iY/wCF4Tgf7WfrgVV+IRx8VNOxywnX/wBCFYP/AAmVmvxDk18204gcn5CRk8CoPE/i231TxhBrUVvKkEUwco2NxGQeKm2kPU0nt6o774pXC2vxI0KZmAjAVmJ7fNXSfEHxjregRW91pllBcWcijLspOPevHfiX4utvFGq211Y280AjjAAkIznPtW94U+KQsdOFhr9ot7bgbQNoPH405aq3mDdpX8izB8ZvEM7iG20yyd+w2nNcR4712/13VjLq9sttMnVQMV6K/wAUvCsHNj4eWO4AO1mRK8q8R6q+uapPezKq7jwqjFTUXNYUJctzMbO456dqSkGcAnvS1d9dyIruAIB5zx1ArttL1vw5BYxpd6cZJR1bYDXE0VhVpwnudFHE+xfur7z0EeIfCvOdMP12CsfxLquiXenKmm2TQ3GRltoHFct2ozWUMPCLurnRWx8qitKK+4U9eufekNFHeupeR597u6EJwvPevdfhcF1H4e3thCf3qKTx+NeF8E4611PgLxfc+Fb5mCl4W+8vqKpvRxFJaqRjR6Ve3OrGyit3e63kbcdOa971jTJtJ+Ecdpc8XMaAMD24Nc5efFfQxE0umaGYdRwcyuq9axr74mpqfhe4sbu2uHvJW+/kbRxWc/4djVfxbnmH+Fey/s+f6/Uv+uVcF8P9d0vQdUmuNZ0/7bEYioXAIz+Nemaf8XPDFgGax8PzwbuD5YQZFbJ8qt3Rk9WeP+Jv+Q9ff9dW/nVKzguLi5VLNJXmHzKIxk8V63rPxG8J3ltcpH4dKTyDh2RM5rzbw1rTaJrq6jbQ7gCfkcZ4NZw93QuWup0+ifEjX/DoNvdoJivASfqor0GWLTPHXgW61WewS1vIULNKVwW4zx7Vjj4neFJkV7vw20s+PnfYnJrB8XfEwajpz2Gh2P2OxbgrtAP6UTV0EdEebyqEmZV+ZQcA17r4Cja4+ENzDCN0m5+K8IUhm5JGea7j4fePJvC3mQSxGayfqmOv0qlrBolaSucVco8U8qyjEqsePxrU8JadHqfiK0t5ScOwLfnXqU/xM8HypIX8MMzOPvFEzmvKrjVli8QNqWmqIY/MDLH3A9KmPuhP3me6+OPE6/D2ztrPRNOhDuoLOy/K3apvht411rxNfMt/pccNoEyJY0IBb0zXMQfFvRLuzgj13Rmu5Y1A3bVI/WmxfGC1tb1FsdMMOnDny41UNmqb0Y49DkPHOB8QnzwDJg+3Ndr8cht0HRMckpx+QrzPxJrkOp+J/wC04Y2SEtkxvyxre+Injiy8Tabptva2txE9uu0s5GOlRHSlylt/vblL4SceNLNnYHcrcVo/G3I8YNnk7SfxrmPBesQ6F4ggvrpDLHED8sfBq38QPEcPijXGv7WNoYsHIk6/pVy1UTOPuyker3Nu/iH4RWy2I82W3hAKJycheleCy281vN5M8TLN0KEciuu8B+PL7wq2wDzbCRvmUjJrupPij4UeUzz+Hd85H3yidaUvj5hwfuuJ43Jaz2M6efDJGTg/OMDFfRmneIL2D4aW1/o1tHdXCDBjIzxmvDPG3iMeItS8+OFYbfsoGMCtTwD49uvDEjQyr51mRjyzzTTvFkpWaOkk+NGvrMI306zVx8uwqaxfHvjXXPEGkwwarpsdtAWDqyKQGrrD8T/CDoWfw4GnzkuUSuF8f+Mf+Enkhjs7eO2sosbRtAOB9KmWsOU0i7T5jjVxtwMjB6UtBwZCcgADg+tFFrpIi3v3A5xxSxqXZVTncQB9aTn+HrW74N08X+rRr/BF8zH6c1NWXu8yNqdP29RU0dLqxXQ/B8Vupxczgbvxrz0HoPXg10vjzUBe6wY4zmKEbPxrmqwwsNOZnXj66lJUobJBj8qKKK6N2efa6AdcdqM5DY6HvRR29q0IeqPo9lGp/AfFuc/Zofm/Ba+b14HPavc/gBrUF9p2oeFb+TCXAaRCx4OcDbXlvj7QZ/DfiO8sbuMxkuWiyMAqTxWUvicu5qvh5exz+3OMELjnNevfAAlrrU89NowfwryE4DKMgmu3+Gni+28Jz3n2u3mmWUYGwj0q27t+hKRjeOs/8JZqPCj95WCf7zFuOwrR8RahHqer3d7DG8ccr7gr9R9ap2zrFcxSuAVHUHpRFaIUmX/CxB8Q2B6fvRxXqnx+/wCQdov+f4aZpnxI8JWdrbK/hzdcRIAZFROWHetC++Lnhi/VFvdBmnVPuiQIcUTV4ryCCtJ+Z4UhAJPXNe9aR/yRlcqc7Ov515R451nTdZ1X7RpVj9ghP/LNgB/KumsvH9jb+BP7ANtOZtuN+Riok24NFxSU0zzg43kkE9g1NODy4LY4zS+voTR2wc4q42M2bWhz6zpX/Ey03z4YRwZE4U47E16P4X+KNzq13FYaxp0U0MnyERrlm96wPAfj220PR307UtPW6tyxO0qCeT7107fFHwvbky6d4cEM6j5XZEwDVdRPUwPjV4esdGvrSbTFWNLhS3l9Atcj4IdV8U6buYkiZQT+NHi3xJdeJb0z33yov+rUcYrGs55Le4iuIuJI3DL74pUvdlcqr70bHrf7QltOdUtbkREwGEJux3ryDAGAhBXH617JpvxZ0yfTo7fxLpMl08YwOFwfzrA8deL/AA/rmlJBpGhmynDE79qjIx7VCVrlt3sedUtNAB6HgfzpfvcZA9apEyFpD91jnjHSkXLKzNwB096UcgY6ntVJ2ZMldHvejHd8Fr4EAR+W316CvBMtufgFegz1r0iy8f2Np8P7rQZbO4M8isA4IxzivNz1ODy3TPapavMqLtA6r4XlV8a2W0dT2rqPj2B/wkFqSSWCHFcN4Q1SPRPEFrfzxPIkRJIStf4k+KrXxXqUNxbQyxBF6EjNKprGwR0kceC3LLhOcY70YyOTwPWkb5jvHr3rT0C8t7HXLO5v4PPt45A7xgDBHoc0JXFex0fwgx/wm+n4x/rB/Wr/AMcjjxxOx/uJ/Kurs/ip4StZvNtPDjxSp0eNUBp198VfCl9IJbnw7JLKRgvMqMauq7pDpPlv5nmfw5vE0/xVYzydN23869s+IvjXXPDVxGdPsIJrN13NK6k4NeA67qMF3rst7p8DW0e4FF4AH5V6J4a+KsdvpwsfEVh9vjAxuCg/zpN3JjoyW0+MfiG6mEdpptq79gqk5PpXE+I9ZvNc8VR3mpwC3ueEKAY6Zr0CX4o+GraMnTPDwgmXlHZE4NeW6jqr6hrh1CRBhn3kAfyoXxJlP4Wj1v44ZPhTQTlgNvT/AIAK89+FWP8AhNLMrkHng1q/ELxzZeKNG02ytbO6jktB8xcjB4A/pXL+DdYh0PX7e/uY5JEQ/dQ4NCdpNhLWKR2fxhcJ41gkbACkHBrpvilbS6n8PtKvbZS6Iq7iOwx1rzX4h+JIPE+sveW0MkSAYAcjOa6LwR8TE0fSBpmuW3261HARQOn41Kj7rQX965jfDPw9far4ks57WF/JhkDtJjg+1dn+0Kvl/wBmqDkrwf8Avmq2r/FW1WJLbw3pv2CJziT5QDj2x3rm/iN4xtvFUdkIYZIXgAEjyEYPGM0qi5uUdP3bnEcZ4opFOR1B9x3pc09SEIQTxnjrg9K09H/ta3LX+mpMnl8eZEPl496zMgHnoRg5rt/h/wCNovDUM1pe2i3djJnI2gnn61SY7G/oXxY1IyW1lqltFcwsdpwMuaufGbw7p0GnWepWEK2ZnG51QYJ4B/rVj/hZng9AHh8MlJV5WQomM15/458Z3XiqZVkAito/uIoxUz+EtbM7b4AgGTU1bJBH9K898bIf+Etv4ypH7z5PevRf2fHC3GoMykKAMg9+K1td+IfhSz1O4guPDxmuYmwZWRDzRP8AiL0M4P3CL4Z2kuheBNUv9RRotysVVhjIxWZ8CdSjPinUwxUG4yYwepy2a5nxz8QrnxFB9is0+y6cvOFGOPQ4rkdH1S60jVILyzfEsOGTH8X1q1pK42vdseyeKvib4j0LUp7a40y1WFGPlu6kZFZcPxZ8TX8EwttItXG0hjGhPFWrb4saPeWyr4i0M3dyB95VXH61T1v4naUbB4PD+iraTOpVi6LjH4VmlaLRTd5Jmb8HtW/4rtpZwEaYNuz2Ndr46+IfiHw1qzxLptu9qP8AVyMp5Hv714VZ301jfrdWrFZg26vWdN+K9hLYJB4i0g3roOGVV/rVvVLyJi7Nsjs/i/4mvQy2ek2k3cqiEkVzHgzVTcfE2wvL5PKczksB0B5yK6u++KOiRWcqaDoa207jBYouR+VeTPeyHUXvEby3Zy/+6c0L40xtXp8p6N8dtNmh8RC92u0NyqgEdsCtX4FeHr+HVDqc8TR2yjC5GM5pNM+LOnS6ZBB4l0g3U0Yxu2rgDt1qEfFtV12GSGzeLSIwQsUYALf0oho5eYp+8orsch8Uv+R31P8A66GuR7Ctvxjqqa34iur63hkjjlfdh6wwQd3XOaiK0sXKVxaUMU+ZDtYdDSUH7p4zVEP3dWzYt9e1Xz4h9ukwSBt3dq7XxnqF3a6FayW07RyHGWBrzOMsrLKCoZT0Na2qa/d6jZx286IVQYGFrilRvO56VHG2hy85WvNWv7pFiubqSVCecnNUecnOPwpBwmD1pR9K7ILlRw1Jc8r81woHJHPAopOdwwMjviqW9zNvoe86HEdY+DwghO6SNcsq9eM143o+iX2qastnawMzZwwxytdD8O/HUnhWWSOVPPsn+8mM/wA663UfitpCW8h0DRxbXkg5mZF5/Km3afMEXaHKdB8U7R7H4bafazH95EoUj0IXrVL4WD+1fhpf6XE6/al3NtB55Ncj4r+IcWveFo7GaCYXQOZHYjB47VzHgvxTd+GNQFxaHdE2N6nuPSs95Sfcq9oxsZWo2VxZahJBPE8c28jDjHevavhlp8vh7wLq97fgwrcpkLJx2IqvJ8VfDF1ie+0ASXOOWKJ1rjfHPxCufEcTWlrGbexT7qqMZH4UP4eUPtcxo/Buxmv/ABVNfxN5aRAkr03e1dhr3jrwj/aky67osk88TlA/lg9O1cz8CbO9OoTX6SpHZRqfMD5roNa+I/hODUriGfw99pdHIaUIhDe/NaT3ihJ6SZyXjz4jf2zYnTNIhFrYYwRjBI9K81BweOTX0PoMnhT4g291a2WlpZuseSQqhh+IrwrxDpzaTq11afwo2BnrjPFZfbKfwGdj160tIeMYOSaQAl9n8I6mqMySKJ5pVjiRnkY4UKOSa7TQ/GniLwm4ikMrLgAQ3H3RXI6XeNYX8NzEATG4Pzd69eg+KPh2eCIat4eNxKgALhE5/OrTTCxv+Gb+w+JOj3S6lpca3ca5EoT5R9DXi2m2y2niqOCM5UT4BHs1d5rvxUtRYPb+GdNGniQYclQPyxXnXh6UvrtpJKdztLk4+tEP4lwk/dPU/wBoNGJ0raPlERy/5Vx/wo0W51HxRaTxRuYIWDs4HHB6V7P8QfFOi6BFZLq+lm+MseVGFOAPrXAat8V7KKwaLwzpaWTOMMNij+VRB+82aTXuxKvxN1iD/hZVpNGwZbfaG9BivRPHPizV9D0XT77R7OG6hdAZCyk7Rivmy8upbu6kuLlzukYsWJ716L4M+Jsml2X2HWrb7baYwAACcfjTj/D5RPSdy9D8ZtdmcxR6daO38K7TnNcr418Sapr2rWcusWSWlxAc/dIyM5ruX+J/hSLD23hoxzDOGZE615j4r16TxBrEl3JGIoz90YxSfQXc9+ufEmo2fw/sNS0O2iupdg3Iwzgetefn40a/5vlnTrPzBwQFPFYXgL4g3XhxDbTxC7suhjxnA/Guwb4neERl08NHzG+8xRKr7fMLeHKcd4/8Xaz4ktraPWdPjtQjboyFIz7132rwtrXwdVrJTIVXBVOehFeY+O/FX/CT3iukKwWsYAVQMECtX4d/EF/DNs9peRfaNOP/ACzA5/Wklo0U3qmc74U0K+1jV4ILKJ28qQF3x71698dIWg8KWUbEErtDfXNYmp/FfS4LOT/hHdJWzkYgNIVUZz9K5/xt47h8ReGbTTRBMt3FgvLIQVbntU1vg5UT1ucBn8uma9K+AVtJP45haMZSLDMfavM84YAcg9favoH4SaaPBng+/wDE2oqI5JIyIkfqR1Bq0+W7fYU1zyRwXx2u0u/iJduh6Iq/kK88759av69fyapql1eSEs0khYE+maoYxj3rKlGyNKruxcUCjNFaIzYtFFFAwooooAKKKKACiiigAooooAKKKKACiiigAooooAKKKKACiiigAooooAKKKKACiiigAooooAKKKKACiiigAooooAKKKKACiiigAooooAKKKKACiiigAooooAKKKKACiiigAooooAQ0UH6ZpM/3efanYVxSfbNJ3wG259aB8pyFxu980hIHGMmkhi5b+8gxxkikOA3PP0pcEcYowB1bNDY0HOfanU0Y7Nn2xTqBMKTNBooGkFLSCloAKKKKBDpk/dRGoz96pHHyJTCeTQAClpB0paACiiigAooooAKKKKACkNLSGgB9uud3+6ajWpIfvH/dplAC0UUUAFFFFABRRRQAUUUUAIaDS0lF7AFNPB649qdTcE7s/epQ3CYvzKcKQoPZhmgLlAADxzyaVUZ2UIrOw7CphaXQI220+T28s02CVyDjgqCPqc0celOaNlJj2mN0PzhuuaTtRH3tQeo38KVjkYYAZ6cUjHANLghgR0pRfQHsBJwBuHy8cimhFHAVsn1NPjjeRysMbSE9lGadJBLEyq8bRn0bim2NrnSIwexIBHHNKcA/dO71JpAR8wxyDS0LewSegDIOcqD7jOaTGGyDhjTqO9ArXVxAOT60UUUtkNPsFFFFWm72Fqne4UUAZJwCSOMU+W3mijHmROo9WUilKT5UxxbuxlFL9KSlsS3zbiYxwetL0680UUratjadrCE+hAz270pxnJBYDjAOKBRTeqsUr3uA+Xjsfm5oIBPf8KXFGKHrYnq2IDjnGaT+Lr07U7FIc9jj3ok7u6G2rWYD1zn6UDOflPXig7fQlDQRg4xnPQ5qpL3dNx3W/QOiN6etBBAABz6H0oGB8pBo56HpUr3dyN9UAyOnL/pRwOSOe9LRih6jEBdlKgqAfUUABR1wOnNLRigBuAp3D5sUvPPv2pcUUS1DrcTOAAF60uRn5hlRwQOMUYoxQU3d3EUYJKnjqM9BRkjkkD1yKXFGKGStHcb83UYA9TRj1IJHcU7FGKI6Kw2IeG3Eg/hSA4Y7vnz/AHeBTsUYpdQExjgDP9KKXFGKfQG9BOtaek61e6UsosniG4YO6PJrNoxSt0KpzdN8yHTytPMZnOXfliOmaZS4oxSUbKyEn7zk+olFLijFUTHRiUUtGKOlhWLGm6hc6XfQ3dlL5c8TBlI9v6V6v448a6B4s8GQS3aL/b0S7OvJIHXp09q8gxRilJXSRSdm33EA46YFIcMF6hvc06jFNAJnqDzmgDgg9qXFFAnqJxRx6UuKMULaw27u4mThiCOOmRmhSSpJHzA0uKKFtYT1dxKO3FOopJWAblc79pz0zmkHynOCxp1FMYh9Qd3tRnPOKXFFAgG4DqG/CgBSQrKxDHkg4xRRQCPYrLSfhU9tC1xqTLKI13L5zfexz29anXRvhIxJOqtvPbzn/wAK8WpabYWPaP7H+ErFS2qMMdB5z8n8q8t8WwaXFrEyaE7SWStlTuJP51k0lTYq+lhAQrBxwDxhuaDkcsQQOeBS4oxVJ63J6WGhcO42tg+9C5AO0gexFOoxSB6iHnAPbk0Dj51yAeOaWihOwmhDjjv9OKDz16ClxRSKYnUYzwaQehBZfUHFOoprQTG4zwAQPegnehBzuHTHFOoxTuO4mSVXzMsw/u8UEELtXA+tLiikAnbPWjIBzjcT2FLijFO4hvqGyD1xWr4YTT5NatF1uTydPZ8SMT2/CszFGKS0aB6ntK6R8JsDOqMeO0z/AOFH9kfCX/oJv/3+f/CvFqWgD2O80n4Ui1mMGpMZghKDzn5P5V5DeiMXkotHUwbiEBGcioqTFJq47iDqc80o4GAQ30FFGKGrqwu56T8Gte0rQ5r46vepahx8m/Jzx7Vxni26hvvEd7c20iyQyOSrKMA1k0Ypy1kpBFcsbDcZGH4B6gd6MD0IHTPoKdRQMQZHG4H270dOoJ9s80uKKBLQQcDIIUehpAq5yAwPrmnYoxQAhHt+IoYEgcY9vWlooQCdeQd1HsOg4x6UoFGKOtwGoAFwd2RxnNLyDjcCPTFLijFEdGwEpDju2D296dRihDEz2ZSR6igDA7j60uKKHq7iSilohoAXnOc0vPelxRSBJISg9OuM0tGKYdbiYxjBCkevIobLKQZExnJAXFLijFDBq4303gjPCntSnBHrj04pcUYoAaM45G5falznHzDf2GKXFGKVtbje1j0D4WeNYPDM0lvfxF7ec/McgBa7PUYfhbq1013eaiElfllSRl5/AV4Zilq3K7TF0se5T+NfCXhHTZIfCii7eUbdytyv1JFc/wCGIfAeq6cLvxTfvFq00jmSMysMDPy9B6V5ZRU9bjv7tj2gaP8ACTvqjcdf3z/4UraP8JjlTqjAA9fOf/CvFqWh6gdf8QbTwtbXEI8JXBmj2/MS5b+dcdweWzge9OpMVNh3DO4f7I6Vf0GdLbWraa5lSOFWBJIqhRitIS5XciSurHp3xm8R6VrjaaNKu0uDDEVkK5+U+leYZHAJH1FL160YqY6FN3SQnU5Yb8elIBg+YxyP7op1GKAbuJwOHzg9BSH5hh8rjpmnYooENYFupwPbjNAAB+VSPqadRR0BCD+7ij+MFMJju3I/Klopp2BiEnJLMpQ9gKXucgqw9e9GKKXV3A6DwJLpdv4jtptdIWyVwzZ6fU103xW+IB8SzLYaWPJ0e3O2NV/jxxnjtXnNGKVT39hrQTlWZv4cUEYYj0paKa0VhPV3EpRRilpJDeoUUUUxBRRRQAUUUUAFFFFABRRRQAUUUUAFFFFABRRRQAUUUUAFFFFABRRRQAUUUUAFFFFABRRRQAUUUUAFFFFABRRRQAUUUUAFFFFABRRRQAUUUUAFFFFABRRRQAUUUUAFFFFABRRRQAAFiAM5PpW/p3ha7uV3zkRwsOpPNYMchhkWReqnIra/ty9vZ7eIyFYwRxmn0EO8R+H49GhtzHMZC+c5FYI6Egc13Hj4g2Nh3IB5/CuLtl33CL/eYCkhs2NC8PT6kvmzOYocferVfwfbshNlerJIByMirHim4fStKt7K3fYzLk49KyfC2n30t0l3GTFEPvE8ZFJgYl/Zy2Vy0U+dw9qr123xAtUEUEykMzcE1xB+7THYWikHSnUBsIKWiigQUUUUAOkH7uM1GD8xqRwNkdMJ5OKAAUtIOlLQAUUUUAFFFFABRRRQAUhpaQ0ASQfeP+6ai71JD94/7tMoAWiiigAooooAKKKKACiiigApDS0lACUDBfNLXfeAvCmha5ZNNq+rLZSA8LuA/nTghSZ0nwj8P6fa6Bca7qkYkVeVBGadd/GcRSyR2mjW8kKnbubAP8q9F0nw5pFn4PbTLfU1ksMf8fAYcfjXnd18OvB6W8s0fiYO4BIUyLUXu7FpaHlGv6j/AGtq91ftEsX2iQyBR2qjW9o9lanxpa2eVubQzqpz0YZr2bxB8PNBtdWXUroR2mmxpnyl4BOape6I+esgdaOc47Gvf9Ks/Ani5LrT9KsVguY15lK4J+leM63pn9i+I3tLklkgfLA9Suf8KHpILaGt8Mdd03w/4gS51UfuQrAkLu6j0q38WPEOl+ItYgk0SICNYjkkbc813XhzVvh5q9zbWMOig3LLglo+prj/AI2aRYaPr1tBpVssEbRE4Ax3pSFBnnQJwO2OCKUkYp8ELTOsMYLOx24Fe0aN4T8PeFtDh1LxYqzecgKwnk/lVPRJiWraPFKDXu9la+BfGEctnpVqlnd4/d8YJryDX9Em0LXHsbkZ2OAC3cZqZaSRUNYsx/50fjX0Jb+AND1Pwnpl3JFFaOEEssq8FgDyD+FV9Mm+Hl/qP9kQafG0+fLWUr1PtVTVpcpFPWNzwP6mg9cGuw+KHhlPDXiEwRHNu43p+J6V0Pw68C21xpr634hcJZpyqvxu+tJu2pdrnnOlc6paHg4lX/0IV7B8e4o0sNN2xqD5Y5Ax3qza698NxfxW0OlnzFcASCPgnPHNM/aCwLawZciLZwp+tFT4F6jgtX6Hh3WiiijclqzQCjtmj/aU/L3Fbmh+Gb3Woi1rsC+5pTlymlOjOb0MOiuvPw/1cHrB/wB9VFd+CNTtreSaTydsaljhuwrFV1sbywVRK5y1LSDpS1ucgVPYWU1/dx29sm+RjwKgq3pWozaXfJdWxxIvANRU5uV8u5UEpNKWx6BZfDaHykOq6strM4/1fFZPinwDPo1t9pspvtFqTneK5jWNZvNVu2nu5mZv4eegr1XwfPLN8Or/APtFjtCERFvTbxXl1Pb0WpSd/I9GkqNZOnFbHjeSQ28cikU5XNPmIEjntTOAcD616sZ80U2ee1ZuK6DqKKKogKKKKACiiigAooooAKKKKACiiigAooooAKKKKACiiigAooooAKKKKACiiigAooooAKKKKACiiigAooooAKKKKACiiigAooooAKKKKACiiigAooooAKKKKACiiigAooooAKKKKACiiigAooooAKKKKACiiigAooooAKKKKACiiigAooooAKKKKACiiigAooooAKKKKACiiigAooooAKKKKACiiigAooooAKKKKACiiigAooooAKKKKACiiigAooooAKKKKACiiigAooooAKKKKACiiigAooooAKKKKACiiigAooooAKKKKACiiigAooooAKKKKACiiigAooooAKKKKACiiigAooooAKKKKACiiigAooooAKKKKACiiigAooooAKKKKACiiigAooooAKKKKACiiigAooooAKKKKACiiigAooooAKKKKACiiigAooooAKKKKACiiigAooooAKKKKAENWLH/AI/4WPIyOlQxp5kip6nFddYeDZx5N0bhPLPO3nNFwsT+PubGx2jGR0/CuOsTi8hzx86/zr0nxFob6tbwpHOiLEOSa4DVtOl0i5VC6ybTnIFAHf67YWlxJDd3zhYkXjJ61y2s+IGuJUtNNHkxD5OON1a9pcW3iDR1tJJxHcDGMmobLwrHpswuNRuomjTlQuRQOw3xaduiWKSZ3gDOe/FcSO9b/irVFv7kJAcwR8LWDQFwAxS0UUCCiiigAooooAdJjy4+eajGcnipHA2JTCeTigAFLSDpS0AFFFFABRRRQAUUUUAFIaWkNAEkGNx/3ai71JD94/7tMoAWiiigAooooAKKKKACiiigApKDSUmOwUKABjOKWmqeflG4+lXHYjdnvnhLB+DsnHGO/U8mvBWyHYc5yele9eE9o+EEik/vNp+XPua8Gc/O31rOPxmknZI2PBW4eKNM4T/j4T+denftAXlwt5a2yzusBQMUB4NeY+DDjxPpme9wn869E/aDI/tO0KnogB5q62j0EtTzrwt4huvDmoC7sVjLr1Djg1X8Q6vca9qcl7dqizyddgwKzhyx44q1pdk+o3kNujqhkOMntStdpjbsrHQ/DTH/AAmVlkDPOMfhXU/tBN/xVNng9IWz7fNXReEPhLfaPq9vqL6nayRKM7ApzWz8S/h1eeMNSt7yyv7aERpsbcpOcnNOaIgeGeBUSTxXpqScobhc1754+0Twvqk8Ca9q5tAijZEZNv6V4JqVnL4V8TrE0izSWsmS0fAODXsd1Y6P8S9CtzFdxx6jGoBGeR9am/NBIaXLNsg0Lw/4B0TVIb+08RAzxHKgzDFcX8Xr+w1DxRDPplxHc7mGXQ5Hat2P4MPasZdR1e1azXk7FII/GvOvFFlp1h4lkg0iYz2qOoBDZ9KaXPJN9Bt8kWl1PX/HE8tt8INPMLtGx2KWU4yCTxXjfgxivifTGyFfz0II+tewfEBSPhFpqr6ocE5PU14/4PIHibTGJBAnXj8ac3epcKSSgj0P48ESaxZbxkGNSfXNbHxEd7P4ZadDFlUkQbgvfgdaxfj2R/alkQy4Ma8iuk8JXVh448D/ANi3FxHDexjaA/UDsamW1hxkeHaMu7UrRefmlQgD6ivYvj+d1lpTHn93jB781NofgbRfA9yNR8R6hBcyBsQomRyeO9V/j3OLnTdKkQBN6bgh5IG6ifvRSHF2bfc8UPXnrSUpz3OTSURFJCE4Uk9PQV1XhXSNVvoC2m3zW49NxFcsPuEEZqaC9uLVf3FxJH9GIrOrByNcNV5Hqz0E+GPE3/QX/wDHzVbUPDniCKzmkm1TfGiEsu48jHNcaNVvj/y+XH/fw0yTUbx1KtdTlTwQXPNcaoSvc9OWNhytFcdBS0g6UEZr0EeMwJxSNnHBA+tA5yDXReBtFTWtahgmYBDlj+FRUn7OLn2KhHmkkT+DPCs+szi4mQx2inLOw4xW/wCP/ElvDYx6LpO3yIl2s6dDiu+1nw9dyaSlhotzBax4wxK9fyrhH+E9+SzPqtqx6t8p5rxliPrE+aTZ6kKKoJ8q1PNMfKwPPGaM89O1WtUs20+9ntpHVzGxXK8dKq4xg17cJRlFWPKmpRk79R1FFFUSFFFFABRRRQAUUUUAFFFFABRRRQAUUUUAFFFFABRRRQAUUUUAFFFFABRRRQAUUUUAFFFFABRRRQAUUUUAFFFFABRRRQAUUUUAFFFFABRRRQAUUUUAFFFFABRRRQAUUUUAFFFFABRRRQAUUUUAFFFFABRRRQAUUUUAFFFFABRRRQAUUUUAFFFFABRRRQAUUUUAFFFFABRRRQAUUUUAFFFFABRRRQAUUUUAFFFFABRRRQAUUUUAFFFFABRRRQAUUUUAFFFFABRRRQAUUUUAFFFFABRRRQAUUUUAFFFFABRRRQAUUUUAFFFFABRRRQAUUUUAFFFFABRRRQAUUUUAFFFFABRRRQAUUUUAFFFFABRRRQAUUUUAFFFFABRRRQAUUUUAFFFFABRRRQAUUUUAFFFFABRRRQAUUUUAFFFFABRRRQAUUUUAFFFFABRRRQAUUUUAFFFFABRRRQAUUUUAFFFFACH2qT7TP8uJZVx0+c0yigCQ3NwSSZ5M/wC8ajld5XDyOzH3NJS0DERmQlkLKfY4p/nzYOZZGz2LE0yloAb3zg5p1JS0AFFFFAgooooAKKKKAHSY8uP1qMZDGpH4SOmdScUAApaQUtABRRRQAUUUUAFFFFABTTTqQ0ASRYBJP93FRd6dnim96AHUUUUAFFFFABRRRQAUUUUAJRQaSgaAUHcG3dfaiinBisTJdXKQGFLiURH+AOcVD3zRRUpa3HuORirAqSCOhBwRTp57i5fdNO7bRgeYxb+dMool7wIQ8nc3Le3FKuVIKMVI6EHFJTqewPUs/wBpX2cm8us+0zf40n9o3pP/AB+XQA6Ymbn9arUUPUlaDnlkkZmldnJ5O45J/GnW9zcQkmKeSMeiMV/lUdFC2sPzLJ1C9Iybu4YjoDK2PyzVYlju3tvJOc9KKDRsJ6kj3M0sfkyzTNCOQpkJAP0qONmVkZSUK8jB5BpKKN3ceysSTz3Fwwae4eTbyA5Jz7c0RTywuZLd5Imbg7XI/lUdFD1FZomlurmbAmuJpcdCzk4/OkknmlTZNNLIOuXcn8BnpUdFJlbCfQYHpRS0ULQVxBz7UvPcgj6UlFNSuNTj2CjmiimJ8rFoNLRSAb0HAp8UssJzDK0Z9VJBpKQ0mk1qNNp3ROb2773Nwf8Atq3+NH268xkXc+BzjzG/xqvRUKnT+zE19rUfUVmLMzEks3JLHPNIOtFArTlaMnzPVjqKKKBBRRRQAUUUUAFFFFABRRRQAUUUUAFFFFABRRRQAUUUUAFFFFABRRRQAUUUUAFFFFABRRRQAUUUUAFFFFABRRRQAUUUUAFFFFABRRRQAUUUUAFFFFABRRRQAUUUUAFFFFABRRRQAUUUUAFFFFABRRRQAUUUUAFFFFABRRRQAUUUUAFFFFABRRRQAUUUUAFFFFABRRRQAUUUUAFFFFABRRRQAUUUUAFFFFABRRRQAUUUUAFFFFABRRRQAUUUUAFFFFABRRRQAUUUUAFFFFABRRRQAUUUUAFFFFABRRRQAUUUUAFFFFABRRRQAUUUUAFFFFABRRRQAUUUUAFFFFABRRRQAUUUUAFFFFABRRRQAUUUUAFFFFABRRRQAUUUUAFFFFABRRRQAUUUUAFFFFABRRRQAUUUUAFFFFABRRRQAUUUUAFFFFABRRRQAUUUUAFFFFABRRRQAUUUUAFFFFABRRRQAlJn5SewqSGPzZUjBxuOM12VnoemWAje7mWVnA+TOaaV0JuzOJJwB70E/Wux8cWVpaW1pJbW4j356DFceFYMQD941KKeghOMcjmlY7etdbpmh6bFaRXOoTjOPu571e8S2VjHoay21sFB6PimwRwh4IHtmlpo6Dv706kgYUUUUxBRRRQAUUUUAOkI8uP1qMA7jUkn3I6Z1JoABS0gpaACiiigAooooAKKKKACkpaQjPWgBKFORmkz8x9Kltbaa6by7aJ5GJ/hGaEmOzYwnBxQOTjFX5tD1KJSZbGcKvOdtZ5zgkh93Qr6U+uoOPmdDofhPUtZtRcWaxmM/wB5sVJq3g3VNLtDc3Qi8sf3WzWVZavqNjEsdpeyQRj+ENivSNVnkuvh3bTTMzSOoJY9+tVJLk5kdOHpwm7SPKM0ZpB0FKgO8BU3s5xgdalK5zW1aAHPSkz7GtJdB1RwBHY3JU85VKpT28tu7JOkkTD+Fxg0mU42RH13Y5xSZ6cGgZY/KCCecDvWjBo2pTR74LG5ZWGQdnFNJkpPoZx4OKKmuLea1YxzxNFJ/tjFQ0loEroKKKUU2JCUtLRSWgxKWiigQlLRRQAhoFLRSsAlFLSUwSsIaKdSUDEopaKAuIKWlooE9RKDS0UAtBtFLS0LQq42inUUXEFFFFAgpDS0UAJikp1FFxWG0tLRSGFFFFMAooooAKKKKACiiigAooooAKKKKACiiigAooooAKKKKACiiigAooooAKKKKACiiigAooooAKKKKACiiigAooooAKKKKACiiigAooooAKKKKACiiigAooooAKKKKACiiigAooooAKKKKACiiigAooooAKKKKACiiigAooooAKKKKACiiigAooooAKKKKACiiigAooooAKKKKACiiigAooooAKKKKACiiigAooooAKKKKACiiigAooooAKKKKACiiigAooooAKKKKACiiigAooooAKKKKACiiigAooooAKKKKACiiigAooooAKKKKACiiigAooooAKKKKACiiigAooooAKKKKACiiigAooooAKKKKACiiigAooooAKKKKACiiigAooooAKKKKACiiigAooooAKKKKACiiigAooooAKKKKACiiigAooooAKKKKACiiigAooooAKKKKACiiigAooooAT6Ej3FWbWSWW8gWRmZQ3XNVTwKnsDsuovmyWbpiqjsTLc7L4gkfYbEA5UD+lcMQeoyTXdePiFsLDkA4549q4XA6s1QjSRMJZHaMFmbHYniu41vnwlbcnoMiuDT76jd3rvNcI/4RK2BQjgc5pslHA/p7U6mDA4GafSQ2FFFFMQUUUUAFFFFADpCDHGMc0wAgnmnyfcjpnUmgAFLSCloAKKKKACiiigAooooAKa2O9OpM45IoGtwRS42qpznFen2gtfCfhy3vGiEl1OoKnH3SfWvNLFzHdRSn7oYEivZtX1u20vw/ZTy6f9sSRBgcfL+dbQWhvhVzSaOX0n4gXV1fCDUYYWt3O3Cpg4rM+IOjQ6fqEVzagiGcbsDtWyfH+lhgf7FQEDoAuf5Vz/jbxPBr7W4S1kgMWeC3XNZzNW04y1OVGegwxzXqt5n/AIVtaf7g/rXlicMeNoPSvULsBfhnZBiVbyx1/Gny/umZ4dNyPLcgYGea7j4Y2EF1qErzxh2QZVT61w4YnABDD1xVzS9RudLuhcWbsHXk9xiiG5itHbzO71jxrrGm37wpbRxwqcYKc4rmPFOuRa8kD+SI5lB3MBjdXTWfjiyu1RNV05WL8GXiqnjfw7ZwWCanpcgKHt2OaU3aKZ1zik2iv8PNIiu5JNQugDBACCD0PGa0NT+IF1a3jRabFElsjbQCnUVe+FVwiaRqGUEhjOTH6/LUc/jrS4J2ibQlDKfmyF/wrWSSJo25Lt2JNSW28UeF5dQ8ny7mMHPHU15gRtJX0r0S88f2dxp9xb2umNEpBzggCvPJG3yMwGNxzisJEVmukrjaUUlKKSOcWiiimIKKKKACiiigAooooAKKKKACiiigAooooAKKKKACiiigAooooAKKKKACiiigAooooAKKKKACiiigAooooAKKKKACiiigAooooAKKKKACiiigAooooAKKKKACiiigAooooAKKKKACiiigAooooAKKKKACiiigAooooAKKKKACiiigAooooAKKKKACiiigAooooAKKKKACiiigAooooAKKKKACiiigAooooAKKKKACiiigAooooAKKKKACiiigAooooAKKKKACiiigAooooAKKKKACiiigAooooAKKKKACiiigAooooAKKKKACiiigAooooAKKKKACiiigAooooAKKKKACiiigAooooAKKKKACiiigAooooAKKKKACiiigAooooAKKKKACiiigAooooAKKKKACiiigAooooAKKKKACiiigAooooAKKKKACiiigAooooAKKKKACiiigAooooAKKKKACiiigAooooAKKKKACiiigAooooAKKKKACiiigAooooAKKKKACiiigAooooAKKKKACiiigAooooAKKKKAFi8vzF87/AFefm+ldhayeF444pHJWZe/NcbTepyzHFFwsei6jqvhu/REupS6jpwRiuN8QfYftCf2d/qc/pWYuWPt70oI6OtAzrdO/4Rf7IhvM+f8AU9a2JtX8O3FmlpLKTGnQYNedY74wKCO6k0CNvxB/ZHyf2Tndn5uvT8axqQHPWloAKKKKACiiigAooooAdJny4/l49ajHU4NSybvKj9KiHU4oAUUtIKWgAooooAKKKKACiiigApDS0UBsNxjGOK7vwx4ttlsP7O1mIPABgOT0rhaQkDg55qlJrYulN03dHpJl8BI3mRhjP16tiuU8X6va6jdj7DCI4Y+AR3rB6DANIAB1cjHt1pXuW56M7bw8PB/9lx/2uWNyvfLCupl8Q+EZNKSxNwTbjHybWryHO45FJyDnNPmduUqnU5NUdV4tPhlYkOhZ39xz/Wm+DdV06yd4tViDROPvHtXMZwckkUh56OSfpSTsYtq9z0sTeAxIZo9xmByBlsZrC8aeKF1dUtLVPLtY+Bj+KuRPzDk9KMhwNtJ6qzNXUb1ZueFddl0PUN4G6JuGXPWu0uNS8F6nIJ9RXy5iPmUZ4P4V5g2DjdRn8RVuTe4qdRxXL0O713V9Ai02a00eEMXXAf0/OuEoyP4SV/ClFZkznzBQKKBTMxaKKKACiiigAooooAKKKKACiiigAooooAKKKKACiiigApKWkNABzRSUUmULmikpab0RItFFFABRRSGgAozSUtAwzQKKKAClpKKBBRRQKAFooooAKKKKACiiigAooooAKKKKACiiigAooooAQ0lBop2GnqGaWkpaQm9dAoopKB9RaKSloBhS0lLQIKKKKACiiigAooooAKKKKACiiigAooooAKKKKAEooNFBSCiigUEi0UUUAFFFJQAtFJRQAtFJRQAtFFFABRSUtABRRRQAUUUUAFFFFABRRRQAUUUUAFFFFABRRRQAUUUUAFFFFABRRRQAUUUUAFFFFABSUtJQAUtJmigYZooooAKM0tJQIKBSUooHcWiiigQlHNFFA0FBoooBhS0UUCCiiigAooooAKKKKACiiigAooooAKKKKACiiigAooooAKKKKACiiigApKWkNJgFGaKSnL4dBi0CkoFN7IB1FFFIQUUUUAFFFFABRRRQAUUUUAFFFFABRRRQAUUUUAFFFFABRRRQAUUUUAFFFFABRRRQAUUUUAFFFFABRRRQAUUUUAFFFFABRRRQAUUUUAFFFFABRRRQAUUUUAFFFFABRRRQAUUUUAIaRu2RxSkZ4rS07Q7u9bCRSxjHDuPloAyycnuBTs54HFautaFcaRFE1y8b7842VkE4AwOaAHd6aDt4JNaul6Fd6iR5WFBGct0rSufB9/BCXVopMdhQBzIPvxTqWVGilaORQrjqBSUAFFFFABRRRQAUUUUAOkH7uP5j9KjzycCpJPuR0zoTQAClpBS0AFFFFABRRRQAUUUUAFJS0hoAVBuJHtmkp8I+Y/7tMzQA3aM5PJp31oooE0xO+c8elLgZ6CilpXBMTvzyKQDilopgNxg8cUv86WikAn15oAApaSi47Ckn1pAfTmihR5j4XhsgcVQWDPpz7ClFejeIPAllpfgNdaWSY3LbcqDxya85FIA6+n40nIHI5zStnHGM+9eg/CN/Dy6jKfEXllAnHm4259qAPPc5OAOnWnV1nxNbSH8SyNoOwW20f6v7tclQAtFFFABRRRQAUUUUAFFFFABRRRQAUUUUAFJS0hoAKKSiluwkJkkkAcjrmlzkfLn0zQu7OV5PfNe2roumf8KkhvRZwfa2QEvt56GqnoOOp4kDzjvQPmyVIA6c+tC5Vc4z/OvXPhU/hFNBmGvfZftG5iPPxmkI8jyewP4ijuK0vERtDrl1/Zu/7PuO3PT8KzcE4JwMfnQgFPajnHFJQfrQ2DDOSAPvUp49/pTQxCg474r0bw74Fs77wJcazPJN5qk7Qh/nTatG4R1djzrOTgcH3oBySPSldQrHPQHAz1pD949amLuOSsFKKSlFFtQvoLRSUtMQUUUlAC0UUUAFFFFABRRRQAUUlLQAUUUUANPWkHLbQRmnAFmAGc9q7m9s7XSfBqGW2ha9ueVYryARWUqnLKx1YWh7TmfY4XvxRRx9DjkUVqndHJFaNiiigUUIdxO5yR0/Ojnkcb8ZrQ0TSLrXNTt7CyjLSyuF3Y4XPevVfiJ4e8O+D/B9tpT4m1yT5y4wWUkfyonoVHU8aU5FOpM5P6UtJbCYUUUUxBRRRQAUUUUAFFFFABRRRQAUUUUAFFFFACGk74FLSHPb73pVJaBcQNx0NKOte12ejaa/wojvWsoPtRTO8LzXipGHbnvWd9SraC0UUVRIhpM4+vYUtejfCbwha63LcX+qNttLbk+/eqiriZ5xngZB96OT0wD717jeeNPAVhcyW66CJ1RseYI1Of8A61eU+LdQsNT1qS40q18i2I4UDGOazbLS0MTPGe1FHZT0APIpRzTJQdqTnj39KK6v4ZtpI8SINe2fZtufm6fjV20Jvqcoc7sdsdaWvQvi83h1r+D/AIR3ygm0E+TjbXnoqEWxaKKKYgopKWgAooooATvSA5GTwPel59BirGmKj6laofnVpFBVunWgCspJbGOPUUZ4YH7wr2P4vaPp2n+GNPks7WGCZtuTGuM144ecA9fWgBR2paaKWgBaKSloAKKKKACiiigAopKWgAooooAKKKKACkJx1opG+lACZ+7kFcnAzS55IPUV1vwutILzxnp8F7ElxA0gysgyOhq/8ZLC10/xjNDZQRwwhEIVBgdKbKjqcJRSUoqVuS9wpGOB3J9qWgdc5HHNDBK4mSRx19KUGmsQvzsGAPftTgCvBOaSY3GwtFJS1QgptKaKaASk3Y69adXtWk6Lpz/Cdb17K3a6KE+YV+bqe9JjPFM84II+opaQ8MdpLE9j2pRSQMWiiimIKKKKACiiigAooooAKKKKACiiigAooooAKKKKACiikoAWiiigApKKUdR9e9ADc5BK80hOMZBBPrXt/jHRdNtvhhDdW9lBHcGMFpFXDdu9eNaa8CX1ubkGSAON+eeM0LV2BMrkYYqxGRSA5Ge3avbPH/gbTtX8MW/iHwjHuQJmWFeuO5wPpXijAbuOg4x6VCd3YroLRRRVkhRRRQAUUUUAFFFFABRRRQAUUUUAFFFFABRRRQAUUUUAFFFFABRRRQAUUUUAFFFFABRRRQAUUUUAFFFFABRRRQAUUUUAFFFFABRRRQAUUUUAFFFFABRRRQAUUUUAFFFFABRRRQAsMnlSrIRkKc4rp/8AhJ5pZra3gCpEcBsCuWHXmrGn5F6mR34pib1Ow8f/ADWdkSflAJ/SuGH3wewrt/HuP7OsCfQ1xAyelSUzdHiKaPTvssIVD/eA5q34R1S6/tBUlld43OCGOa5mNHkdVRdzE9q7bRbKHQLJ76/IMjj5U9KoSMjxtFHFrTeUBgrnIrAqxqN497dvMx4J4qvSQ2FFFFAgooooAKKKKAHSAeXH61GCSxqR+UjpnQmgAFLSCloAKKKKACiiigAooooAKQilpDQA+Encf92mYp8I+Y/7pplABiilooGFJS0UCCkpaKAEopaKAExRS0lA7ga9H8B6V4Iu9LSXxFqBgvmbG0OVzg8V5uacn+tQMcEMCPzq47EzPqbxBYeGZvByWup3pi0njD7jk88c15vqeg/DSPT52s9VdrlUJRPNPXHHatrx4T/wqCJn4JCYP414GBliSCT65rLqV0NDR47SXVrZL59lk0gEj5/hzya9m0rwX8OdWuBb6fqEssuc4WU/4V4Xxgcbh2rv/gqD/wAJevGRjOPxrVpES0Zj/EfRbTQPEs1jYBzAihgWbJ5q38MvDtn4i1w2moiRo8EjY2D0q18ah/xXEpUfwDNXvgQceLVbPzKDx68VFPWDbCq7WsdbafC3w5Dd/ZtRuZPtE4LQRK5BAHrVay+FujWGozpr9w4heTZbKrlSQen60k13Pc/Gvy5d22MNs54AwMiofiVqUs/xM0mFmZYUmVVUH/bFLovMtr8DiPiV4VXwxrwtbTc8Ei74wTkgZrqvCvw309dKXU/Fd19mtnUMFyVIHrWx8ULdbj4kaHDIQEbbnPOfmrqPHvgWbxNFbQprEdnBEoCxlev6018I6itJHJN8PvCWt2co8L37PdoMhWctXj2radPpWozWV0pM0ZxkDFe5eE/hdL4f1mC/j1+JkjPKDjP61xPx1SFPFAeN0JYclMc/lUTumh2VjzfNFHUD07UVdiLgA3OBn0rWg8O6tcQpLBZSOjdxispQSeFJPbmu60qXxethENPiUwdsha5q1WUfhsvU7MNRhUfvJv0Oe/4RXWz0sJf0qtqGi6jYW6z3VpJHGTjJrtvP8cDpCuPotYvih/Er2QTWIwLYc8YH8qxpV6knq0duIwlKMfdjJepyZGDjNJSAgjjIFLXctTx5e69RCcLz96ui8F+FrvxTqYtbX5EXl5COAK53GQV/jPX6V7n8LQmm/D2/v41+Z1xkde4qkt5ES3RHJ4J+H+lsttrWrGO8AwQJCOfyrp/FNpp9n8MjDpMhktFUCNic5GDXzleTTXF1O8ztvL5BY5Ne7KzN8FbfAy3lDOe/BrOtfl5jZfHY8i8E22jXereV4jmMFptzuDYr1rSfAHgDWvOGkXk1yUXJ2yn/AArwMhgqgDZx0PNey/s/HFzqPp5NapXXoZR3PKNat0tNUuYIshI3Krk9gaTSbCXU9RhtYP8AWSHAqfxN/wAh6+/66t/OpPCeq/2Lr1telN4Q4I9qmD1UmXU01R6ovgDwfodvDH4p1ErdOu4lXKgfhWL4u8HeGhor6h4Y1ETJG2CCxPbNdfr2jaD8TFS50/UVhvY1+bcTjPXpXnHi7wBrfh6EykPcWHRpEfC/XGaU1pzIUFzIi+Hth4VvHnHiu9NvtGY8MVya9z0aw8NQ+C5raxuWfRySWk3nP518snIG08qOgr3bwfk/Bq7bd3bH51o3eDYQ0nYoXHh/4XYlI1hvNGSEMpzn8q8m1G3tv7ZeKwfdbNIEjJOetU5iRKw7ljzSwRySypDFlnZgFUdSe1ZRV5aBUlZanruneBfCenadDJ4n1MRzSpvAVyMVff4ceFdc0+R/Cd808yj728kA/SsXRvhLq2qWcVxqmp/Yg67QJfmwD+Nd58Pfh4fCmpSXH9sx3iMmzYgx+PWqtowS2Z8/vpr2usNZXfVJNjY4zzivYLv4R6c32G4t52gtCge48xie2eK4Txuqp8Q5GQYTeOPxr0L406re2PhfSbe3mMaTx/NjqeB3oUk6Kl1uDi/aeViK0+H/AII1nz7XRb95L1BwfMJGceleP+JdHm0PWrjT5TloyQD/AHq6L4Rzyx+NLUCRo8g5Oc5q78blU+LZXX5cA80p7xa2YaO6KHw/8DXPiuUybvJs4mxJI3TPcV3U3hD4c2cjWl5q5W8HGPMOM/lV68lOhfB+1ax/dy3cAdyvXlfvV4M8ssr7pJCzn+I1T+LlCK91M6Tx7oVroeqBNOmEtmwBVs5rV+HngR/EavdXbGGxj5aQ8AiuILtPOhldnOQOTmvpHTPDRv8A4b2um2l+lk0q5Mm3tmnBe67il8SOZj8F/D25m+xWuqMb0jC/vTjP5V5x4+8I3HhbVPIZt0DjKSY4PNeg2vwYlgukni8RQqynKnHUfnV/412kdr4I06GS5jubiCREZlxnaAayk3YuNuax4LnsBnHU0tAII+Xhe1FWtri+1YKAepPTtRQR820dOtD25iYrVmz4S05tR1iCPGQpDt9M1o/EK/8AP1NbaJv3MC7AB/eFanhCD+y9BvNSm+WRgVjJ9xXC3MzXFzJI5yXbeT71xJ+1q8y2PVinhqFurIxnvRQvK5PrRXZJWeh5UXdMDnHHWjufQUc7hSL91gfrVbSS7knvHwK0iDSPDup+K71ctAjBA3TAwc15D4v1qfX9cu9Qnk3F3IjB7LnivdZ/9B+A8f2fj7RFh8e6184AhRluSOBWd+acl2NVtfuOQb3RF4ZyAPrXr+h/DjR9P0wXfjC88lZQGjCsVwPevI7eQwzoxwQCDivdo73w/wDEPw7bWE159jvol2qjEnb/AI1rb3DNPXUx7/wZ4Kv9OuX8N6n5txChchnJ6CvIZEMchTBY9MivR/EPws1jSYWl024N7EAWZom2cfnXG+E7cy+KrCC5GA1wsbKe3NKEbtFztbQ77wl8N7EaSuq+KrryLN13KgJUgdd30rW/4V/4O1y2nTwxqJe6Rc5ZywH4V13j7wNL4kt7S3i1iOxtolAEZXrgY9awPC3wrl0LW7e9GvwkQnIjHG7680NrUVvZxTZ4lrOl3GkajNZ3alZIzgn19K6bwD4EufFEjyNKILWIjezDqPatn46Q248Sxsu1mbAZlPt7V1t9LJ4f+D8DWLANMAHdRyc0o607hJe0kraFKfwh8OrSX7Ld6oyXa8Eeaev5V5v490S00LV0h0+YT20kYkQg54Nc28rtM0jSNzwSxyaervcSIrytI33ct/dogD0PQPh/8PG1u3GoatOLbTwTkng4+tdVD4O+Hd5KLWz1Rmu2JVR5p5I/Cp/iTcyaL8N9KtbAFBdIFYjv8oNeIQXEkNxHJE5VwwO4Gm1d2Quh1HxC8GXPhS6Vid9tJyjD0rp/Anw9sPEvhea6JkW9ztQ7vlHHcVu+NpP7V+Etpe3PM64wT161b+F9xLb/AA61OeA7ZFRiD/d460R0jJvoKerjYz4PAPgvTjDZa7qR/tJgMqshGTXI/FDwKnhgwXenuZLCbAXJyRxnOa4vUby6vtQknlmaSXljJnHNez/EmUS/C3SJJW8xljXJx1+QcVE21FTNXa/KeV+EPDN34m1IW1sNi8bnIyFHqa9Pl8EeAtJ2wa1qhS8A+YCQjJp/wjjTTvBN/qMYDyOpGe/WvF9SuJbq+mknd3dnPJPTmrUteUya+0fRviC002z+GckWiyGWyVfkYnJx9a+amGGJ7GverMs3wbXc+f3fp9a8EAxgY6Vly++/I1ekF5i0Dkk5AC8n3opGO3DMcrnkVoZHW+A/BNz4v+0iC7htvJx/rBnOa9z8G+B7jQ/Dt7pr3MUslwpHmKOBxXzLBcTWxb7PLLFu67HIz+Ve6/C2eefwBqrzSSyOqHa5kORwatfC2JvVGHcfBO/Z2f8Ati0xndjaa87ttGVfF8Ok3L74vtHkuyHGfXFUrjU70TSBby5+9z+9b/GrfhFmk8V6azMTmdTknJJqKautSqjtHQ9Uv/hFanU4TayNDp+xWkeRs9uamt/h94K1WOS30bUGmvUBDESEgEe1SfHPWr6y0qxtbSUxxTAK5HXG2vKPBHiV/DWuw6jhp4yTmPON1TF8yHazRT1fSm0jXGsL47USQBn7Fc/4V6rovhb4b6hHDENTdrp8fKspBJ/KvM/GevDxHrtxqK2xhWQjKFs7aXwLn/hKtO+XI81ec+9aUk7akVdJKxu/Fjwvp/hjVoLfTBKI5Ig+ZG3ZJrhCcZwC2B0Fes/tCjOv2ZPzD7OMe1ed+FraO68QafC+PLklCvn0qKS97U2raRTR6B4O+G9q+k/2p4qn+zWZG5edpxWx/wAID4L1q1kTwxqnn3q9F3k11/jrwTN4jsrKCPVUsYYkGFI4Pyj3rn/DXwrm0DWIru38RQMFOSgXG79ap7sz+yjxXX9Jn0XVJrK64eM4zXqdj8LbLU/CumX1q8kdxKFeZnbK7e+BWZ8eY4V1+0aIKzuh3lWBya7HVNRuNN+D9hJazeW7RBOme1EWlDmZTV5pIo2ngHwJLcLp/wDaLSaiQBhZDwa8x8f+FZvCurtasfMjPzIw7g9BVHwrczjxTYzPMzzGYMT0yK9J+PHzx6O44Jxyep+UVF7W8x3Um0uhyvw/8B3HiVnurmT7Pp0fLO38X0rurfwt8OLa9jiGqMb1HG0CQ/e/KpNbc6F8IYY7InewzuXjqRmvFdLYtrNo8rlpDKvP41XwzszOLurntnx5SJfDlmkJyqsuG9a8HPK4P1r3L415/wCET0/cuD8teGjoazbftGuha2QDoKKKWtVuS9jW8LaJP4h1aOwtmAkc9SO3evVpfBHgTRlWDxBqhjuwPmAkIya85+HXiFPDniSG9uCGhXIPGNoNeoa94N0XxxO+q6JqyJNP8zB8nJ9gelVJIUTifiB4V0XTtOg1Dw9fLNbyOE2kknpVP4WeHbDxNrk1pqKybI0DYRsE84qt4x8Haz4ciCagzyWm75HHQ++K6L4CFj4qlOOka8+vNRT92Wo6itG6N1fhfoelPPdeIr7ybEnEY3EEc96i134b6FfaC+o+ErwyogJJZi3SuV+MuqXdx4uuIrmZmSNV2IvAXjuO9dN8BbiQnU7cuTHInQ8joamL51cqW55RY2M95fLbQRmR2fZgfWvXrX4deGdFsIpPF2oeTPIMhA5XFUfh7psMnxTuBgFI9xC+9dV40+Gk/iPWZbm41+KGMnIiZc7fbrVc65U+4W1Zzev/AA30fUNJa88HXRm8r5mDMW3+wryJoZBcNAVKyqxUg9znGK+kfh54EfwjdTPLrkN3DIuBHwApz1615XplhBdfFqO3BVoXuDvHbqaIwfPyBy3gbugfDjSrHRl1DxldfZY5ACo3Fdo96t3Xw88L61p87+E74vPEMkM5aut+IPgOfxRdxeXrMdnDGoCxsMjp9az/AAX8NZfDWtpepr8MyICDGBgNn8aHLfyJvyNI8BvrKeyvZbOZSZ422kY6mvTfCHw2tpdLGp+JLjyLNkyFyVIqHxzawSfFG0SMoyyzruK4x1rT+PN7NbtZ6XAGSBIlb5WwDS5tLlcnM2zo/Beh+A7bXbeXQdSM19G3CGQnn8q8/wDjrj/hOrjafl8tP/Qaz/hCxHjnTv7hcAj8DWh8c8/8JvP6bEwPwoqPYdPqedUcdMgGigZB3YyOlFtiY2u7hn72OQO9JjjOeCOtLhd2HOEJ5rurGLwYbeD7VK3nYAYZasqk1FbM3w+H55OHMTXtrAvgATrAhfn5toz2rz48ZGcV7LdRaJ/YRSViunY65NcjqcXg0WUn9nzFpscAlq4sLiuZvRnq47A8sYSi1scQeAMEMT6U7kdaTIO7AwueKB05r0oy5keJODi9Qre8HeGb3xVqa2VhwQfnkIyEHvWDXt/wZVLPwlqWpRrmQqVyOCcGriuW7ZCabSQkngjwFo6pBr2qlLvGGAkI2mup1iy0yw+GzwaLMZrNUO1854r5z1G6lur2aZ5WcmRs7uc8mvcdFDH4Mqqghihzk57ms5v3eY0hq1E8d8LeHrrxHqyWll1J5fHCj3r1STwL4G0WJbfxFqZjvAMsRIQD+FM+CUSxeH9YvwoW4g3Kp9RivJPEF7Neazd3MrsZGkPDHPFXJpSS7kK7TPS/F/wys10ZtV8MXYltFXdySxNeYaVp1zqepw2FrGXuJWKhR7da9c+Ad9NdLqVhdZltxFuAJ45Ncp4HuLfTfibFJcjEQnkAwM46040nzXfa45K0Tr/+Fe+EdAtoo/FepeVdsMna5UflWzb/AA08D3Om/wBow3M5s1Usz+aenrWR8U/Aevazrp1DSENzHMAWXcP3fHvWp4b0qTwb4D1H+2pwJbhDiFjnacdKjmurorqeNeMbXSrTV2j0KUzWfVXJzWHTp2V7iR06MScelNpR1JloIQzfKvDHoTSr85VlHy5wR3JpCMggU6KXypI2xkowYD15q1uKT0PWfDPw60uDQ49T8WXfkRSjciglSB71avfBvga/sZj4f1TdcIhIDSE5NathqmgePfDUGl3V0LbUAuAuTj/CuT174VavpFu02k3f29F6pEduB9c0qmi0CmrvU88e18rUDbyHcA+wkfzr2S6+EunzWunXNpO0MLIHuDIxOQR29Oa8aiRodTRJsiZZNrA/wn+te6fFrUrux8E6Tb2hKrcRhXYHGRtB/CmpfuvO41D975WKtp4C8C6hI9lY6g7agoxt8w8mvKPGHh258NarNaXA3hT8jDjePUVH4UvJrbxBavDIwlLjLZz3r0r47wQy6pou0FpJFw3OOuKORtk81jA+H3w9bXLSTUdVk+z6cnJY8ZFdZF4K8AajIbTTNTZrzHAMpPP5V1Vz4TbU/ANhp9rfrpqBV3Med1clY/ByW0u4riDxJCpR927b1/Wl8UuUpaxv1PNPGvhi68MatJaz/MhG5HHQg1q/DvwLN4nlaed/JsYuXc9x7V3Px5too9H0oGVJpUOwyKwycCuj8NeHmvfhfHpun3yWckoJ84r75NCXKncJaNWObXwd8OpZTZw6qxvugTzT1/KvPviB4OuPCt+oOWtJOUb2rvIvgxJHOso8UQCUHdu2cn9a0/i9YrZ/D+1iubmO5uYmVfMBGSM0nokwS1aPLfAfg+68U3pC/u7VOXkI4r0J/B/w7sZRa3+rEXi/exIQCfTpVjwp/wASf4S39zbHZJMpKtjkEivEJppLqXfMzSPnJOcEmrWk7diW/cufQvxSgtbb4dPHYSebbBBsOe3FfOnIA/vHtXvvjgZ+E8OflXyx1OfSvAgf7vT1rKF3NltJQj5nr/wC8Sm31R9Eu33WN2pG1jnBxjA/OuV+Lfh//hH/ABfdRKmyCVi8QA/hrF8F3D23inT2jOCJ0UfQkV6t+0zbqdU065JG/wAnbj8adWytJdR0deZM8QoooqiAooooAKKKKACiiigAooooAKKKKACiiigAooooAKKKKACiiigAooooAKKKKACiiigAooooAKKKKACiiigAooooAKKKKACiiigAooooAKKKKACiiigAooooAKKKKACiiigAooooARUMhCDqeK6Gx8Map5kE4hUxZB3bxXPKzIwZDhhyDWqviLV1jVY7+VUX+HjFPoTLc7HxbpF5qNtapaop8sc5YDtXBahp1xZTCG4QB2OMg5q5/wAJJq+c/bpQT6VRu7+5vJVknnkdx3IqVuW9jt/C/h5bW1F2yLNPj5QTjFUNY0bW9Su2do1KDoN4rDTX9TRAI7t0UcDFOHibWVOBfS4/CqEiHUtIvNNCtdxhVY4BDZqjVu+1O9vgFvLl5QDkBu1VKlDYUUUUxBRRRQAUUUUAOkx5cfHNRjOTUjkbEpnc4oABS0gpaACiiigAooooAKKKKACkNLSGgB8Odxx/dpmKkgHzH/dqKgB1FFFABRRRQAUUUUAFFFFACGkp1NpoOoGljbDIw7n8qKTOQfmOD/DRBjmj6Ht7JPGfwwisrOdFuQBhMg9DXmN78LPFNpbvPNZxLCqlmcTAnA9q5nRNf1TQ5C2lXLWm7+4a2Lj4h+KriCSO51q4eJgV2cYINRLclM5/StNn1S+Sysl3Tk4APAz9a9g+GfgDX9A8Srd6hbRpDsxkSA85rx/T9QurCdbmynaK4Vshx1roz8SfGBBB166GOwxWievyCaO5+Jvw81/W/E015p1vHJblBkmUDFZXwZtZrHxuLe5QI8QYNg57VzX/AAsfxcVIbWrjJ+nNY2neINWsL5r6zvZIrtyd0g6mpjpF+g5q6PTgAfjhOV5XcSDn2FV/iGSfivYnAO64Uk5/2hXnI8Qar/bDaqt5INQ/57/xe9Je65qd/qaahdXTSXqHcsxPzDvRFaR8hzla/mj1L4z3gsfHGkXanPkorZ9Pmra8W6CPHmjWuo6Nen7aijMYfbnj614jreu6lr04l1W7kupFGwNJ2FS6N4i1fRONLvpYSO6mh7FTd7HaW3wp8USTg3jfZ4P4n+0Zx+Ga47xbpv8AYmvXNn9pN0Y8DzM56ir918QfFN5E0dzrVzKhGGDYrmpJ5ZZmklcuW6s3U0qi2EmRhSo2nkjv60tIBjjrilp9Rb6B/Stu18U6xawLFBdlY16DaKxKKmUKct0VSqTpSvF2OhHjLXR/y/H/AL4FUtS1/UtSgEN7cmSMHONoFZdFQqVNbRN54qrP4pNhRRQa0S7HK3dikZ2g/e7/AEr2n4LanbX2jXejXMipuUhAfXmvFOcE/wAXarNheXNhMs9nM0Mq85Bp391xFLdHpsHwi1H+2ZJb2RI9NDbvMLDkfSu/8Vx6fB8N57TSmDQ2/wAgIPBGDXiF9498TXlq9veaxcS25428c1Rj8SavHpZ0xb6VLFuWjByCfepmr0uUtfxBPDXhzUfEd21tpcSvMibypYDj0zXt/wAIfB2s+HJb06pbxxiWPaoEgODXhWha3qWh3Jn0i6e2lI2M6dcVvH4j+Ly5xrtyQB3wM1r00I2ZseJ/hr4k+23l99lj+zb2ct5ozjPpXJ+FdF/tvWo7CWVbcuGG4kcEVfuPiH4qubdo59auZI24ZTjFc3FPLBciVHIlB3Bx61nFXfkaTV0eiXPwn8TWs22wAmjHIcTBc16FCl54d+HN9a+KbiN7iSJkiQsGIBFePRfETxZbxrHDrl0i+i4OKyda1/U9ZlD6nfTXLLx81OT9zlFB8isZ0rDfuRcKO1e6/Cp4NZ8AXWjpKqzkk7WIHU14Pk5z0HpVzTdTvNLuBNp9zLbyf7HehaRcAXxcx3GofCbxPHcTNHaxSQgkh/OA4rA8LRjSvGVtDqMal0lVWy3AORzmp3+Ivi5k2vrVwYyMbRg1zN7cy3UzT3MrSyO2ST1B9acfdkRJc0bn0L8VvDmu+JFg/wCEflWW1A+ZVkCjOeuaj+F/gufw3eNc6nf/AOlPH5f2cvu/XNeO6f468S6dbJbWWr3Edsi7VUEVA3i/xBJqCXrapcPdLwHPUD0oT3Kb2RteOGP/AAsJ3IAw4BHrzXZ/HQ/8SLQgeMpz37CvH77Ury8vft13O010x++eoq5rHiPVtZgii1S9knSEYRW6CpjHlg4+ZpzfvLeRt/CIE+OLPoCFbnPWtD43ZPiyRgBwDxnrXD6ZqF3pdzHdWEpiuF4DL1FSavqt9rVx9p1SdrmZTgM5oeqiuzMl7rkz2zwRc2HjDwGNDu51guY12x5PI4wK4y7+EHiOO7aO2ijkg7SmQDj1xXAWN7c2FwLi2laKYH5XU8iujHxF8WKnlDXbvYRjGBVNe/zhGV4Iq+LvDzeG71LczrJLgFkGOD9a9V8IzW3jT4ff2J9s8i+i6knB9QBXiOoXtzqN2bm9mM0h6ux5pbHULmwulks7mWGVfustJO6bHa8kd9N8KvFoutsS5izgP9p6j161leOPCNx4YtIjc3vnyyY3R784/Wof+Fi+LAMf2zceX028c1z2pald6pcmXULiSaRupbtUyXugn75UyCAM+9FGRnaB8o6H1oqt0kJ6NsM46DNWLC3FzdwwqSxdhwB0qvkjpXV+AobZL17u4ljRI1OAxA5qakuWHKdFCHPOMTQ8cXSWWlWmlQHooZvwrhBxwOlafiS9OoaxPNnKbiF+lZlY4aHJG7NsdW9pU5V00DvS0UV07nClYSg/x8dP5UjDIwOtKGIPv0NJPm+QpaK3c+jPB8qeKfgrfWcfzT2sbKi9wQtfO00bW8zRyfK0bbX464r0X4KeL08N679mvH/4l918jgngEnrVr4z+CP7J1I6vpaedpV3+93KOFY8k1m/cm59zSOsbHmVpALq4SFm2bmAzXo998KNdj8uXR3S7jZQeJQnUV5oHbI+dl28jFdHp3jrxJp8Pl2WrXESDjHFar4DNrW57F8PNI1rwpp91/wAJRcJHaBTiMyBs8V41qmqQx+NZdRtB+7S681APQVFq3izXtYh8nVNSmmBPc9qwzkcZyBxmhStJFyV0fQXizRF8faBbXukXm2+8lQ0avjt061w1r8KfFTXEaXh8mEf8tPtGf0zXF6N4h1TRm8zSb2W2bodtatx8QfFc8Zim1u4mR+u7AxScd2JO8feKPi3STomsS2S3RufKx85OeTXrngm403xf4FXQbqdUuYRj5u57GvC5pJLmV5ZZC0h5JPepNPv7iwlFxZSvBOD1X+dEP4QTlaS5Tv7v4Q+Io71lt4o5bcHashkAyPXFc14y8Ot4YvYbSSdZZTGJHYY+XP8ADxVkfEXxZgIdbuig+6OMfSucv7251C5e4vpWnlY8lj3pLQGe92MVn8QvAttp63CLewLtjyQMEACuI034Ra3/AGkBfKkNorcybweAfSuA0vU77SpzNYXT27npsPSty4+Iniu4iMUmtXLRkY28Yqr21Fa6sd18XtasbDRLfw5pzLIiAbmU9xWp8Ojj4Yatk/N5bE+/y14ZNM80rPIxLPyz5zmtWx8T61p+nyafaahNFZyDDRLjDCk+q7hNcvKY8v8ArCMZVuTXufxBYr8LNHbIJVFx7/IOK8LGWJZjk+p71r3niXWb7T4rC4v5DZRcLEcY6Ypys48j6FP41I9P+CGqQXWnX2jXDqhdflDHHJNZ5+EWpjXZWupI0sA+8yFhyOteYWV7NZXMc9vIySqchxW9eeO/E93Zm1utWnmhIxsYjkUOzlzIm/u8p7h4ii0+2+HdzZ6WwMUAxx06etfNR65PGfSteLxNrEenNp0d/Mtk4y8XY1Xg0TVJolkg065MTDKlIyQRWag1OUn1He8UuxQ49TQPUHp7Vqf2DrP/AEDbz/vyaP7B1hSv/EuvSW4x5JqwMrqcjgete7/ChR/wrzVwhyBGc547GvEby1urObybqF4m/uuMVo6d4m1nTbN7OwvZILaQYdFPFOL91olrVGVcf61gP735VqeETjxTpeThlnUisgsXZi53H1Pen2lzLaXMc9u7Rzodysvaik+o6mkT2L9oD/V6U2B0GRn/AGa8ZOK1db8Q6rrflDVrx7lY/u7u1ZWKzprl0LbvYkhha5mjiQZd2CqPc16d4S+GniWx1qzu7m0jWBXViwlBOPpXmMErwyLJGxV0IZWHYiupX4jeLYwMa5dAYwOlbp2SM5as9Q+L3gjW/EurW02jwJKscIU7pAuD+NeNXdje+GNdjhvUWO4hw5CtnHvmtYfEjxl0/tudnByCxArm9V1C81W7a4vp2mnYfM7dTWcPiKm7xPd/EekJ8QfD1ld6Le7bqBACgfaWIAHrXD2vwq8VPcos/wC6txnMv2jOB9M1xOja/qmivv0u9ktm9UPArWn+IXiqZTC+t3ToRyDgCqXxMT+FFPxbo39ias1p9rN2V/jJ6e1eteJyB8G9OHByqjH4V4ZczTXEzyznzHY5JY85rUm8T6zc6VHps+oStZIPliOMCs370eXzLvyyTGeF+PEFgO4lBFemfHxxjRiBkhV4/wCACvIraeWCZJYHKTI2UYdj61o614i1XXkiTVL2W5EPC7+g4xScb8vkTFcspPue0+HI4vGfw2/ssTqt8gOBxzzxXO+FfhhLp159s8TulvBbvuCbgd3cGvM9G1jUdDlMul3T20g/iQ1f1jxjr+sQouo6rcXESnIR8Dmrqe9LmIiuVWPVfjrNDL4aspbQ7rd2XYfavCypAOMHArYvde1jVraCyurqS4iTAjj64qIeHtWZeNNu9zHr5R6UuX3my09EZgGcDODSjJcrj8a1G8P6w2AdKusjv5Rpp8P6zkt/Zt0EHU+WaEyVqaHgrw0viS+Ns12IJAPlyBzXTD4W+LbW6Js1VgjfK/ngZH0rgLe5utKvEkheWCaPtjBBrox8RPFoUr/bVwE/hAIqr3Hser+M7waT8O/sGuTpNqLR7QOCVOPauI+AXHimTccbkAz+Nefatq1/q03m6lcvcP1yx716F8BPm8VTM3IES4X3zRSjyy94VSV4mv4/+G/iDVfFFzeaZbxywOFB3SBcVseHtMtPhx4YvZdRnT7fOuAoIODXK/EXxx4j0zxRc21lqk8NugB8tcY5rzzV9c1DWZVk1W8mnI7t1rNO6900ktTpPAXiQaf42F9dNt81iGb2JrvvHXgC+129/tTwzcC4jn+Yp523BP414YCxPB57Gt7SvF2vaZF5WnalNAo64PatNHFIlS1Z2Vh8LNfAkk1i5+wRKM5E+/P61xei339h+K4Jw5mFrMcue45FWNR8beI9ThaLUNTlkgIxgkdK5zJBZsZPXB71MW+fmBO8LI998ceE38a2VvqegXu64ZRvjEm3sPeuNsvhX4kecf2jK1rbr/y0E+7H61xejeJtY0Mf8Sy+mhY/3T0rSu/iB4ouojDda1cyxsMFDjBq7pJ+ZUbRtzFa5jHh7xdGhuDcfZpxukzncBXsPj3w0/jjRrG/0No5p1Qbl3gYGOleAM7uxaRjvY5PfFbOj+K9c0GPy9K1Ca2jzuxHzk1OnIoicrz02PYvh54Ls/Cd/b3mu3Ci9kbEMIwSrevFcL8cufG87A5BRMH8K5W58T63dalFqNzqcz3aNmOTjINVNX1a/wBZu2utUuGuJyAN7HnA6Uqn2Qh9opHpTSP0paKH0sSutw75pCCQQMe3NLSYTqy5NNQ5lqytINRR6HezRt4BWESr5vORn6V57uJ7Yoyx4LHy/wC7mkXGOBgVjh6MIpt9zeviXUSsthTyQaCc0UVvdLY5k2wr2X4G6rbS2l7o17KsQdf3efUmvGqms7qWxu1urR2juI+QRS3Vh/aTPUJPhFqja65unji0zeXM4cHIJz0r0DWodNsPh5c2WlOGit128cg/jXh9z478T3FoYLjWbox4wE4xiqFv4m1i106TT4L+dbV+sQ+6amelLkHTfvqR3/wT1y2tbm50m9dUiusn5jgelO8WfCjVZdVluNHEdxayOSPnAxXlSO8cqyJzIOQc4wa6az8feKrSERWuszwxgYwpHA9q00k15Ep2TZ6voWm2nw08M3Vzfzo1/Mn3ARnPXFcB8JZrO78dC5vGxLJIxiBHU81x2r61qGtT+dqd1LcSD+J+9d/8CNLs9Q8RTS3gWSa3AMSsccnPSlFyUtQk7xO58S6d8Q49YuX0G7QWbY2KWTkY964Xxd4V8e38X2jXx5yoMjY44H0FanjvWPHVn4huFsJL2O3UgRrAu5cY9cV0fwrvvF95eyt4hnlew2kuJ+OfypO1tC47nz5LG8LtHKrKwPIIpnHqa7n4hWEuoeKb59GtZ5oVkIYxRkrn6iub/sDWf+gbef8Afo1MBT3MteWAB57VLaqHnjUnh2C59MnFXxoGrnhtMvOejeUeKrXem3tgFN5a3Fso+6WQjNUiWrnoN38JdZWGOTRp1u1YZyHCV2/w00LXfC32iXxJMkNjsP7ppA2TXj2meN/EmmWqQWGsXUIXoFxTNX8Ya9rCbNR1S4nXvuolqOLsP8TXEF34xuJbXiJpzjA7Zr2r4geGb/xL4K0qDSUEskaBiGbb1UV892W77bDhsMWHI71758S9f1PQvCmhS6ReSWzSKFcrjnCirbSpfMIXdX5HOeCvhdqGnaql94kMNrb2/wAw/eK2a534t+JItb8Rolm2YLXhTWBqXjPxBqkBh1LVLiaM9AawCWIyxyfrzUczvoFl1PetIS38eeALawgvTDqNqACM4Jx261xZ+Ffi03TxlMQg5En2nr79a4TTNUvdLn+0WN3JA2Mbk6j2roP+FieLDFsOtXAjx93jmiSvK8Q+zYPHHhd/DTQJPfG5lOCY92dpx9a9G8CXFt4u8ASaFPd/Z71M45wTzxXi2o391qM7XF7M8078bmos7240+8E1nK0cqYKle30opvli+YJ7o9AuvhX4rS4Jtl86AnG43GMD86y/G3g2fwzYQtdaiZpm6w7s7f1qt/wsbxaI2jTXbvA7YGKwdV1S/wBXnEuoXDTv/eY0N3SGt2ey/C27g17wXfaJPIkc7AqhJ6jFYelfCS9t9XaXWnjh0+M53bwdwrzLTNRu9MufNsZ3hlXuvStjUfHHiLULU2+oatcTQEYMZxgj0p7SuTa8bHsnxPNn/wAK2ZLEgQoNikc5wQK+eXxuGT0/WteTxDqr6Umly38xsck+V1HNZUKPNIsaqWkY4AHepirX82OTul5HW/CzRpNb8Y2EUaErGwk+oBBrrv2jNUjvPFMFtC+4W8exh6HNdP4I0m2+G/hO41/V2CalcJ+5jPVSRjivCtd1SbWdWuNQuSfNnYu2fWonq1HsXDROXcpUUUVoZhRRRQAUUUUAFFFFABRRRQAUUUUAFFFFABRRRQAUUUUAFFFFABRRRQAUUUUAFFFFABRRRQAUUUUAFFFFABRRRQAUUUUAFFFFABRRRQAUUUUAFFFFABRRRQAUUUUAFFFFABRRRQAmKMcYpaSgQdBiiiigYYooooYBjmlpKWkAUUUUwCiiigAooooAdJjy4+OajGcnmpHI2JTCOTQAClpB0paACiiigAooooAKKKKACkNLSHPagB8IBYndj5aj71JDt3HJ521H39qAHUUUUAFFFFABRRRQAUUUUAFJilpKADFN9hz7mnU1s7Ao4JNAXDAHXrSgAZUHJ61Zs7O4vbpYLOMyyHsBmt1fAvidvmj0e44HJ20rjRzODuXbzleaXFS3lpLZXEkF1FJFPG21lNRUXBhSEetKabnJo30E3oKxAGSM0ejEEH0q3pun3epXS22nwNPcNyEUZOKfq2kX2kXXk6pbywydQDxTT5QSuij7EEE880AY6UA7iSc5BxzS0XBaaCdqCAQAeaWii9xhRiiigXmGKMUUUAIfbr70ZzyuCOhp8Ss8gWNd8jEBVHetHVdB1TSRGdSs3t1kG5SwxmlLRL1HFasy6KBzyetFU9iUtg759KCM0UUcttblSjy9QAxR2PvRRS1FzJigcUEZGDRS0AJj5cdqQjjHaloNCC4g46cUCiijRuzG1Jq4Hrk9aXNJRTlGK1uC2FHHSgDBJHU0tFIQ0qDjjp0pe9LRQA0KAMUtLRQHmIBjOO9GMjB6UtFACEZI9qXJ9aKKAG7RjHal7Y7UtFACY5oxwR2PWlooATHygdhRilooAQUmOCOx606ik1fcabTuhAOAOwoxS0Uw3dxMUYpaKBCY5yOtGKWigBvGR9eTXWXHjrV7jw2ugzy+Zagn5yf4ewrkz6YznqKRQpGw7lGepoeu4Cjnpxg0pG7rzQM96WgBDz1pAoAOO9OooGIBSY4I7U6igQmOnt0oPPWlooATHy47ZzRjknuaWigBAMUKNuccZpaKAGhQF29vSl9B6UtFAPXcaVBpSM9fpS0UAJ/CB2HQUnfvTqbyx2joe9AB82DyAQcjPevSNE+Ler6RpdtZQ2VqUiQKCwPNebEqQoIJHqKXPJ54HTNFxo9W/wCF3a3/AM+Nl+Ro/wCF3a6GRlsrE4PIwa8pz7igHGemT3oA3fF3iW48Tap9ru4kjb0j6Vh9eoP40ZIG0/nR+OfegGGKAMUtFC0FuJjgjtRilooATFBGcZpaKAEIycn0xRjnPtilooAbj5QvYHOKdk0UUANxRgYx2p1FACYo7Edj1paKBjcUtLRQImsLt9PvYLuFVZ43BAavTIvjTrSEKLGzKouASDXlZPPUfSj5cEHIY0AerD4264BzYWmD6g0yT416y0TwtY2gDjrg15Zycb24HSlB+c5Bx60AXNWv5dT1Ca7nVVklOSF6VTxznvSLjHHSnUANBw3HPrW/4O8TXXhXUvtllFHK56h6wD7fKT60cYw2c+oouBp+I9Yl17VpL+5jEbP1Ud6zFOUJH3uwoIyMk5I7UE7/AJsbcUkrbDuLjNIRnrSilpiGlQc578UuOc/hS0UAJjmjFLRQD1EIoHAwOKWigFoNxyD3FAHNOooATFGKWigBMUYpaKAExRilopWGJijFLRTATFGMdKWigQnYDsKUZHQ0UUAJ6+9GMge3NLRQAh+tXdH1W80m8W6sLjynU9jjNUj7UEA9h+FAHqFr8addhgWMWttIFGNzZzWb4g+Keu6vZvbfu7VX43Qkg49K4AgDhCcdwKReAAOBjBLUAdx4S+I+qeGbR4LaC3nDtuLSZJNb/wDwu7W/+fGy/I15QoCgAYPv2pc+4oA9Vf42640bAWVjk9jnmuc8b+P7/wAWQQR3lvBF5eceXXG5AOTg4oDEZJwQaAHZ54yPrSdiO1A+uaWgBYWMThkHzLyPrXVeKfG194j0qysLu3ijithgMucnjFcn0OeuO1IM88k5oAXOaMc570D65paAExzQRk5PWlooWmoCY6+9GOntS0UAIOM479aTaPSnUUAJjIx2oI4A7ClooASpbSd7a6injOHjYMCfao6a2COQT9KAOj8ZeMdU8VTK2pNtijGEjB4rnSQdmCScflQeZAwBYjt6UgwM4OcnP0pWH5DqKKKYgooooAKKKKACiiigAooooAKKKKACiiigAooooAKKKKACiiigAooooAKKKKACiiigAooooAKKKKACiiigAooooAKKKKACiiigAooooAKKKKACiiigAooooAKKKKACiiigAooooAWNGkkVUGWJwBXV2PhRIo0m1C4VFf8Ag71yaO0bBkbaw5B9KvwX9xc3sKTszqCOc4oJT1Nnxho1jpcNu9nuO/OSTmuVJYYx0rufHvNhYgdMH+VcMMnO7oaOpbOp0jSdLWyFxqNwFVyD1NaCaFoWoKy6bMWlA/vGuS06xu9Sk8q0BlKDGwtiuo0DRLnRpHu74GMAZ2g7v5U5bCOV1Gzksbt4JD92q9X9evVvtSklQfJ0BNUKlAFFFFMAooooAKKKKAHSH93GKjAyTUjn5Eph6nFAAKWkHSloAKKKKACiiigAooooAKQ0tIaAJIMZP+6ai71JD94/7tMoAWiiigAooooAKKKKACiiigBDRQaSkxoKTlmG35WPXPNOrvvATeB1s5P+ErLLN2IDH+VWloRfU7H4T2dppHg2716SFZJSOCwzg81zF18XvExnla2aGOAn5UMYJIr2DSD4W/4Q6T7ApOgkcn5v/wBdeeXB+EflyNGjmdUYJ/rOv/66z3ZoeSapf3OqX015df8AHzO+9gBVYo6uAytz04PFb/h5bZ/G1kIPmgN0u1SOq5Fe7+MdK8PaTfHW9VEZCR/u4QuPmzntVqIj5pMUmCRG4XsSp5po6ggYQ9a+iPC3i7RfHL3GlS6ZDbxBcIRjL/pxXivifTV8O+KJ7eKLcscgYKT1Gc1N7TSHy3iW/AHiKTwtrKXptHnjwQU2c8+9WfiR4t/4SzVYpks2tBGhG1+S3Oa9F8JfE611XU7bTG8PQISNok3A/wBK5j4/xRw+I7MRwpF+5IO0Ac7qKu5MHY8vUnoq8Ht3pVQsMRglvQAmpbK2e7u4rdOZJGCj3r3OKPQvhv4egury1S61OZQQjd/ar5dLg9zwja2QCj7j/CVIph+Xg177ovjLQ/HUzaRqelxWs8o/dle/HqBXk/jDQW8O+Jmsk/1XmDBPpmpS1CWxznlttClWPfGCMfjSlG5Yq5boBsPNfS8ekaHP4H0y412ONbaBFkBAwdwJIGRyaxNF+Jei6lra6R/ZMEdo7eTFPgEsD04xxQ9HYcdjwFidp3KQw5x6+1ChuCWG4/wgV3/xh8O2+ieI2+wLsgmXfj3JrpfAPhfSNH8OnxL4kjDGMZiQ9vf3zTQ7HlWkQyDUbZvJkDLKnG0/3hXr/wAfsCy0s5+9HkcdOafa/FzTn1GK0h8PQrE7hRJvGevXGKX9oOXfbaeyNgFOmOnNKpol6hT3Z4b9eTRR+tFC1TE1awD5R83y57mk6HaHBz7U4feIAzgV0nhnwymtQNLJqCWxHYqDUVJ04I0o0HWdkjmc4oFegn4fQlv+QxH/AN8j/GoNR8DRWtpLMurRuY0LbQo5x261hHGUr2OyWW4iKukrepw4oJxQOlBx3rqPOE960NE0qbWNQjtbf771nkgjAq1pt/dabcLPaNtlAIB9qipdxfLuVG19T1LRvhzpcNyLfWLkSzMMhEJBFcL460q10fW3trNWWMZxk571tfC+8nvPGvnXEzOTGxOe3Sq/xYOfFDkNuBBPTHevKp+1WI5Zs9WUYuldHF0opDRXsPl5V3PISeo6iiigAooooAKKKKACiiigAooooAKKKKACiiigAooooAKKKKACiiigAooooAKKKKAEoIpaKAEpaKKACiiigAooooAKKKKACiiigAooooAKKKKACiiigApKWigBMUYpaSgAxRiiigYYoFFFAC0UUUCCiiigAooooAKKKKACiiigAooooAKKKKACiiigBMUYpaKAExRS0UAJS0UUAJRilooATFGKWigAooooAKKKKACiiigAooooAKKKKACiiigAooooAKKKKACiiigAooooAKKKKACiiigApKWigBMUUtFACYoxS0UAJijFLRQAmKWiigBMUtFFACYpaKKACiiigAooooAKKKKACiiigAooooAQcGjFLRQAUUUUAFFFFABRRRQAUUUUAFFFFABRRRQAUUUUAFFFFABRRRQAUUUUAFFFFABRRRQAUUUUAFFFFABRRRQAUUUUAFFFFABRRRQAUUUUAFFFFABRRRQAUUUUAFFFFABRRRQAUUUUAFFFFACN0qew/wCPyIk55qOJQ8qqxwCeTXYWPh/SE8q4/tECTglSwxQBJ49IGnWBAyCD147VwwGOMkH6V6ZrlrperQwRT6iqiPptYVw+vWVvZ3hjtLjzY/7wIpdSuhWsdQubB/Mt5DG5HDDrW/onia+N7HHeyNOJDggin6d4f0q4sopZ9R2SY5XIq5DbaNorfakuftDjovBq29CFuZnjSygt7xZYFCiQZIFc5V/W9ROpXhmwQnYGqFQimFFFFMQUUUUAFFFFADpD+7jFRgfMc1I5+SPimHqeaAAUtIOlLQAUUUUAFFFFABRRRQAUhpaSgCSA/Mf901F3p8P3jj+7TRQAtFFFABRRRQAUUUUAFFFFACHpSClNFPowEpR1pKUdaIaJCe5714S/5I1J9D/M14M332+te2eF9WsIfhK9rLeQLcYP7suA3U9q8Sb7zfWs0rVGzSeqRs+C/wDkaNM/6+E/nXo/7QTt/adqpY7Ng4/GvNfCMqQ+I9OkmYJGs6EsTgAZrvfjrqNlf6latZXMVwgQAmNg2K0rak0zznR9WvtIuVn0yYwypyGHao9V1K51O8kvL6VpbiT7zYqowHb7vcVd0i3hutTjguJjDA5ALDtUpXBy6G98Mcnxjad/TPHpXU/tCf8AIzWinqYSf/Hq6fw74M8I6PqMN6niRJJIx9xpFxzWl420Hwt4t1CG4uvEMMXlIVG2Reec1UnoTFXZ4h4GI/4SzSzIFx5yg89Oa968f3vgq3uYf+EntnkcKCpCMw/SvBNdt7fQvEMi6VOLiKGTKS564+leuWGueGfG+iQWmvOltdxIAJTgc+uTSk7wSLjpNshsPEfww068S6sbJ47iPlJBG2R+tcP8S/EOneI/EUNzpTu0W4fMy7SORXZxeBfBWmN9pl11LpU58oupBry/xTLpr+JZm0aPyrIuu1cYAxUz+KIo/DI9a+IJb/hUGmkjB3R5IPXk15D4P/5GfTP+vhP516l471Swn+FOnWsN5BJcKUzGrgsOT2ryrwpIkPiPTpJWCIs6ksTwBmtJv94TH+GkejfHb/kMWXPBRQw9q2PiMr/8Kz0/7MP3ewbiD7Cub+Nuo2l7qVs1lcRTgRqCUbNb/gLxJo2v+Fv7B1+ZYQowHcgDH41nNXv6msX7qXkeQaFDLLrNmsSeaxkU/LzjkV678fgTYaYoYhhGCQRx1qa0h8HeBG+1WdzHfXLsAu0htuTjtWZ8bNYtNZsNO+zz28jqmWEb5xzmnVfupeZNLQ8f60UZ3cjv60U0t2Ju7BSCDgZYV03hfQLXVYDJc6h9mI7DFc0Mht3Qe1J93IUnBrOpTlJdjajOMHdq56D/AMIRp+f+Q5+o/wAagv8AwhY29pNKms72RCwXI5x261wucH/69DEGuZYSd78/4Hc8fQ5eX2f4ijoKKKWu08tiUhJHQA/WnVq+GLC01LWIrbUJxb27AkyE4xUznyRcn0CMXJ8qN34SY/4S9VLMMwueBTfitj/hJmIY8KT0967jwzoXh7w9qIvLbXElfaV2yOoHNJ4n0Dw7rmoG7m1xI3x91HXFeG8VGpieaz2PZVCcKNro8VOAR8zHPPSlxg5wPzqxfxJb6hcQ28hliSQqrHuKrj9a9zmjKMbHitSTdx1FFFUAUUUUAFFFFABRRRQAUUUUAFFFFABRRRQAUUUUAFFFFABRRRQAUUUUAFFFFABRRRQAUUUUAFFFFABRRRQAUUUUAFFFFABRRRQAUUUUAFFFFABRRRQAUUUUAFFFFABRRRQAUUUUAFFFFABRRRQAUUUUAFFFFABRRRQAUUUUAFFFFABRRRQAUUUUAFFFFABRRRQAUUUUAFFFFABRRRQAUUUUAFFFFABRRRQAUUUUAFFFFABRRRQAUUUUAFFFFABRRRQAUUUUAFFFFABRRRQAUUUUAFFFFABRRRQAUUUUAFFFFABRRRQAUUUUAFFFFABRRRQAUUUUAFFFFABRRRQAUUUUAFFFFABRRRQAUUUUAFFFFABRRRQAUUUUAFFFFABRRRQAUUUUAFFFFABRRRQAUUUUAFFFFABRRRQAUUUUAFFFFABRRRQAUUUUAFFFFABRRRQAUUUUAFFFFABRRRQAUUUUAFJRRmgANFBOOKKBhRRmgnGM96BBS0gOelLQMKKKKBBRRRQAUUUUAOmx5cXJzTOc8Y/GnykmOIAioyMtyD+FACj3paQdKWgAooooAKKKKACiiigApDS01qAJIDtLf7ppgoBw34YpB2o3AdRTQwOcdqWgBaKQHIyKM8A9jQAtFIeMZoJxQAtFIeOtGaAA0UUds0PYOolFAIIyOlFEtEhzCignFB6A9qHvce6Cig9aO+Ke4o7BS0nb60E0k7E2uLRRzQDmh6j2Eoo4NB4ojvYJbXCilHJAFBGDzSerGtEJRRmiq31EuwUUUUvtBrsFFFFKSuOOgUUUUN2RK3Ciiin73Vj94KKKQHJPtRYer0sOFLSZ6e9GD6UCFpDRnjPajOaXQGu4lFFB460OKacmPmaVkFFJkce9KeOtC5ewk5DqKaCCDilHQHsaYC0U3NLnNAC0UmeKM8E9hQAtFJ60Kd3TmgBaKbnr7UFgOtAeQ6ikzQeKAFopoYE4FBIFHkA6ikzRmgBaKTNGaBi0UmaM0riFopM0ZpjFopM0ZoELRSZoz82O9AeQtFJmgHkjuKAFopO+O9Gf0OKAFopM/MF7mgHk+1AC0UgORxQDlsd6AFopu4UpOOtAC0UgORkdKM8UALRTQQaWgBaKbnnFLnFAC0U3cKdQAUUlA5OB160ALRTc/wCFKeOtAC0UnOaBz07UbgLRTScDmgMCMigB1FGDikoAWikBzRnFAC0Ug5OB1ozzjvQAtFBBHWkz096AFopAckjuKAcmgBaKbuGcUpyASe1AC0UnbNFAC0UnbPajPFAC0UhOBk0A0ALRSUDkZFAC0UnbNAOaAFopM8ZoJx1oAWikJxRQAtFIDk4ozwfagBaKTNBOMe/ShagLRSdKKAFopM0ZoDcWikzxmkDClewbjqKTPGaKYC0UmaM9aAFopO2e1JuFADqKSjNAC0U0MDS9s0ALRSZozQAtFIOaKAFoppYAZNL0FAC0UmaOaAFopu4ZI70pyOooAWikzSFgOtAbDqKQGloGFFFFAgopCcEA96KAFopBzRnmgYtFITjrQTigQtFNLAYz36UuecUALRSdwO9GeSO460ALRSZpCcdaAHUUgOce9GaAFopuRS5oAWikzR2z2oAWikJxQDQAtFFIDQAtFIDk470A5OBQAtFJmkJxjPegB1FByDyKQnnHegBaKaSB1pRyMigBaKQHOcUA56UALRSA56UZ5oAWikzzikByDjt1oAdRTQckY79KUnHWjyDpcWikJwuT0ozwD60eQbi0UmaM0ALRSA56dqQtjrQMdRSfwk9hR6e/SgQtFIeOtA5oAWikJwcd6M0ALRTS2KWgBaKbkUueKAFopOcZ7UmRtJ7CgY6ikBznHNHbNAthaKbuGM0bhQA6ikzzRmgBaKSloAQHBzjPtU9nY3F45SCBmJ6DOKjgZFmQyruQHketdeniWCMwQ6dAqDgGn0Jluc1qGk3mnqhu4vK3dBnOapV3HxAObOyYjLNkk1w+eR71KLkHPatK00HUr23MsFqWXqDuHSjQNPbUb9YgCEXljjjFehabeQm4ks7YDZEhBOapko8sljaKYxuNrrwR70VZ1b5dRuQOR5hOaq54zUopi0U0HNOpiCiiigAooooAc+AiUwnk0+THlx+tMGQTQADpS0gpaACiiigAooooAKKKKACkPWlpDQhoSgdRxRnJrs/BXgHUPEqG5JFvYqcNKxA/Q0o+6riXxmH4RsoNQ8QWdpefNbzPhscV1Xxa8N6b4ZvLNdKt2WOQHdl85ruPD3wp0/SdZtruDxBHO6Hd5WE6/nWH+0CuNRsVJyACKU9HEUPtHlFnEj3tvC7bFZwGHtmvX/FfgjwrYeEFvrOUC8IB278561geBvh7Y+I9KW9uNdSxlP8AAQpP6mtDxj8Ml0Lw+9/Frst0gIwNgwf1qp/w2XD40eUDOCSeOwoHzcZx7UYyASORW34W8O33iTUFtbHg9WbjgU0K5irg8befrSb9hOWwT7V7MvwbsjAPtHiOOOcdUITg/nXB+PPCUvhW+hiM63FvNkxyDHOPpUvccTmYITNcJGOXJC5+tdb4p8EzeHtAs9UmvA4nZR5ezGM9s10vgn4b2Gq6dZ6rNr6QTMysYSF65+teoeN/B1tr2hWlhcaqlpFBjEhC/MR9TTqOyRENZM+WyDvLAYDDj603p0X8a9W8S/C7T9I0i4vU8RR3kkSblQBB/I151oek3GtavBp9lgPMcAk4oirotsz87ejjPpig8ZJXaO3Oa9ktPg3Z+V/pviGOCcfeTCHH61z3jX4YXOgWAvrK4+3WakAuMD9BSlohR+Kx55yVyeRSnlQBwK2/B2hL4h15bF5TAG7gbse9d5H8H7n+1ZYrm+EWnrwLhgo5+lXJctmJdUeTqpJKjhR+tAOeMc16xr3whNppLXOk6mL94iSQAoGPqK8pZWiZlI+YNtI96jeVh7K4zHcHmg4B+6frmu/8FfDS/wDEMAublhaWZGfNYjI/A10t18HbNbMmy8RRzXGMiPCf41V/sg9rnjZOfl6+1H+4cfWrWpWj2F7c2krb5IHKEjuRXd+DPhjd69Zrd6hcrYWrdHbH9aLWVwPO+McncfbjFIoXOFzk+tevar8HVSzkfR9YW+lUZCAKP5GvJ7y3lt7hoLgGOWI4YEVMnyhYjJ5x3FJSn7x4pKYIKKKmW2nZQywSkHoQhNRKXKOMJzehDRU5tLkf8u83/fB/wpskE0YzJFIg9WUilGpFlyoVI6siooorR2Mn5hRQK0/D+iXuvX62mnRb5CecnAH40kuZtjvqjMUbmygye4zivWh4N0b/AIVlDrKwt9vZAT8x4ODVqD4M2rQ51DxBHbXIxlCE/wAa7DxPpKaH8M/sFvOJ1jTAlGMHg0T92LYQ/iHzWPmcKD823cTjvXrPwt8IeHNd0Ca61lh56swz5m3AHfFcN4I0CDxHqrWNzfCzTZkzEDr+NenQfBm0YMbXxO0mxekaqf5GrWqYnuvU8i1+0t7HVrm2s33QKxCv14zWcSAeuD3PrVvV7X7JqNxbtKZzE5UORjoais7aW6uVht1LSykKF9TWcPhLqfEyHOWxjI9aOBk5x+tet6Z8HA9gH1nWUsLjr5ZCn+ZrJ8Z/DY6FpgvbDUEvosYYgqOPwNU9EQjzrA5DfPuHy44rs9E8CXGo+Ep9dF0sMcWQFK7s4pfh74OtvFDz/a9WWwESZGQpyfxNe5aJ4StrDwPNo6aostuxJM2FwM/jT+w2EVeVj5afiY/xHpxxSEAcjkjt6V7Rc/B/SwJJB4qjwMtt2p/jXkmrWAs9WksbeQTFZAiuOjVENSp6FLPGchTR6F24+leraD8I/tljFPrGqxWO8AqNyH+Zqzqfwd8q1lm0jVl1CZRgJhQPzBpy0COuh5Bu+bDOCvbikOcEHqelW47GT+0DZXBMcgkKOcZxzXplz8IbsS2TWF4ZoZV3Su6hNgx+tVbmhzkJ2lynlI2uxKDD9zmk+8M54HevZpfgrbvbObPXlmmQZEaqvJ9ODXk2sadcaXfz2N2myeNsMuePzqOyLWruUx0+Toe9C7jna4JHbFdD4R8KX/im7WKyi/cx/fcnAFejH4NWAH7/AMRxxSgZ8vanX061Uv5SY6zueMDHVhlqT6DBroPGnhyTw1q32SSRZUxkOCMEfhVnwT4OvvFFw3kL5dqhw0pOAPzohvccviucwxIA3uBn2pMsp5GR617NJ8GLFVYQ+IklnxxEAnJ9OteZ+KfDl74b1L7HeJtBXcD1BFF/euKxi8L179KKBySCMjtRS6gFFFGenvTC99gooPWjPAPqcUX8h8rSu2gooPWjvRYSvLRBRQOtB4XPamtmhNOL1LFhZzaheQ2tuheSVgqKP71en+Lvh9pnhXwPBPqdyP7alYsi9+RwuK1PgH4etY7W+8VaooNtZAhQR0Iwc1538RPEtx4n8Tz3k7l0VikIzwEB44qJu65excVZuXc5fbhSD07V0Hgvw7P4n1mKzX5Yv42qnoGh32v3q2mnRrJMTwpcCvbPhN4G1rw3dXMurwRxu4wgWQN29q0M73KN34Z+HPh/ba65OxugPmYM3X8K86+IEXheG8t18KM00TIN2Sev411Xiv4Z+KNQ8QXt7BZRSxyP+7LTgcV574i0K/8AD98tnqihJiNxVWDAfjWe6RpbVlrwTp9nqfiO0s9TlEcUrhSv/wBeuw+LvhbRPDsNkdEYbmY+YA+7tWhofwm0/UNLs7oeJkt5Z1DGMBCVJHTrmud+JvgkeEvsm3UJLwTHB3DHaqbtoKD3ODJ55+6elIVx8rr+OaP4cgY9BXoNl8N5L7wpBq1lcvJdykARbOBn3pKNtRdTz8ZJOB8tGSMbWGc8givX9L+Daz20J1bWks7tgP3OFOf1rhvHfhC68K6j5NxmSBx8j+tMDmSDux0JpCRu2lvm+ldV4I8HX3iq7ItwIbaMAvKSOB+Nd/8A8Kb08I4PiaJ5CP8AV4Tr6daEDPFyfmwWAX6Va0iwbUdSt7OJtrTOEDdcZrS8Q+HZ9D1n+zLqUEbgN4weK9T8H/DPTobjT9SXX42kUq/kgLyc/WnS1ZNQ848deE5fCN9HbT3AneSIPkLjFcsuSB3r6Y+I3gSz8T6hDcz6ylg6RhdpCncPxNeW+Ovh7Y+HNNiubbW0vS7FfLAUbeOvBqFpc1mtjzvkHBHFJjB60AkI2TnFAPyg007iasLTWGR7U4da6Tw14I1zxLaTXGkW8ckUZKsWkC4P0NUlqjNvQ3vhp4Ei8Qwyajqcnl6ZF8rH+8R1Ht9a6iXT/hPCzQzTv5yZA+Z+tdTovhTVbD4Z3mk+UiahMrEASDDE44z2ryi4+FHi5Ukd7OHIG7d560VH7zKivcOS18WI1KZdMcm1B+Qc8is/I78KO1bXh3RW1XxHDpk83lMzFSwGcEV2svwlvRrMltHclrKMgPcMoX9KmOkbjlq7HmIygOcBD0ppP3QxyzHaMDGBXsGq/BuOGwmuNM1hb2WNSwjUL/MGvL7DT2k1uGwvJPKZpfKdj/BTDc6v4UeH9J1/Wbm31w7o40BUb9uTmq3xN0TStC19odFfzIMDjdnHHrXc2fwbsJBGIPFIMj/NiNVzz24NeeeP/Dv/AAjmvNpxvHu0AByy47Uqmlh09bnLngfMc/7XpRnjJ+YHp2pUXcw2g7ugxXpfhH4WXOsWK3Wq3q6dbuN0ZbbyPoapKxLd2eZkAgAAhqceQFbpXrGtfCBoNPe40bVlv5I+WUBR/I15clq0d8bSZCkhcozY5U/Sp3dh9LlcA5wRtHbnNIVJA3DgV6rcfB+6/wBANjdmaKYBpnZQvlgjP41on4MwG1kNlrqz3YH+pVV6/nVeQttTxkZIO1sr6UHY3PK4q/rWl3GjajLZXgxLEcGui8E+BNR8UBpUPkWSHDSNgfzqV3H1ZheGrWLUNfsLW4/eW8soVwOOK7T4t+FdJ8N/Yjo8LxecBu3MWz8ue9dfofwm0+w1iyuY/EaSPFIHEW1OT6dazv2hch9PGc+Xx9flok+XlFTWrPG8EHlce+etFIPmO8cZ7UtERifxY70Hrh+fpSnkY6VueEvDd74lvxa2MeQBlnJ6CqEzB74U7T/dPNDEE4Iya9pX4NaeEAm8SxRzEcphOvp1rzzxt4VuPC12kLzLPFJ91wRz+VTKWqHHZnNMM4yc4/hHalPzDJ5A7dK6/wCH3gxfFZuwt41s8IyMJu311GkfCCWcu+raothH/ATtO78zxTkvfFH4TyfAb5tpUfWlPPJ+7Xo3jT4ZXGgaf9tsLsX9sBlmAAx+Vef6fZTX95Hb2kZaaQ7QvvQlzOwdLlcFd2MZFA4zk4/WvX9N+Day6fG2sa0ljO/IQhSf1NYnjX4aXXh+z+2WFyL+0X7zjHH4Ci/Ldj20PPAfTg0Y9V3fjUlvE886QxoXkdto+tep6F8H2uLVJ9Z1NNP3jK5Kn+ZotZX7iWrseUA+ny/rSZQn7xJHtXpvi74VXGk6bJe6TerqMMS7nZdo4+grzQiXcEUlX6EYov71ga9241SNwxyTXbfCnQNP8QeIhZ6tE0kW0kANitTwp8LbzV7NbvWLpbC2cfI7Y5/A16N8P/h7Z+G9WS8tdaS8YKRsAX+hq6enMTP7J4h480y20jxNf2lhE0cUUhUZbNc/kEDnJrrPimP+K21LIyfNJNcmevHSsoM1qxCjv1opD9KpaPUhrmVoi5OcAYHrSEnu24fTFSW6hriNZDuUkDFdf4s0ezsdFt5beMRyMBuwc5NZTrU+azOinhpzjdHG4wcHvSmkPKgnqvWgVteLWhg4Sg9QoBJO1R9aKUAkEdCehqULqIBljtPSlBLA/MMjtitvwp4avfE17Ha2UYKjl3JxgV6X/wAKa07aPN8SRxSDjysJwfTrVDueLjg5xuaggDkgg/Wun8ceFZfDOoJA0iyxMMrICOR+FZOgaRd61qMdjp8Zd5DjPpSSvqG2hnsTtyXAH0oIHVlP517Ja/Bu28hBf+IEt7lh/qyE4/WuO8ceAb3wqVljk+02TdJRj+lE3ZXHbWxxmDtyTgdqCRxj5s9e1SW8Lz3AjiUuxO0D3r07w58Ibi+shcaxqC6ar8rnaf507aXJvd2PLGwp6EfjSjgZB59K9Q8W/C6PSdGmvtP1dL37Mu9gNvT8DXm1pZTXt4ltaxmSdjjAqVqXaxDznJXB9ablerNuPpivXtL+Dm+1STWdYSwmYZCHaf5mqHif4T3Om2TXmk3q38KDcxG0cfhRNaaE32PMRz0G0NwaQYOIs9D+da3hzSRrOuW9hK7QmVwhYLkj8K9Df4O3S6xLA18E09EDfamABB+lVL4UxWs2jydCxH3QuDyDQq5ywPPpXrusfBtYdNluNM1ZdQnjXOAFA/Q15NcRPFKqOpWUMVKjnvil9rlKe3MQ5B+/wTXb/CrQbHX/ABF9j1WMtD5ZYENWn4U+F95rFr9s1K4WwtHI2scHI9eelejeAvhzY+GtZe8tdZS+IUgKu3+hqlpdkNXsjxf4g6VaaP4kntLBCkKdATmubrs/i3z4wuCfT+tcZWNLWKNaqtJhRSA5YL3NPgieeeOGIZeRgqj3rQzHWdvJdXEdvAMySsEU+57V7PY/D/wvoGkQz+LbjEsihioJGD6cVh+E/hj4ltdasby4tIfsyOrMRMDgZrrvi94K13xHqtu+kwJLbxxgENKF5q3pAErnGeMIPh8mjvJ4flY6gMgAlsfrXmQwBhW3Fjy2OldN4m8E654bto59Vt0hjkO1QkgfJrX8IeAf+Ej8PTail20csf8AyyCA55x1rNK0Bt30OEG7JDEGkB45ODXq2h/CGS5tEfWtSSwck4B2nPPuawfiB8P7rwmFuIrj7VZPwHwBnPsKb+ALHDrkMRvGCPSvZ9I8D+GZ/BDX0jg3oi3MTJ0P0rjfAHg208UrILzVUsQgx823+prr9X+EkFnotzeW3iOSaOBM7EQFW9sg1X2Li62PHrpI4ZZ40bIVjtP40xmyisOD3pZ0COyddpIB9auaRp1zqmoJa2aF5n4AArOKvqOWmhRIAbgbh60ZwRnkCvY7P4Mwi2RdS16O1ujyYyEOPxzXL+O/h5eeGo1uLeb7XYH5TIuOv0FNvqCXQ4YlnBfAKdgOKTocbcfjXS+APC8fizWDZPO1qqJuyFzmux0/4P3L3U6ajfrbWaMRHM23Lc+hpvS3mNayaPKmLY+fAFNTk8HIr1PxT8JX0rT2vNJ1EX8SjLEAAD8q8whjeaZY0QySk7QB60JWfKTf3bkY4U4PFekfCHwrpXiR7sanC0nloSGDEc1c8P8AwjmvLNJ9a1FNND/dB2n+dek+AfBNr4Xa6a21Vb8lCMqFH8jVLXUT00PnPX7WK01q9ghUxwxSFVyc9DWepJ5JzWt4tw3iO/Yn5RM2R+NZQ+mKhO6uW1YDTeCeOD6040jDOAecjIqkSBBYYxu984oOCNrPg+mK73wT8N7vxDai7uZhZ2R/5aMR/WumvPg5apbs2n+IYrmf+GP5B/Wh7XGt0eNqR93aSfWjO1QSMqevtVq9tpLW+ktZjl0fZn8cV6N/wqq6m0y0u9Mu2mluBlkKBQo+tLpzE/bPMdp34Q5jPekOSNr/AJ17LF8F7N4gra6n2kqSYQFJB9Otea+LvDd14a1MWV2mEI3K3qKV7F2u2YgOBgc4oOBzjP410ngzwlfeKL3y7Rdtuh+eU/wj8a9CHwasgjCPxEhuu0W1OT+dVy2SJvd2PGT7NtHpim5H8Jz+Fb/izw1f+GdQNrfZOfuvjgim+FPDuo+JNUW00/7v8bEYA/GlH37scvcZiDLD7uR9cUvJGPu17MvwXsSo83xFGlwR/qsJ19Otef8AjTwde+F7hVuF8yBj8kgPX8qTelxpa2OXwvVgcDvTlBZxlwPRcda0dE0a9129Sy0+PfI5x6AfU16lB8G7byUOo6+lrcAcx4Q4/WqjpqRIo2fg/RpPhVHrbRMNSYcnccDkjpXl9kkUl1DHLKBbFgJGx93mvozxDoy6B8KZLC3uRceVgLMMcjJ9OK+bm+aQ56etQ5Xqs0SvSR6v4z+G1rF4YtNc8MN9pt/LHn4PX1bHb6V5RyGyeuMA+n4V698CPFQt7+TQdRO+xuxtw3OWPFcr8WvDX/CM+LbmCMYjmJkQjoAT0ol7srihtY4rr1ooxRTWxL+K4h4Uj1p8MbSOscQy5po6EnnHapLXzGuo/J+WU9BUyk1qhrSSTNTTdIddZtYNRhYRyEcA8H8ak1bSHfWHt9OtmCp0Gc/rXcaCt0I4l154zk4iAYE+3Sna0bkwyx+HTHG4zvJYZ/WvOliZqR9BDAUvZcz/AOCeVSRsjlX4IODSE8cVLdeYJW877+Tn61F0FelGV0eDONmxPu9OTSnOOeKVOWI9K1vC2kRazqkVtcXIgSR9pc4+X35q7GdzR8C+E7jxbeS20M6wrCu9iVzkViazYf2bqc9qH3mI7c4xmvoz4deBbPwxeXc1trKX7yx7NoCjaPwNc/r3wo03U9VnuJfEkcLOdxjwnH60T0cfQuHwP1PB8lMjIyO2KsaVClxqFqkxxHJIoc/7Oea3PHfh2DwzfNFZ3y3YyBuAH9K6jwd8NrDX9FgvrjX0tJiM7MLn9TRBXZEt2anj7wR4Z0rwzHe6ZIBNwd/mZz+FePHPV+B1+or034hfDePw1oMWoLq8t8srBcFcDn8a8yVcuqodmcD14qN5GkvgiIcYLP0HTFDjB5yCOg9a9Wi+Erz22mXdvqDGK6H77cgAQYp2sfB+5tJbVNN1D7XHITvkKgbKbIa5rI8oYjbuAwTRuz1cHPIGK9R8V/CltF0KXULLUvtbqRlAoAA78iuF8L+Hb7xJqCWunocn5mfsopL8hvZLuY/8PzLz65pRgdK9nHwaswoM/iNFnA5i2p19OtcD428GX3ha4HnfvbZ/uSjv+VU9Ai7qxy3alpM8H2paCWhKsWH/AB9xf71QYJ4Aya09P0u9+0Qv9ml2E53beKYPc6Xx6cWNic44/pXERwmWXyQuWJGDXe+N7O4ubO0WGB5Co52jNclYE6ZqUcl9FIu3qCKlFS1OkMi+HtB2I5+1yL0xUXgJhJNO7jMzgkk1avPE2h3Uga5smcrwCVrT8P32l3cj/wBnW3lvtycrgYqmSjzzWWzqdx1yHINU/vH2rrPEl/pU3mRQW3l3KsdzBeprlFGAalFMB1xTqQdKWmIKKKKACiiigBz/AHI/pTOpNPkI8uMd6jwdx5oAUUtIKWgAooooAKKKKACiiigAprEDrTqQ8UATWFv599BCvVpAte3fEfUJfDfgjTLHTD5PnKolZeM8c14jYT/Z76Kc8bHDZr3Xx5pM3inwJplzpS+fJGqu6ryTx0FOa9xWEtJ6nk/w/mkbxnp/zyO3mZJPeu3/AGgvmv7EnG7b0Pbik+GXgK8g1ODU9YZrOGFsqj8NmnftA7f7UsRGFcYPJ71FXVxSKjomzyRTltwJ2qeMGveNVO74Jac5OWaNSf1rxux8O6rfRCaz0+6e3PIaNMrXuOo6XfSfCDT7NLSX7Ssa5jC/N3q5/A0EH76Z88j7temfBLW7LS9YuIr4xxeemxJWOMH3rg7/AEbUtNhEl/Yz26E4BkXAJrR8OeFNQ8QW80unhHEQyy9/wog1cmR3vi74Z6re381/pd6l5aud+5pAGHfgCvOvETazE0dprLzkR5CLKuAB7Guq0MeO9Mu7eOCDUDCrYwynbiu1+N/ky+FrOXUEiTUyBnHUc85qHuaQ2PEtKyNStApKqsqjGfevZ/jRu/4QfSWXIYlOe5HNeKWTiO/t5G+6sivuPYA1778QdKufE/gDTZ9LHnMgVtq8kjmqqq8VYzp6Tdz583sVwGbb/ECeoq9or38d7C2leZHc5wrQjLD8KsXPhvWrSFp7rTLqOIfed0IAFd/8Are1k127acL56oPKJ65qo6Ictyqfhl4x1bF7M0LM3PzzYb8q9N8P6LqukeAb+y151kdYW8vDbsDac1xfjmfx1N4muINOW9gtwwCtADtrutDsdXsvBOor4huzdXTQsQWbJX5TxUz1gwh/ETPF/hIAPGkKRjAx+fIrq/jr4mvxqi6TBIYLNU3Oqn73Ncr8JRu8awE8OBgDtjIq98eMr40GPm/dd+3NTVk5RikOOk2dF8BNQnmTU7OWRpLdIsordjXnKWAv/GZtgPvTnj/gVd5+z7xf6vtwSYBmuCN22neMnul/gnOfYbq2lZVY9rA/4Ttvc9Q+Muu3Gg6fYaPprGCN4zuKe1eLWuoXdpcrcW8siS92Br3b4l+GZfGek2Wq6M6zGOP5gDk15PYeCPEF3ceQ1hcQKFJMjoQv51kv4jb2B/w0upT8OxHVfFNot2xla4nBcnqc17v8Q/C3iHWdPttP0AwpYwoAytJtJ9sV4RpRfQfFNv55HmWk43MvfFe3ePYtf1bSrbVfC+ozohQF4oG5/KqnrBWJekjK8AeBPF3hvXYZ3nhSy58xVlB3fhXIfG7T4bXxQ7oADLyc8cinWifES6ufKM+qRA9WfIFct4xj1SHWZbfXbpry6j6szbgOKzratWNehgqcjpg96WkXJyWzk9vSlrTS+hnsA657jkV3eleKtVtbCKGHSPNQDhtrVwo659OldZp/jm/sbNLeKCBlXuc1zV1J/CduDqxhL3jaHjPWVyRomf8AgLf4VieJ9ev9TsFgu9P+zRgg78H+tWh8RNSX7ttb8/WsvXvFV1rVmLa4iiRAQcr1rnpU5p6nficTSlH3Wc7RRRXfy6HiT1YmAdy969w+EUMel+EL7WdgMxUhD3B5rxAn5QeMk4r3D4OTRan4Vv8AR94MqL8qnuTmratB23ITs0eP63q15qd+95fSvNKWIyTyK9uLPJ8F4AzF/wB2OX47GvOLX4da5ceIXs2t5IkViWlIIXH1r1vxRp8Gk/DE2VvMJhCmxsnPY1lPWlZ7msPjufNinYp55PHBr2b9nzifUoxnAh3cmvJNN0671FzHYWrzyAZ2xrk49a9p+Bujajp0+oNfWc8RaLA8xcVrHRO5m90eP+Jv+Q9ff9dW/nVrwTqMGleJLS6ulzEpweM4z3q74m8N6z/at9P/AGdc+T5jHdsOMZrI0DR7nWtTWxtNqzsDjfwOKzjoki6mrbPa/iB4Vm8amDUNC1BLlwuBGZAAAfpXlmu6V4k8NwPYXjTrascv5fzJnp1q5DofjPw7O0GnR38eD83kA7TXq1rLe3fw4u/+EtjWORIiI/M+8eOM571VTyCGx84g5I2O6kHBPTIr3jwgSfg5d8hsFvnzz1rwqUgSOUJ2huAfSvePhnCuqfC66021KG5JY7c881X/AC6aJjpM8IldvMf5325PeiDzFkTyhlsgj1JrfvPB2vQ3cyDTLtlUkllQ7ab4Ntoh4qs4dQUoBIMq3Y5FRT0Wo6ju9DpLTwZ4v8U2iSORJAi/IJ32FR6AV6H8KvBviPw1eT/2nJGbGSLAiWTd830qT4sy+JbdbSHwyk6WhUMZLbO7Of5Unws0/wAVi6a71+/neBlwsUrfNn1xV6a3COljynxtDHH49kSP5B5mcD1zXqXxa8SXui+FNPisZCjzRAFweRwOleY+OePiBIduT5mOfrXa/HU/8SLQcgDCf0FZQb9hy9S0l7RtnH/CDUbpPGsIEzhZQxeMnhj60/41JGvi2c+WAzAtu9TVH4R/8jxahuVKnk9a0Pjdn/hLXyTxk/SqkrcjIou/Mmd1YyHwl8Jobuywl3eRh93Qgla8NutQvLu5aea4keZjkknoa910CKLxr8M006CRftVum1cnuBXk134G8Q2140H9n3EhBxvRCV/Om/4rb2BaRMS71C61JkF1K0pGFAavoTRNB1KL4ZxWugeWt3MBlmbbxmvCNe0K78P3kcV5tEhAbaO3evbPD13e+IvhskOi3xg1KMD7rYPB7VUV7rsQ76HJWPww8Z2Wpi7he3Eytuz5/at743afMPBum3OoANqKukbsOTjBzXHTf8LGjuzCJtVds43DOBWf43tfFNpp8B8QahPMjkN5btkg/SspfCarY4vtnI9MUUnAI4DA889RS1cbWRPvJaB0qS1tpLm4jhjUbm6E1Hj1p0MkkUiyRyMrL0IpT20HBRv751S+A9XZQy+VtPP36y9c8N3+iwJNe7GR32AK2aZ/wkOr541C4A9A1V7zU729UR3d1LLGvzKGOea517S51v6qo7O5SGMcCigZ70V0LbU4mrvTYCcD60N8oPfFB6UHqM/xVUdxTWmh9HRAaV8CGaAbDcxbmx7rXzirFQT1yM5r6P0jHiD4GXcUHzPaIUI9wvavnFkaLMbA5HBFZO/tJdjRfw13LmkapeaPcrcabO1vOOd69a9r+DHibWtZudQGq38s5jHylseleDuBswVzn9K9e+AGftWo8k4XkdulbSZlFGJ4w8deJbTxFf29rrFykSSYWNcYAritW1W/1a5Nxqd080mOrVoeOv8AkbNS4C4k6CsJFZyAoLN6VnHWxpJ2uanhfP8Ab9hub5TKOM16l8fyP7N0UKu1cdv92uE8LeGdaXWLG4OlXAgLht5jOMetelfG7RdT1Cz0lLGznmMYBYRrnHy1VVaxsRT+1c8JON2W/KvozwXqb6P8KY7uJQzBMjPY18+X2n3mn3BjvraWCQ/wyLg17jpGf+FMqf8AY/DvROWjsUlseQ6j4iv9S11NRvbhzJG+9eeBiuv+I3jbTfEvhvToIXmN/BtMpdMAADse9eakZOD0znHpSEcYOSvX3oEe0/BzWbGTQLrRbidLW5kyyuxA3ZPqaw9c+GevWd1Le6e6TRglxIkmWPfoK5rR/B2s6hpaatp8fmBWKqicsMV1/gqfx1aarbxTQ3/2fdgiUHbj3oA841ufUZrk/wBqtN54OMSDDH8K0fAhZfFWnDeR++UEA8da7n49i0XVLWSARi7K/vCnXNef+DJltvElg8gG3z13E9uaqjo9QqHoH7QRMfiG0AJRDCMBT715NknO52yfX0r3L42eGtQ1eey1HS4Gu7coExGMkGvHtQ0LVdPi82+sbiBCcBpEIFZ21ZpJ3tYzflHyqKXtiky3IC5PtSEYGRk+tVsSx3StjR/FOtaJbtDpOoS2sbtuYJjk1jZHrSDByMZOOKqO5nNaH0fpmvanL8Kr3U5rl5LuONiJSfmBAFeNy/EHxU6lX1m6eM/wtjp+VeoaNx8EtQJyPkcY79BXgr7g45JJPfrUVNZuxpD+HY6z4ayNN4zsnclpS5JJr0r43+LdQ04xaZYv5RmTl1PUdxXmfwvwPG+n5J6nOa6n49jGvWnY7eDRU0pomHxsyvhb4yg8NanK2qSS/Y5FO5FG47vXFct4ovbe+8QXt3af6iWRnQng8nuKyz95uMt/ePWnWkElzKsVvEZJWOFUDlj6CnvsOOm52fwgJHjOwxnLS85Pbmr3xw48bXC9wifyqX4W+HtYs/GOnzXWn3McQkBYuhAA5q98ZNA1XUPF9xPZWFxMmxfmRMjpTr7RsFF/Fc4nwFp66n4osbdvu7tx/Cvavib4T8Sa+1tbaMYFsETbtaXac/SvE/ClzLoPie1e6R4XRwrhhgjJr2X4jW/iS7ittS8LahObYp80cDc5+lOWq0Jho9St8N/BPivw1rAa7aE2J/1iiXPeuD+KFpFY/EILbFlD4dgBxk5q1pkXxFvrkQm71SHJxmUkCuW1ZdRTxIE1a5a4ulbYWJz0pR/iK438DPavij4hvNE8HadHpzbHuYgpkzgj5RXl3wl1O5i8bWpFxJvmLeZnoa7f44bf+EV0Akj7vQd/kFeefCkH/hNLDcoIOetEfjfqVU/hr0N34x26nxqkYUAzMNx9TXW+OL6bwz8O9NtrF/KaZVVyvfIrlPjNJ5PjOKRjnad2PpXY+LNMl8X/AA406XTlEtxEFLIOTgCs1dwdu5MtGvQ8g8GXFw/i/TmeaRmNwM57ivRf2gjj+yypxwMj/gNZ/wAN/AN6dUj1LVw9lb2z5HmfKcitH9oTYJNOCEMo6Me/y0VteSxUOp43jnOMZpaQHIznNLmr0EAOTt/HNeqfA/XbHTrm6s7yUWrTIQJPqfevKs45rpNA8I6nrVjLfWCLIY8rtP3uPSmI7XxV8MNYn1GS/wBIuI7qB2MiyGX5uecYFee+IX1YypBrBnBjO1RIuBx6V1/h1vHem38EcEWoeWrY8twdg966z47LbPoenNdoi3+Mtt6g4FRNXt6lR0TM/wDZ9fZc6g7ru2gFQfpXJ/FDxHqOqeILq1mmZYInwqKe1dX+z+GM+pYJZiAB+Vcx4w8Ja5P4pvXh065ZHkwJAhxTl/EbFG3LY7v4VXc+q+BdVtLt96ojKgY9FwKx/glpEMvi7UZ2AcWnzIp9Q2K3tC08eBfh5fyalIq3dwrFFJ5yR0rlPgnrkdp4uuROQgvgEGemc5qotKba7CekDa8beAfGXiTWpbgtB5QP7nM2MD/9VdR4D8Na9pGhalZeIXjltmjPlqH3Y45rkfHFj460/Unk0/UNQmtJWJQQNnaOtZNnZ/EG8tbiSe/vreNFJbzmIGKzXwalS1mrEXwv0eGf4hMjgvDDuZQR0INdf8RfA/i7xLqZaE24sQf3cfnYz9RXA/CrWf7N8axzXcxKy5RsnueM13HxFsfGNvqjXeh6heTWknzIsDZ2irne0QjbmkbXwv8ACniTw/LcW+sNBJp7pgRiXcA2a8usNIgm+KcVix3QPcsSh6dSa0dKtviHfiVTe39sBzvmYrXO+E9QfT/H1nc6i/mPHOVkdj1IyM01bn+Qv+Xdjsfjjr91HqEeiQTMtpbou9B0bIGKpfAeZ/8AhLdjSPyp47Hitr4x+FL/AFXUYdU0u3e4SVRu8oZxwK1vhF4NfQZ0vtUkWO5kGI4s8gd80QfLzXFJXtY8v+KX/I7an/10Ncl2FdZ8U8/8JxqgHIEh5rkgeAM81nDQ0qauwVJBGssyROdqMcFvSo6Rs7SOcHrVWujNOz0PQ7fwfo+Y3/tkbuDsyvWui1/RbK/0yC3ubwQxIOH45rx+1+a6iAxncOe9d946IPh20AbHAPvXl1aDdS6PoMPiYezszK8ReHNO06yWe11ITSA42ZHNcljmjqAe/bNA7+td9KDjE8fE1OaWgUYByOtFAzyAAM963VzCy3PVfgjrljZS3VpeSLbtcg7XP8PGKl8UfDPWJ9Qm1HSbiO6gYltxkwxPsBXD+HfCWpa7aT3unAMIDgr/ABH6V03htvHmnX9uiQagYkYKFdTsAoehK3OO8QSawsi22ttODEdqB19Ow9q9a+AmlZ0+8v4UU3DjYrNxjBpnx1Fu+jaZJOIxqbYMuzqOOlQfArV0a2utJkuPKZx+7JODkmiPwsc/iiU9a+GnjXVdQku7ua2kdnJH78cDPFdvHoWpwfDy6sfErJJJFGSrI2/pXn/iC1+IOm6lNFHdahPEWJR4SSpGaqXtt46GizXt/f3kFuBhopGIyD7VnLWFupp/y8v0IvgtpMOqeLU+0puiiUuMjoQeKX4ueJ76/wBeuLFZ2FnbsY/Kzwcd6g+D2sR6T4sjM8hWKZShye5Nb3xS8BX76xJqOlw/aref5sRjJyaqo3aKRFO15NnmNpqd5aW8sFvcSLbzDa6g5DD0Nek/APToLnV7u7lQNJbKHTP8JOa5CPwTrf8AZt1d3NnJaQW672EilQfpXUfAzV4tP164s7lgiXgCZPtmr0sTd3Od+JGvXeseI7j7TM6wo2I0XkCu0+B2u3NxfTaNdOXt3jOAxrG+IvgLVrXXZriwtpLu1uDuR4huxXU/CvwxN4Zt7jWtaxAwQ7Vk4bpShrGVwqdOU5WxtRZfFhoYcIq3PBH1rp/jt4lvrW5j0iCRooWjDuynl89jXH6HfjU/ikl2vKSXQK59M1qftAceKEA5byVpT/hxS3Nnbnb6WL37P19cf2lf2rSM9vsB2E8c5rnYtOhvPieLXaNpk3bf1rY/Z+BGvXijOPLHXqetY8moLpnxQN1IQNsm0+2eKb+OLOeTdmjo/jhrl1DeW2kWUhhswh3IvANZPwImceLSis6gRkY7HnrXR/Gnwte6pc2up6VC1xCy4PljJyavfCLwVNoU6ahq0xhnkTCRk4OPes4N2akbVLX0POfi3/yONzkDJ9PrXGV2XxaI/wCEwuOR/jzXGc/LgE54op6RQTd3cOxzyB0FOt3eB0aB/KkU7gaapAJ5601ssqkrkn1qyD0TwT448SXGvWVrPq07WzSKpjJGCM113xo8U63omtwQaTqM1tG0QZlTHJry7wFg+KtObaCPOXA9Oa7f9oPnxHa5XDCEc06msEkXSsua5wGs+Ktb1lRFqepz3ES8gNjg17L8DJBbeEruUKGCAsc/WvA+QCMY75r3f4Lj/iib/HIKnOfxol/DaMo7o8q8XeK9R8Q6tNJdzOgif93Ehyowf/rV12q+O9P1T4fwaTcvMdTjA+cpxx715lck+fJjgl2zjvyaj6jnp2qPsWNVYOPTk8E5xXuvw5J/4VLqhzlsuDznjivGtM0XUtTV2sLCa5RerImea9x+H+k3tp8MNRt57SeK4kLARMuGPTtWkn+7sR9pHgU//H1L7sa9g/Z70zzm1K9CqbmFQIyfUg15nqvh/V7EST3mn3EMIYnzHQhRzXofwF1ZLe7v9Plk8uW5UCM5xyAamj8Oo63x6EniT4deNNd1N7y5e2Y5yF8/pXZ6F4e1mw8C6lZeInjbEbeTsfeUGOlcL4rsvH2l6i6Wt5qNxGxyrREnIqg9p49m0m6urzULyGBEJdZmILD0qJJ8rLVrol+C0ePGk6E7kjXHzcd6f8aPE1/c689gkzJZxAYjB6mq/wADHMni2UuSW8vOe5Oe9ZXxdJPja4H3SVGDVVNVCxMHacrnf/BS8muvCmrWspJgiTIVu+c1xfwm06C+8dqJFBhj3sAfUc11fwLXGja3liR5YwW+hrlfhTqMeneOU+0FVjYuuT6mtdPbN9CI/A7j/jD4hvL3xJc2LTMLS3baFU9feuj+AErM1+okcqEJw3c1m/FHwTqkvimS60+2kmiun3ZjGQtd78LfCn/CNWkn22ZDfzJuEYPIU1NPSLuFVXkuU8E8WceIb89zO2R+NZQFavi3P/CSajg8mZue3WskEVjS0jZmlV+8LSDCOCB160ZpUUt8q87j37VqRc9+8OzWXi34fwaTBfC0uYUCbAQCxx057VwGoeBfE/hmdr23J2L0a3befyqjH4M8Rafa2uoaaksnnIHVrfJYe1ei/Cu68XHUTba1FcCy7tcAj8qJP3WC3PDppJprrfeb/tJk5BHv3r6J1rXbnQfhSl1YvtmVVXdnHU4ryL4oJaL40uP7OASIsvKdN2ea9T8V6bc6p8JYoLKBpZiFOxRnoaVn7K3UX27nimk61fDxJb3wnkWd5BuOevIr1L44Qrd6DpuoPjzmVQT+NcV4T8B65f61b/aLKa3hRw5aZSFwDmul+OOrW5+x6NbsG8lQTt7YPQ0tORdxu99DsvCeh3sXw6SPQAkN9dR580naeRXD2/wu8axX4vY5rdbpW3CTz+c9zXW+Dr+61/4em10m8MGoW67FAbB4HWuCuh8RYLl4hPqspXguuSKJN6hE7b4xadKfBNrPqRX+0IRglTnnIqf4S6VLB4CnudORGvbxeWc455ArzTxnaeKbLToG1/UJpoLrnZK2SuPUV3/wk1M6l4Nm0u1nFvdxLhCTjnBPFVS0TFUu7HOTfCzxrLfm7lltzcM2/eJ+9dr410i8/wCFbrFroje9gXiRW3YwK8+1OP4iWN20BudTkIb70ZJWq3iO18ZW2gm61i/uTbSnZ5Ujc/lUJe5Y0b9+62Os+DtvBpvhTUtZCKZ1BXf3OK8q17Vr3VNXuLi7uJJCz8nOcDPFer/Ba4g1DwrqGiEoJWBYbveuLX4d69ceIXtktZIoi5/eEERkZ9acm1PyFG3Lrueg2cjyfA+MuSRjjP8AvGvBR1NfSfiHS7fR/hbLp1pMJVgABOcnkkmvmwEfMQQcUpJe0bRW1NI1/CM723iXTpUYjEy/zr2H9ou2SXTtJvmx5kiqpP4V5H4ItHv/ABTpcKgnMy8enNeqftIXip/Z2lZy0KhjjtSraxViKfxanh9FH1oqlsEgxlWpUcoUdPvLSc5oAxmiOqswbu7mrp2qN/altcahNJJFGwIyOV+lSapq7HVJbnTZZEQ/xEYP5VjYzgnqPSggnOSay9hFu7On63Pl5b6BI7SOWY5J5JpSQBQKTHrWtrHM3cN23mhSFOVJGaAMNx096U8+wp3FY9c/Z6LNq2ooWLL5OcMa8+8bknxJekO4zIRwfeu4+AF1FDrd5HKwVpI9q571mePfBmtr4iuHgsJp42YsGiUkHNFXVq3YqHw28zz9iSzFjvB9TTrdj5kGCyqpHyr9anvbC802UR31rJBIf4ZFwa0NO8N61dCK4tdNupIWIKuiEqR61pQspXZnPqet/EBg/wAINJ3EjJT+RrwyLIdCBlQR+NfQHjjSb64+F2k2lvaSzXKbCyKuSOteG3ekajpUkR1G0nttzDAkXArKOjd+5otYJHvfjDVJ9L+GNt9mOPMiUAjqOlQ2utz6V8HVv1JkmI27j1+Y4qr8QwB8NtOYHOUXjt2qnfMR8D48Y4I49fmp/wAwo6SRc8JSvP8AC29aWQysEOWb6GnfB/SLiHwPeXGm7P7QuOIyxwBlfWq/gjj4S3Y6Bk/oaT4P6kb/AMI3+kW9yIb1QRCQcEHbx+tT1n8iVe8PmYF38LvGk+om8eW3E+7dkT967TxfpWoRfDGZNeYPe265BU7h+def6nF8RbC7MK3GqTbWwXiyR9ara/a+M4dAa41fUbk2suVMUrc/lTqbIuK1OAIJIwRg9R3pFII4BA96PukNjHvQORzzRHYJD0cxurrjIORmt+PxhqUcCwqkRRf9mueIzSAY6UyTpj401LA2rGQPasbVNSm1G43zgA+1UsHBGaMc5oAAOoBH41oaTq1xpRJhCHIweKz9o/Wg53HHQ0ASTzNczvM+3c5JIFNpqjA96dQAUUUUAFFFFABRRRQA6T7kdM6k0+Q5jjGKYByeaAAUtIKWgAooooAKKKKACiiigApD70tIaAE3bSNwyh+XNdX4V8ea54ZiaKyljePPypICePauU6AKPu9TQBgkjr2ppiaOy1v4j65q8scs0qoinJVMgZ96zPFPiq+8SfZ2vREDCMIUGM/WsDA+UH7oOSPWjnOeKm1ncq+lju/DfxM1zQNLi0+xS1NvGPvOmc1pD4z+Jiq4Sywe3l9K8yIHTnb6UFck9h2FNu5KOr8YeO9V8V20VvqPkKsL+YNi4yR2rP8ADPiXUfDs7Tac4Uv1U9KwznAHGBTuQQR+NCVinselH4x+Iiuw/ZipGPlU5riNd1u/1u5efUbhpGY52E8CsvA2gUY45qWtRp6B29cfw11/hn4g654etvJtWV1U/KkgyFFcgRke9CjHOTu6ZqyOp3uufFTXdX0+WwultzHcDadi4xXJ6Nqt5o98l3ZSGOUHnnrWdjIIP6U1RlstnaO+aQz0s/GPxKIBEPs2cYLMpzWVbfEnXYYL2N5EnS7yH3gkjIx8vpXFB8jg9O+KXH3j3c5P/wBai1xo1NA1u70PU1vbRU82PgBxmpPFHiC78RaiL2+VfNI2kIMVj4HHXihRg5qVoxM6Hwl4s1HwvJcPp6RN5y7TuXJrDvLiS6uZJmcb5W3MB61EAB6/nSY4P9496ctWOOx1PhfxtrHh4MtnMwQf8s5DlR+Fbt98XfEd7ZvCRboHGAUUg150QcLz09e9GMn5unbFN7CW5JdTPcztLPuaVz8zD1rp/DXjvW/DsflWkyvGOAr5Ncr06ZxSAYAx1zmlF2QSV3c9Iu/jB4juoij/AGddwxlFIIrz/Ub241C6lu7yQvPIcnmq5XjjrQOGzRa47gvQU6k5yc0tPYQUUUUAFFFFABSGlooAaBkADqT0rS0HW7zRL5LvTpCjg/MM9azuNwYfeHSkxnr3pxYmj0O/+LfiG+tGtnaBEIx5kakP+dY3/Cc6sdCk0yYxPC55dhlsYx1rlfrQenPSpkrlRdjd8IeJ77wpfSXuniJ5ZE8oK4zx612H/C5/E2BlbJT3xGa8yOTtYjgDGR2pMqBgHqe/ene5KPR734ueIb2zkt5o7MJIMHamDXCWGo3NlqH2uCTZPG2VZeOtVCAdx7mjnOOMUW6ldD0m0+MXiSEFVFqygYy6kmuc8TeN9X8RDbeTbY+6JkCuY28AHrS80pBHQCeCccitvwz4m1Lw5cedp0u3PVT0rE53AmgjOT3qlsJ7npZ+M3iQwvGBZbWGD8hzXn93qE91qDXp+W5Lb8rwAaqnnPAzRk7iT3pAeg6b8WvEOn2UUCtFIoAXMgJqvJ8T/EL6ot4ZosqNuxQduPpXCgYGKDnHy8Gi1x3saepa3c6nqj6jOFFznIAHFafijxjqfiS0tre+WEJAMLtXBrmSAxBbt6UbRkZz+dGwr3NHQdXuNG1JL2zUebH03DNTeJdfu/Euom91BAJP9gYFZGOaTnB54NKTuOKsamga9qGh3InsLhkOc7FOF/EV26/GPxJ5ZQC1IIwTsOa81Ax92hskU5bC6mlr2tXevXxvL85k6fLUvh/xBqGgXIl0+doyP4CeDWOR+VLgE5PWiLsOWp6WfjL4lCAMtqvGM7Dk1xviTxLqHiK48++mJA6LmsYDByOvvS9+1K1xpiYx8w78UtJjmlpiYtFFFAgooooAKKKKAEyM4NNPJwelOIH40dRg0JgetfAXxVDpupS6LqT/AOg3vygMeN5NYPxd8IT+G9fmm2M1jcsXilT7ozziuERmjZWjYqwOQQcEV6BqnxJudU8GR6Jf24mkT5RMwBO3GB+NTJFRZ52TtGVJJNdH4V8WX/hd52sREfN65Fc8KAMGq6E9S3qt/Lql/PeT7RNI247RxVeCRoZknBG4dqZ296MZIPcUo6Dlqej2nxh8RWttDbxLZmGJAgyhyMVL/wALn8SBtrC0GehKGvMyMnnpRyRhsEdqbBG14p8RXviPUft9+A0hGMRcCtC38c6rB4bGiIIPshHdea5UAZzz+Bo56cYqLDuOpD70UVZJ0/hbxvq3hmMxWMgMWdwV+Rk1vz/GHxJPAUY26g8fKpBrzjHy4PJz1oOSAOOKALOo39zqV0899MzzMc8npVZHZJAyMS6nII9aOcDpn1oOe3A7046A9TvND+KPiDRrUW0TpJGFyPMBOKq+K/iHrHiawWyv1g8sHcCi4OTXGgY/lSqSpB7jpStdjTsGxgwO2RWHXjrQoPfOR14PNewaf8UtDtrOCJ/DUcjoiqzHb8xA69Ksf8La0Hdk+FovyX/Cm1YTZ4soYrlUOSe4pVyHKkjjrgdK9nHxZ0An5vC8ePYL/hXl/irVINZ1aa6trYW0TkkRjHFJPUbWhp23jjVbfw3PosYga1kBBJX5ua5Q4ByMkdTnrmhQVI20Y5yOtJ7gti9oOqTaNqcN9aBfNTJHmDIq74p8TXnii6S41EIJEGBsGBWI2WXBxml6gg9M8U2rolaMQk4+brnFXNHv5dK1S3v7cqXtnEihhwWHaqnXOeecikIJUA9Ac0LQb1PTR8Z/ExB+SyXPT93yKD8ZvErBgyWQGOvlnJrzPA5PftSKACvtQ3ccVYu6tqU+q6nJc3BUvMdx29jXQ+G/iDrvh6AQWcoZF6CbmuQwcdvwpQAOmfxoQM9Fvfi94jvIWRjboWG3cikYrg5b2aa+N1O5aTduLk8E1WxjkdaMY+70PUGh/FcXSx0/ijxrqfiKwtLS+SAQ2wxGyrjPGKyNB1abRNVgvbMfvo8438is/AP3s47CgFsnJBHajZ3KeqsbHifxFe+JNQ+1aiIhIOBsXFaPhXx1rHhqNksnG09BLyK5b69aTB29ee1THQT1O08Q/EXXdb8tLieOKMcnysqPxrN8UeK9R8Tw2ovUiC2wCoUXG7AxXPEZHP3sYNaXhu/h0vWbS9uYPtEcLbjH2aqtcV7GdhiSAvA9Fpdrf3T+VezL8WdBwM+F4sgY6L/hS/8AC2dB/wChXj/Jf8KLBe54uVJ4ZHx6gVueFvFWo+G7gnTZSUY5KucjNejXnxV0Oe1liXwzGpdSA2F4P5V5Heyi4u5ZVQIrOWCjsPSi9gPRJPjL4lkjZD9jXIxkIc1wut61ea1cme/neV/QnIFZw4YH3oBYBgMc+1AM9h/Z9YpPqUg+8gGPTpTfE3xZ8QafrN3aQrbeXHJtyy81ynw68ZReE2ujLaPceeMfK2MVzeu341LV7m8RCgmbdtJzigSLXibxPqXiKYvqE5bJ4jU/KPwrJimkglSSORo3XowONp9aj6nB+6evrQB6844FJFSPQNK+K3iLTrVLeJopQvAaUE1X174m69rNo9vcTRxBuD5QK1w5BI60DgAUSCOg4OySCRSTIpyCnFdvofxQ8QaTbCOFkcAYHmgmuGIzSkDPeqvclHeax8Vtf1K2eKSSCIsu0+WCK4R3YzO7OWZ/mLA9DSdzwMY9Kbtz1pW1uV0O70T4oa/o2nx2sM0ckadPMBJ/GqzfETXH1z+1WkjMgBAjIOwZ9BXHknJIxz7UnpnoOlEncIaF7XdVm1q/lvLvAklbJ2cVQHXAxj9aUD5cGgCkloNvUWk6nrilpD0qkQwB2sCBtI71NPe3FxEI5Z2lUdMnOKh/h96Ofb8Kjk1uaxqNIDyRjoKXvSY4paozlK7E70jEYHJp1IM+1O9gexveGPFWpeGZmOnSZR+SprrH+MniN4ih+zKMY+6c15qR+eaGG4jPSluJGhresXms3TT6jOzuxyADwKq2V3PYTrcWsjRTKeuelQkEn6dKMZfceQO1OOhT1PRrX4v+JbSFId1s4AxllJIrF8S+P9Z8QW3k3Uo8tuojyK5MDA469s0EZGOn0qGtQuLG5jkV42KOnc9a7jQfidr+k2vkRSxSqPu+aC1cOODnFJ1zu/DFUTY7XxJ8Std8Q2L2l4yJGwwwiGMiuOguJbe4SaEvHIhyGzTDyoBpOeBnigq56DpXxZ8RadarAr28iLwDIpNZPibx3rXiJMX0oWPpti4FcpjBBX9aCAck565oBaF3RdTn0nUIr202mSI7gHGav+LPE174ovRdXvl71QKBGMHisIrk596XGTz+lAXN7wp4ovfDFzLcaeEMsqhSHGcYrN1TUJtRv2vJ9nnTHJKjGCKpncAQpAPrSnAYFRilfUl7nc6B8UPEGiWCWsTxSqowPOBaq03xE1ybV01B5VZx/wAsznYPwrjhwKXpnHenJXdyloaWvaxc69qb3l0I/M6lUXtWZ1yy7h7YNdV4A8SWfhvUJp7/AE9b6N49oQ44OevNd+Pi1oJGG8LQ/gF/wojGyFfU8XKsdoK8fTmkKkLna4C8ZNe0f8LZ0EMCPC8Wfov+FZHir4iaPrGkTWttoCW0r9JBt4pN2KSuedaTqEumX8V3a7fMiYMN3I4rS8W+Kb/xRdpc6iIwyLtGwYrAIJ570pHNO4g/g4JwfWuq8PeOdT0DTZbKzEJikGDla5XGQFPSjGMgdKBDmYuzMerEk/jSGig0AdX4R8d6p4Xt3g08Q7Xbd8y5rof+F0eJCTujswB/sV5kABjFKSevGaGM7fxN8S9a1/SpNNvxbmCbglFwR3rjrS4mt7r7RBLJHMmCpQ4qAcE46HrRj060oaClqeiWHxc8R2kCIpgfaMAyqSazPEfxF1vxBAbe6lWNHPKxZGa44gHr1pcsRziqYR0Nnwt4hvfDN+11ZCJZsbcSDOar+Itaudd1N76+CCZxg7RgVm4GR39c0v16Ugep0nhbxlqXhu1uYLIQtHMMHeuTXPC4P2j7Qjslyzb+vA+lR4x0pcnORjNF7A9rHoOm/FnxFZ2C28bwSQoNoaVSX/Osyw+IOt2mrzairrLNKpUiTlVHtXI9evfrRkgnb6Y/Ci9xp2RYv7mW+upbiQDzJXLvtHHNQbX/AOebL7EV2fw+8XWHhlJlvtKW+8wcbscfnXZ/8LZ0Dt4Xj/Hb/hRYm92eM7W/un8qCrpggEA85xXs/wDwtnQf+hXj/Jf8K5vxx470vX9J+y2GipZSlgfMGOnpxQOxS0D4ma5ololrbtG0adPMGcCp9X+K/iHUrZoTJCgcY3RAgj3rgAMZ29/Wjk8HGPakxrQleR5bgPM0jSOwJLHOOetfRmqeIbvwz8MrfULDyzKAoIkGe+K+b0yrAg9CDzXoXiDx/DqngmPQ0sXjkGMylsg4OelXfQi2ompfFnxHewG2doURwfnjBGK4K5uJLmZ57mVpXY5ZyckmocfXHalAGc4rO2pqnoaega9qGhXQuLGcxv2BPDD3ruP+FyeIxGoUWxHRiFNeaf55oI546VpfQhbm34o8T6h4jnV9QmJ2fdXPFUdJ1S80u6W4sZWjYHOAeDVL0z1FAUZBOeB2qUEtWelRfGXxIkaoDZHAx86EmuZ8VeMdV8SALqM4Cg/djyBmub+gHAoOSoz1HOaARo6HrF3ol/Hd6fIUlQ9D0b612d58WvEl1am3zCgcYZkBBH0rztiWBHHNH0yKp6oOtzqE8c6odBfSZJY3gkOWdhlzg561y5LFd42DJxgClXKgYAyPapbOUW93BKVDLGwYqe+DUqNglI9q+C3hmLRbOfxRrkZigjQmPzP4uMhhXmXj7xDJ4k8S3V6xJXcRGPVM8Vs+NfiLeeIdMtdPt4/stnFGFZB/EfXiuCx8uB19al7jT0HdaKKKpIApaQUtAgooooAKKKKACkNLSGgCzpt9c6beRXNm5jcHvXoFv8YvEkMQQG1bHALKSa81GcYPI7UdRg0PUFobnirxNe+Jr5bzUUTzF4wgwK6LQfinr2i6TBp1mLUQW67F3rkkVwXI5HWkOTgnqP5U1oD1PTh8aPEhwEjs1HXOyua8YeONT8VeW1+bcmI/LsXHNctjGdvHpR2xgY74qZagtDqtY8calqmjQaXciHyYwACi4qOXxpqcvhUaEwg+yA9l+brnrXNL8pyv60gH50+gHU6V421LT9BfR7ZYfs7DB3rlu/8AjWHpWp3elXq3NlKY5R1KHA+lUjllCtjHt1oI4wKEB6TD8YfEkUIhH2cY/jZTk1zninxrqviRQmpTIsfQLHkA1zOBjvmjGQM84olqhoAMnGflHSl69sUhyxy36Uoz3pLQGLRSAMxwoyx6Cui0zwtd3IV7krDERnORn8qdhXOeorf8S6DHo8ULR3Dyl89VArn+1A7WForq9K8LQXmmx3Ut60W4ZwQMCrI8I2BAP9rL+a/40COLoq9rVlHYXphhmEyAfe4/pVGgYUUUUCCiiigAooooAdJ9yOmdSae5zHGMUzGGPNAAKWkFLQAUUUUAFFFFABRRRQAUhpaQ0AFFIOcn+Ed6B2J6Gi2lwe9haKbuwDnkj05oB/d7j+VK4WY6igggkEj/AGcf1pASV4+96U2rK4C0CkGdw/u9/UUZ+bnOPahO4MWikB4DfwnuKTJ4PY0LUHoOpaaM5J4Cjrnrn6UA8Z7UdbBbqLTTtxtf79LnBwep6Y5p0XEig5yxAoWrsF9LibuPvcemKK9Y8T+EdJ0/4ZJqVvbJ9rbaTKcg8mvJs8Z7Ur2dhpXVxaKQHt3paYgoxRjJxScgEtigB1JRnoecUc96VwE70tJzmlp2BhRSE0dh60rgl1FpaTuR3pobr7VTVtWG4+imlsLu7Uvf2PSktQegtFN3Z6Z465FIW5PtwaOth20uPpKTPXrikDY+936YoejsxdLjqKTI560E4IHY07aXFcWgnHOKTPI9P1pVyWwMZHTNJj8xPunKHhuo9KAQSQDnHtQigv8ANyS3P0r1nxt4T0vS/AenX1rbILiZAxfvyKGrK4LXY8nopCcdf0o/kelJO4MWjFGaM0xBS01iVAJ70+OOSVwsSM7HoAM0dLjsJRRKrxO6SIyuvYjFN7A0LXYHpuOpKTNB6A/nSbsAtFCguRsBIPFdjoPgLUdR8qS4It7Z/wCNiAfyNZVq8KOszSnSlUdonHUV3PjbwPD4dsVnhvZLgnqGQACuFBBxjpTpVY1VeIVaU6TtIWiiitJakBSUUYp2BC0GiimIKKMUtSMKKKKYgooooAKKKKAEooopDCiiimxIBRRS0AJiilooAQUUUUDFpM0UYoJFooopDCkNLRQAlFFFMEFJS0UB1EpaKMUCYlFLiigaYUUUUgCiijFNAFFGKKTAKKMUUwQUUUUDA0UGik9gW4lAoxRinL4dBR+LUKWjFLQxK4gopaKBiUUtFACUUUUAFFFFAMKKKKBIKKKKCgooooEFLSUUAFFFFABRRijFAwxRS0lAgoNFGKACkpeaTFCHoFLSYNLimKwUUUVIBRRRTAKSloxQAUUUUCCiiimUFFFFIkKWkxS0DYUUUUAIaKKKFswCiiik/hQBRSYpcVQWCiiikO4ClpKWkISiiimMWiiikIKSlpKACiiimJBRRRQMKSlooGgoooxQAUUUUCEpRRRTFYMUYoxRikAYooxS0AFFFFAxMUYpaKAEoxS0UAJRS0UgEooopsAooxS0lcBKSlxRTCwlLSYpaBhRRRigQClpKWgAooooAKKKKACkNLSUAFFGKKEDCiiigEFFFGKBMKKKMUDQtFJS0AJRS0lAwoooxSAfFI0UqyJ95TkVsNrt5eXFvGzsFyBgGsQ8Cp7DP26HqOetXHYl7nY+P8mxsBnGByPwrhu1dx49/wCPKxOMkjr+FcNnH3iKhFyO9ETTeDIURSzcYArjH068QMZraQKOh2mtfTfFN5Y2iQRRwtGgwNwrW0nxW15dLBfQptkOOBVMlHFYI6jBHHPWlrovGWnxWd4rwgBZOcVztShsKKKKYgooooAKKKKAHSf6uOmdSae5JjQdqZgZPWgAFLSDpS0AFFFFABRRRQAUUUUAFJjmlppBPSmgYdD/ALGcGvSvhp4Eg1a3k1TWpTDYRHgHGGA7HNeap83HGAcc1714oc6f8I7FbQf6yIFwv0oXwsH8SK1xrXw1s52tW0kFx8vmRxZU++c15t8QLbS4NZZ9DdTayYIjXHy/hXLHJXklc9Q1T2gD30O5cZdR+oqVui11PU/APgTTotHXX/ErBLfGRG2Pn+ue/FbVrq3w11O5FhFpIhnY7VlMWBn65o+LzNbeAtNgiJEJVc7e53V4dEzK6YypByG9Kd71nHoZxd6dzvPil4JXw5PHdWJMtlPyrDsT2rovhboGk3/hC8ub+zhnnXdh2GSK0vGzNN8JtKa5Yl9q7W79OtO+DgA8C6gDt43HnvRtOa7FVNOXzPE7tQmoSxqgSISEAL9a9T1fw/pkXwhi1CK0hXUGK/6Rj5j8xzXl16canMxyFMrcH617JrikfA+2DDOCvPp8xpbUosN5tGN8FvD2meIYNTF/aQ3DodqvKOQdvaugvNN8DeDGMWsQC+nkOSmwMU/2eD0ql8ACRZaqUU5yWDeny15j4znkl8T6i0zvKwmODnOBTn/Et5BH4Lnp3j7wjod34V/tvw5AtsqjeVjXHFc/4E1zwZYaUkPiHSzc327iTyt2OfXNdR4eZn+DOo5fPDd+leJxAGdPTcMn8ab92bJa9xH1N4g1Tw3B4RivNQsTLo+BiLZnHPHFebal4o+HEllcra6GUmdGEbeT0bHHetnx7x8IYcH5SEyB9a8F4JIHQVEl7zZcfhQrEHgetFIv3QwH+NOpiEb8Pxqxp1lJf3i29vs3n1NVnBIwKv6PBNdanHHZt5Ev97pSm7R0ZdFKUrNHQnwBq4+bdBg9t9H/AAr7V1bbvgOf9utc+GvEnU6zwen7w0Hwz4l34/tjB/66GvO9tPmtc9v6rS5L2OF1fTZtKvDb3JQyDupzVOtTxFa3VnqDRX03nTDq+c1lV30ZNrU8fExUZWQHpQOGLelIeop0Y3uF6Zdc/nW0VdnNJux6T8NfAMOsWb6tq8vk2qHOePmGM457V091rPw0tLg2f9lrIy/KZBFlc+uc1P4qkOn/AAbsBYZQEIpZepBJrwdV6Kcc81nUb5rGkfgTOn+INtpNtrCNojeZaSoGCgD5Sa7PwF4E0+HRRrXiNwIB8yxNj5h715VaAPdRhj1YLz2r274uu9r4H0WO3O1GQbgvfgdauStG4oavUdZ6r8NdVvBp8emLC7ZXzWiwAfrmuJ+KHglPDU8dzYN5ljMMqzfw89K4GElJVKgg7gd349q9x8du1z8INPkusNMCmCep5NTPSmpLe5Ufjcelij4K8PaTefDXUL24soWuo0JDsPmPy149gGXkBQDwBXuvw/OfhRqrEjiNuD1+4ea8KXmYjOc9K0kr1UiKetJs9Z8faBpdn4D0u5tLKGK6kUF3UctxR8GPDem69YaguoWkM0gACM4+771qfEr/AJJtpB2ncqD/ANBpvwEYjStYYZVhHnP4GkvtoJq1OMiaez8B+DZBY6vbrqN455fYG2exwaz/AIneD9Im8Nw694ei8lDgGGNcKQc815Vrk8txq13JO5Znc/M55Nez2jt/wphFLHdsGGP0PFZ3/d3NJRtPlOU8E694IsdJii17STcXQIy3lbu31r13xPqnhq18MWdzqtgZtNdQYY9mdoxxxXyxF/rIx3yCT617r8TP+SZ6Rk4Hlr/6DVy1gyI6Nehjaz4m+HU2mXEen6IYbpl+RzDjB/OvI3IJ6dSdvsKaOVzjOKXnqOlZx0Y+lwoHUDGaKB94YOK0S0Icm2J1dgcnHpXR+ACP+EgtyWfGTxjiq/hbULDT7uRtStxOvpjNdxoGvaFeXyRWOniGZjw20CuHE1JRjoergsPByTbOO8dHHia5HOTjA7dK57kABsbu+K9S17XtDs9UlgvtOE9wMfPtBrhPEl7ZXt2r2Fr9nQDnjGaMNUk9ysfh4Xk+YyKAdrAgZ3fLRR14BwRzXa9Tyk/sjomaKZTFIAyHdjNdTe+MtW1H7Nb+eYY1ZVwp68iuT4LZIwf1qeyGbyEMMYdcZ+tc+JpRqRd+hpQm4O6PXvivk+G7XJ6quT6142AAOK9j+Kwx4ZtM/wB1a8b3Y4IOT3rkyx/u36nZmCvKL8h1BpDkd6UV6R5+wUUtFMQUUUUAFFFFABRRRQAUUUUAFFFFABRRRQAUUUUAFFFFABRRRQAUUUUAFFFFABRRRQAUUUUAFFFFABRRRQAUUUUAFFFFABRRRQAUUUUAFFFFABRRRQAUUUUAFFFFABRRRQAUUUUAFFFFABRRRQAUUUUAFFFFABRRRQAUUUUAFFFFABRRRQAUUUUAFFFFABRRRQAUUUUAFFFFABRRRQAUUUUAFFFFABRRRQAUUUUAFFFFABRRRQAUUUUAFFFFABRRRQAUUUUAFFFFABRRRQAUUUUAFFFFABRRRQAUUUUAFFFFABRRRQAUUUUAFFFFABRRRQAUUUUAFFFFABRRRQAUUUUAFFFFABRRRQAUUUUAFFFFABRRRQAUUUUAFFFFABRRRQAUUUUAFFFFABRRRQAUUUUAFFFFABRRRQAUUUUAFFFFABRRRQAUUUUAFFFFACxoZJFQdWOK66w8ITborpriMKMHFceM544qT7RPkfvpeO2401oga6npPiHRn1W2t0huI1EfHNcDrWmHS7kxvKkh6cCqpuJz/wAtpf8Avo0yR3kYtIxYnuTmpQ27nRad4Umv7OO4W4jCsPu1qWHh+z0W48/UblH2cqAa4sTzKoVZZFAGAAxFI0sjLh5Hb/eOabEjW8Tar/al6WjGIV4WsekxzmlpIbCiiimIKKKKACiiigB0n+rjpg5JzT5N3lJ6VHwPrQMUUtNpaQnoLRTaKB2HUlFJTFcWlptFA0OpDk9OtJRRewWuhPvcdMDJ+te3/D7xDpHiHwqdA1qURvjy0JPP4V4j6j1pyOyMGjYqw6FTimtmg5btM9jufgyWu2kg1W2Wz6gPycVwHjfStO0HWRaadMZTHgu27PNYn9pX2MfbLjHp5hqtI7S58xixPUk5NQ3aw77o938L6lpfjnwbFouqTLHdovysx7jJrPsfhBDp94L3VNThexU5Kg14zFLLDIHikdGHQqcVO2oXrgh7u4YHsZDirb+11JS6HpHxa8VWV7bwaJpJ/wBEtQACO+KvfBDXLOKGfSL2VI/OBCFv4ia8fOWbcSSfU0+J3ibdGzK3Yg4IpRe7fUJ66Hth+FdjZarJf6pqcDacXMhUHkc5rX+JN3Y3fwwYaSU+yll2BSOgPNeBtf3jLta6nZfQyEio/tE5iERmk8odE3HH5UfZsHmewfAGVFsNWwwRTkAMevy15f4rKp4j1Ik4XzmA96z4LieDPkTSR567GIzUbEu25yWbrk80vt8zH0sj2zw2yL8G9QXeg3BsA9a8TGMqRxhuakW5nWJolmkEZ6qGOPyqEjLbu9VUfNK6B/CkfQXhmXTvG3gCPSXuUhnAx8x7iuT1H4OXdpZzztq1oyQo0mFHJwM4ry6C4mt/9RLJH/usRUzajeuu1ry4KnsZDSk7sI6KxUIwcn7x64paMck0UgAjPFOSR4pBIhdCO4NNpAAKGroE2tUXDql91+2T7f8AfNL/AGpqGcteTe3zmqXegcVmqUb7GyxFXa4+aWSZ98zs7/3mOabSY5pa0UeXYynJy3E7gUoG6QhTjb3oIyCKQjjFNXTuTo1Y9v8Ah54h0nxB4SXw7rUyRtHhV3dT15/Wqtz8Fy93I1rq9slluzluTivHY5HikDxsVf1HFWP7RvtpX7ZcYJzjzDRKzdwWisbfjjS7HRdZW00ydZkjQeY4Oct3xXqvhrUdJ8b+EYtJ1CVY7uJdoLHkDtXgzlnfc7Fm9Sc0+GaWFiYpHQnupxTburD9D2Wx+EENherdalqcL2SnftB5wOaxfi74ss75YNF0gj7JCMEjoSDXnT6jeuCGu7hgeoMhxVU5IIJzk5z3qeyewJ216ntfwa1ayvfD2oaHdzxxyygoA3ptxT7L4Y6boGoPqeuajA+nxnciKec+9eJxySROGidkYd1ODU0t7dTLtluZ3X0aQkVUneXMhLSPKe5/GO6trvwdZtZFfKzhQp/hxwaofAllXTNXLsFxFxuPXg14xJczyReXJNIyf3SxwKWC5uIARDPJGDwQrEZpdH3YS1hGPYfq5U6jcBjld524+te1WbgfBlFeSPdsGF79DXhhyWyeSfWpRcTiIRCeXyx/DuOPyqWtLFyleXMRI3Q91NfQulf2f478CW+mNdRwXcKBVL+uMV89VLb3E9uT5E0kf+6xFXf3bEdbnpet/CG706wlujqtrIiDO1e9eXyKRM6/88zj61ak1C9kUq93cMp7GQ4qrjnmoS1uUnZCUcAjIzS4opibvuI3ynJxzW74MuorLWoJbmSNIgeSRWFijFTOmpKzLp1HTlzI2vF93Bea9cy28geI4wwrF6KOp+tKRwfegCnTpxgFaq6zbYlHBwDxg5HvS4oI6exyKpmd3awLl3UsMMx2ivR7D4YXUq21w2o2+Plfb39a845yT61OLy7UAC6nAHT94a5q9Oc1aJvCcIvU968Y+HX17S47OK7hiaMAbmOa8a8W+HZfDl5FbTzpP5q7tydBWZ9vvP8An6n/AO+zUM0sszAzSO5xjLNmufC4adFu+xviMRColboREEDr8qH86cDnn1pNv3fY5p1egtDiYlFFLTEFFFFABRRRQAUUUUAFFFFABRRRQAUUUUAFFFFABRRRQAUUUUAFFFFABRRRQAUUUUAFFFFABRRRQAUUUUAFFFFABRRRQAUUUUAFFFFABRRRQAUUUUAFFFFABRRRQAUUUUAFFFFABRRRQAUUUUAFFFFABRRRQAUUUUAFFFFABRRRQAUUUUAFFFFABRRRQAUUUUAFFFFABRRRQAUUUUAFFFFABRRRQAUUUUAFFFFABRRRQAUUUUAFFFFABRRRQAUUUUAFFFFABRRRQAUUUUAFFFFABRRRQAUUUUAFFFFABRRRQAUUUUAFFFFABRRRQAUUUUAFFFFABRRRQAUUUUAFFFFABRRRQAUUUUAFFFFABRRRQAUUUUAFFFFABRRRQAUUUUAFFFFABRRRQAUUUUAFFFFABRRRQAUUUUAFFFFABRRRQAUUUUAFFFFABRRRQAlFB9qWJHkYrGjO3oBmgLiUtPmt54EUzwvHn+8pGahORgA5NAD6KT7xAXr6Cp1srp1BW3lP0U0AQ0Us0bxSbZFZGx0IxSUAFFFFABRRRQAUUUUAIzkgL6UnfmjnnOAPUdaXnrwQemTSuFhKKMEHbyT70h45yTjsKdx8txaWkBA+bkijnPGDQndXBroFLSYJ6Fc9eta3hzSl1i98p5PKXHanD3yZrl1Mmg1teJdGXSbvy0l8xcd8ZrF6k4+761Mk4scXzIKKFG8ZU4A/vcUckcDB96pzEoMKKDng8Yx2NW9M0+51Kfy7dQSBk5OKV29h3sVaSpry3e0nMM2d49KiPBJPC0n5jVtxKO9IeNpznPauz+H3gS98X3jhGMNjFy8544HPfinLYUdzjaWtLxLp0Wk6zeWlvP56QSlA3HIH0rMPbB96UdhyWotGaQHnPb9KNp5BbDD8jRcLC0UgO7JQ4A9eDmgkjAYHJ9OaYkOoprEDg5B9qBkE56HpSGOpBTQQMhjnPTHNKTwCvIPrTAdSUh4AzwaDuA5C4PoaBCmkoP1PvSDIxuOM9KYx1Fb+geEdV1yyuLuyjTyIFLMzNjtmsAhk5fGwcHnnP0pbAAopOcZ7HkZr0Hwt8OpfEXhO41OxuVe9QnFvuHGO570XEef5oqS7t5bS5eCdSrxna2fWoQe45xSTG1YfRSD17HmlpiCiiigAooooAKKKKACiiigAooooAKKKKACiiigAooooAKKKKACiiigAooooAKKKKACiiigAooooAKKKKACiiigAooooAKKKKACiiigAooooAKKKKACiiigAooooAKKKKACiiigAooooAKKKKACiiigAooooAKKKKACiiigAooooAKKKKACiiigAooooAKKKKACiiigAooooAKKKKACiiigAooooAKKKKACiiigAooooAKKKKACiiigAooooAKKKKACiiigAooooAKKKKACiiigAooooAKKKKACiiigAooooAKKKKACiiigAooooAKKKKACiiigAooooAKKKKACiiigAooooAKKKKACiiigAooooAKKKKACiiigAooooAKKKKACiiigAooooAKKKKACiiigAooooAKKKKACiiigAooooAKKKKACiiigAooooAKKKKACiiigAooooAKKKKACiiigAooooAKKKKACiiigAooooAKKKKACiiigAooooAKKKKACiiigAooooAdAEMyCUlUzyR1FdpBqOk6f5C2sXmTNj58c1xBqex/4+4f8AeoF1Oy+ILmS2tJMYDA8HrXC9PmXkniu48f8ANjY59P6VxcABuIyOmQMU0htnV+HtMs7LTjqGpLn0HvSTeNJopcWltF5a8DINb1/psFxpNtHdyeXEoy2DjJrLTQdAmO23vGMp4A3d6TGtTlNV1GTUrszyqqsR0WqlaWu6RJpd1tbmM/dNZtJAwooopiCiiigApKWigC9o+mS6rcmGBkVgpPzGr1p4Wv7iWSHYqlGxv7Vc+Hqg61k9lb+VTeLvENwt69pblogh2sycZrr5IqnzHM5NyaMzV/DN/p0PnOwkUf3Tmsmxt3urlYYiFdv73Fdt4Pv5NSsri0u2MmFOCxzXN6fGI/E8aL0WQ1Dp6pdxxk1cWTw1frfi12qSRnKdKt3Xg3UbeAzFoWAHRDzXS+Lda/sxIltY/wDSHGCe4rB8J65JFfvFqFwzQuCSWOccVSUYy9myFOUndHLrAzTLGqqrlgvPvXV2XhDVo3E1rcRxMRgfNisLxBJF/bM8lof3e7Kkdqu+HNSu21e3RrqZ0JAKluKKKipuJpV5pIq+JLS6tL4LqExml2jkHIrMRWaTAK5OAAeldP8AEPjWV/3BXM2+POjJ/vD+dZcvNU5WXB+5dG1d+F7+F4AypIJOQU5xVu48GajFH5jNHIAPuqc4rqPE+qtpelwhB8zIMHuK5rwlq95JrOyeZ2STPBNdDpwvyHOqkrOXY56HT5pb77INivu2813vhXw3eaVeNLM8ZVlwMGub8Zr9l1xniOxjkgrxWj4EvrmfUZVuLiWQBMgM2aKEoc/s2iq3Nyc9yXWfCOoX+ovNHLCFJ7tXMa1o82lTLHcsrK3905q94i1K+j1WZEuZUQHgBsViXFxNcH/SJXk92Oa56s03ojWnCS1bJ9HsZdT1K1tLdcuzhMexIzXvXxB1OH4ceCLbQNJZUvbhAJGXg45Brhf2f7Bbzx7A8iho4opDz64yKpfG/UX1Dx9qCSZK28hjXPpwaxrS5eVdzakuZt9jgZHaRy7MWc8sT3p9tby3c6wW0bSSPwFUZqMCvXPgdo8JN5qtzGrrGmEyOhFVGNiZyvYx9M+EfiDULNHDQQA84kJBrE8W+BtU8LbHv9rwn+NDkKe1aPjTx/rGpapIsF3LbwxOVUQMV6Vh6h4r1TUtJ/s++naaEkEs5JPFZp82po1y6GTptjdalcpb2sDSzueAgzgetei2vwc8QzQhxNarvGcMx3Ct/wCDenRaZ4Z1LXZIw0yKTGWHbaf8K891rxzrl9qbXMV/PCu7KpG5Ax9K0krS5TOHvLmIPE3g7VfDblb2Isn/AD1AJH51H4P8LXvii6misZYl8sZIlOM16/4Y1NvG3gG+h1Nd9xEhUOfbvXN/AyMQ+JdRiP8AANv5Zqbe84jv7vMeZ65pk2j6nPZT+WJYjglK2vDvgq/1/SLu/tnhWG3G4hjhumf6UnxLO7xjfsw/iFej/CDP/CA64w+6qEEHr9w0U3zUnVHLSfIeTeHtEudd1aKwtmi8xlzmQ8V0kHww12bVJLMRoDGceZzs/Ok+E+R40gZfTj8xXe/GTxtd6ZetpWlloTIm6SRDgj8aJ+6ovuKPvScexw/iD4V69otk9zM0M0ajJ+zksRWJ4P8ACN/4suZILJ4opIevnHFep/BTXbzV7LUbDUpnuESMsGkOSa8jv7250zWrw2FzNbsZGBMbYzzVS9yVhWvqfQngXwdqGg+F73T7uWFpblSFKNkZwR/WvNZ/gr4gaYkXNhyc/fPSuv8AhfqV9deCNTmubqaaRIztZ2yV+U9K8Xm8Ta0s5QatfbR3800qmmhcNVcpa3p0ukanPZ3Lb5IHKMV5Ax3FdF8M/Fk/hbxBDcLK/wBlkYLNGD95a5S4uJriR5J5Gkdz8zMckn3qNeOnUdKSWlhX1uezfHnwvAi23iHSIx5F2oaRVHArxrjd8g6jmvojSy+v/AeZZPmkTIVj1GDXzvICjug4KnFT8M3F9C/igp9xFGFAp1IKWrZmgooooAKKKKACiiigAooooAKKKKACiiigAooooAKKKKACiiigAooooAKKKKACiiigAooooAKKKKACiiigAooooAKKKKACiiigAooooAKKKKACiiigAooooAKKKKACiiigAooooAKKKKACiiigAooooAKKKKACiiigAooooAKKKKACiiigAooooAKKKKACiiigAooooAKKKKACiiigAooooAKKKKACiiigAooooAKKKKACiiigAooooAKKKKACiiigAooooAKKKKACiiigAooooAKKKKACiiigAooooAKKKKACiiigAooooAKKKKACiiigAooooAKKKKACiiigAooooAKKKKACiiigAooooAKKKKACiiigAooooAKKKKACiiigAooooAKKKKACiiigAooooAKKKKACiiigAooooAKKKKACiiigAooooAKKKKACiiigAooooAKKKKACiiigAooooAKKKKACiiigAooooAKKKKACiiigAooooAKKKKACiiigAooooAKKKKAENWbFG+1RHa2N3pUEb+XIrbd2DnHrXWQ+MY4Yoohp6fKOuaBFvx4paysQATx2HtXDx/JMhbI2sDzXZnxurEg2Ct6Zaub1vUU1S884QCL6Ggdjq9dSe/8AD0M9mxbIBIHpXJaRazzX8IgVxIrDPWreieILjTAYyPOiP8B4rVk8Z5jK2tokbnqaGNEnjqVTbWsbEGZfvVx1T313NeTtJP8AePvUFAMKKKKBBRRRQAUUUhoA6jwB/wAhlf8Adb+VZ/iuOQa/d/IxVnyDitD4ekHWwB1Ct/KtjVvFi2WozW7afHKYyV3E13uKVJI5LfvGQ+DrR9Osri8ueEKHbniub0uQTeJElX7rymptb8SXOoxGLb5UWfuA1k6ddfZL2O4UfKh5FZe2SaNFHRnU/EMkXFu4I3kdPwrjiMYXBOepBrY8Ra1/bMiuYdu0Y61kHPBziuepdz5kXSVtw6EBcturX8MI39sQfIww46is21mEE8chTfscNg+1diPHEaZI0yPPqGxXRh7KXMxVnfRFT4hIzawuFYjYOgrmLcfvowwx8w6/Wuzfx0jOC1gnI6k5rlNQvVur9rgQADOdoNLmXtLkwT5bHX/ELJsrIeqVznhEf8Tu3JPODUviDxCNXhgjMW3yhjrWfpN9/Z98txs37R92o9p+8uCp+40a/j3J1jPb/wCvU3w+ZTq0m44ymBWNrup/2re/aDHt/Gq1jczWdws0LYYHOKdOSjU5gqRbp8pp+LLWaPWJWdWKk8YFYrKQ3zAge4rs4/HOFXz9PSRgMZJrB1/Vo9VlST7OIkXqBU1LFQud5+ztdrB48ihcgLLFJj/vmsj41WMtn8QNTaQYWaUuvuOK5jwxqc2ja3aXkDYkjcc/7ORn9K9t+MmkR+NPDdl4n0fDvGgMirycZyf5VjWXNZ9jaL5b+Z8/V7V8DrtLrS7/AErcFkKlhk9c14qc4LOSHz0x0q/o2rXej3q3VlIVYdcU4y0FONpGh4r8O3+karPFcW8iK0jMrYznms+XSb6PT/tslu62pwCx4+leoW3xnYWyJfaPFdSAffY//Wrl/HXj6bxRAtrFbJa23V4l7ntUpWSRTd3c774RTjVvA2p6SjAzhCqD1G0/4149q2hX+l6i1pPbSCUHaMKTmneGtevvDt8l1p8hjcHDe69xXpq/GiMw7Z9ChlmPPmFuf5VU9ZXJhpGxqeB7GXwt8P7+71L90ZFLKh6kGue+CNzG/iq+bODLkj8c1y/jXx1qHid0jb9zbr/yzB4rA0LVrnRtTiu7FyJUOcetC+JsGvdSOo+JelXx8c3UaQuyyMNpC8V6p4G8N3OgeAdTGofJcTQs5T6Ka5b/AIXVut9smjRPd4wJS3/1qybb4r35t9SivrUT/aQQr78bAVxjFJaUuQvepzGV8Iz/AMVrAR97HI/EVofHY58ahvu5hwffmuT8I68NA1qPUY7bzdow0ZbGT65qfx14mPirWPt5g+yELtC53US15V2Iho5M7z9n3i91Yqd2YenpXmOv86zeE8fvW/nW/wDD7xgfCM13KLUTm5TZndiuZ1K5N3dT3AjCiRixXOcZNXU1kmVTfuu57d8GW8/wTq0EJDSuhUD/AICa8V1PTbq0vZLWaGTzImwTsNa/gzxfd+FLzzLTLwP96L1/GvQP+F0QsuZvD0DuTy5Yf4Up66kU9NPM8cKkOwORznBo6cr1rQ8Q6l/a2rXV6sIhSdywRewNXvA/h268S65bWMCHhgXbHCr60ktC5W5tD2rw0X0b4DXEs3G7JAPua+eJW3SyP/eOa9u+OXiCHTtJs/DGlsMwqBPt6GvECNrAKc4HNZ35pOfctaRUQFLTVOQDTq1e5igooopDCiiigAooooAKKKKACiiigAooooAKKKKACiiigAooooAKKKKACiiigAooooAKKKKACiiigAooooAKKKKACiiigAooooAKKKKACiiigAooooAKKKKACiiigAooooAKKKKACiiigAooooAKKKKACiiigAooooAKKKKACiiigAooooAKKKKACiiigAooooAKKKKACiiigAooooAKKKKACiiigAooooAKKKKACiiigAooooAKKKKACiiigAooooAKKKKACiiigAooooAKKKKACiiigAooooAKKKKACiiigAooooAKKKKACiiigAooooAKKKKACiiigAooooAKKKKACiiigAooooAKKKKACiiigAooooAKKKKACiiigAooooAKKKKACiiigAooooAKKKKACiiigAooooAKKKKACiiigAooooAKKKKACiiigAooooAKKKKACiiigAooooAKKKKACiiigAooooAKKKKACiiigAooooAKKKKACiiigAooooAKKKKACiiigBM00E8knmlPQ0wckZp2Eh4yBnOc0Y4wDg0j/fUdqJOCKRQp3Y5c8etByeq0DqKd2oEMX/dAHrT6SloAKKKKACiiigApKWkNAG54S1KDTdR8y6zs2nGBntVHXLmO81O5uIB8jvnniqFLWjqNqxCiua4nBIJ69hS55xj5jRRWVjRaXDJ6Bz+VJnseaWjvTQMQdzknNG3Ixgcd80tFF2LQTqMHnFICw5Ax706g0lvcBvP94n607POemOOKKKa3bAOvRjgUnDHdtB7c0oooYIMkHIOB6Uhyc470vaih6gNwMIuTjqDXo/ww+IZ8LvNZ6ihn0qcENGcnHGOledUdqb1uKWtjU8VXtnfa9e3Okw+XbPISikYwKyse/wDwHtS0GoirIub5pNhkkfeIHpSZJ5x0/SloqnqShNob3780ZyQwYjH60tFNbAISPUgnuKTJwwHPHB706ikN62G9FXHzA9M9qUjOCTgdTjvS0Udbi6jWyxyOeOCewpxwdueQOtFFJoFomhDy/TA7Ug4Y7flz1Ip1FPoIQcZAkYgcZIoGR8rAMD3NLRTuNiH72FGCOBXp/gPx9pvhTwndJb25OvSZXzdp6dhmvMaKV/daDqmWNTv7jU76W6unLSSMSSaqgYyF6mnGkqFGysW5e9cBx8vpxTqT1patkBRRRQAUUUUAFFFFABRRRQAUUUUAFFFFABRRRQAUUUUAFFFFABRRRQAUUUUAFFFFABRRRQAUUUUAFFFFABRRRQAUUUUAFFFFABRRRQAUUUUAFFFFABRRRQAUUUUAFFFFABRRRQAUUUUAFFFFABRRRQAUUUUAFFFFABRRRQAUUUUAFFFFABRRRQAUUUUAFFFFABRRRQAUUUUAFFFFABRRRQAUUUUAFFFFABRRRQAUUUUAFFFFABRRRQAUUUUAFFFFABRRRQAUUUUAFFFFABRRRQAUUUUAFFFFABRRRQAUUUUAFFFFABRRRQAUUUUAFFFFABRRRQAUUUUAFFFFABRRRQAUUUUAFFFFABRRRQAUUUUAFFFFABRRRQAUUUUAFFFFABRRRQAUUUUAFFFFABRRRQAUUUUAFFFFABRRRQAUUUUAFFFFABRRRQAUUUUAFFFFABRRRQAUUUUAFFFFABRRRQAUUUUAFFFFABRRRQAUUUUAFFFFABRRRQAUUUUAFFFFABRRRQAUUUUAf//Z;" vertex="1" parent="1">
          <mxGeometry x="523.69" y="30" width="611.31" height="257.36" as="geometry" />
        </mxCell>
        <mxCell id="NDtDcy1t038R8GpBM-gv-4" value="" style="edgeStyle=orthogonalEdgeStyle;rounded=0;orthogonalLoop=1;jettySize=auto;html=1;" edge="1" parent="1" source="NDtDcy1t038R8GpBM-gv-2" target="NDtDcy1t038R8GpBM-gv-3">
          <mxGeometry relative="1" as="geometry" />
        </mxCell>
        <mxCell id="NDtDcy1t038R8GpBM-gv-2" value="start" style="ellipse;whiteSpace=wrap;html=1;" vertex="1" parent="1">
          <mxGeometry x="1150" y="250" width="120" height="80" as="geometry" />
        </mxCell>
        <mxCell id="NDtDcy1t038R8GpBM-gv-6" value="" style="edgeStyle=orthogonalEdgeStyle;rounded=0;orthogonalLoop=1;jettySize=auto;html=1;" edge="1" parent="1" source="NDtDcy1t038R8GpBM-gv-3" target="NDtDcy1t038R8GpBM-gv-5">
          <mxGeometry relative="1" as="geometry" />
        </mxCell>
        <mxCell id="NDtDcy1t038R8GpBM-gv-3" value="&lt;font style=&quot;font-size: 14px;&quot;&gt;count = 0&lt;br&gt;distance = 10000&lt;br&gt;firstFriendSpeed = 1&lt;br&gt;secondFriendSpeed = 2&lt;br&gt;dogSpeed = 5&lt;br&gt;friend = 2&lt;/font&gt;" style="whiteSpace=wrap;html=1;align=center;" vertex="1" parent="1">
          <mxGeometry x="1120" y="380" width="180" height="100" as="geometry" />
        </mxCell>
        <mxCell id="NDtDcy1t038R8GpBM-gv-8" value="yes" style="edgeStyle=orthogonalEdgeStyle;rounded=0;orthogonalLoop=1;jettySize=auto;html=1;" edge="1" parent="1" source="NDtDcy1t038R8GpBM-gv-5" target="NDtDcy1t038R8GpBM-gv-13">
          <mxGeometry relative="1" as="geometry">
            <mxPoint x="1210" y="700" as="targetPoint" />
          </mxGeometry>
        </mxCell>
        <mxCell id="NDtDcy1t038R8GpBM-gv-10" value="no" style="edgeStyle=orthogonalEdgeStyle;rounded=0;orthogonalLoop=1;jettySize=auto;html=1;" edge="1" parent="1" source="NDtDcy1t038R8GpBM-gv-5" target="NDtDcy1t038R8GpBM-gv-9">
          <mxGeometry relative="1" as="geometry" />
        </mxCell>
        <mxCell id="NDtDcy1t038R8GpBM-gv-5" value="&lt;font style=&quot;font-size: 14px;&quot;&gt;distance &amp;gt; 10&lt;/font&gt;" style="rhombus;whiteSpace=wrap;html=1;" vertex="1" parent="1">
          <mxGeometry x="1142.5" y="525" width="135" height="120" as="geometry" />
        </mxCell>
        <mxCell id="NDtDcy1t038R8GpBM-gv-12" value="" style="edgeStyle=orthogonalEdgeStyle;rounded=0;orthogonalLoop=1;jettySize=auto;html=1;" edge="1" parent="1" source="NDtDcy1t038R8GpBM-gv-9" target="NDtDcy1t038R8GpBM-gv-11">
          <mxGeometry relative="1" as="geometry" />
        </mxCell>
        <mxCell id="NDtDcy1t038R8GpBM-gv-9" value="&lt;font style=&quot;font-size: 14px;&quot;&gt;count&lt;/font&gt;" style="shape=document;whiteSpace=wrap;html=1;boundedLbl=1;" vertex="1" parent="1">
          <mxGeometry x="1350" y="545" width="110" height="80" as="geometry" />
        </mxCell>
        <mxCell id="NDtDcy1t038R8GpBM-gv-11" value="&lt;font style=&quot;font-size: 14px;&quot;&gt;end&lt;/font&gt;" style="ellipse;whiteSpace=wrap;html=1;" vertex="1" parent="1">
          <mxGeometry x="1510" y="545" width="100" height="80" as="geometry" />
        </mxCell>
        <mxCell id="NDtDcy1t038R8GpBM-gv-15" value="yes" style="edgeStyle=orthogonalEdgeStyle;rounded=0;orthogonalLoop=1;jettySize=auto;html=1;" edge="1" parent="1" source="NDtDcy1t038R8GpBM-gv-13" target="NDtDcy1t038R8GpBM-gv-14">
          <mxGeometry relative="1" as="geometry" />
        </mxCell>
        <mxCell id="NDtDcy1t038R8GpBM-gv-19" value="" style="edgeStyle=orthogonalEdgeStyle;rounded=0;orthogonalLoop=1;jettySize=auto;html=1;" edge="1" parent="1" source="NDtDcy1t038R8GpBM-gv-13" target="NDtDcy1t038R8GpBM-gv-18">
          <mxGeometry relative="1" as="geometry" />
        </mxCell>
        <mxCell id="NDtDcy1t038R8GpBM-gv-13" value="friend = 1?" style="rhombus;whiteSpace=wrap;html=1;" vertex="1" parent="1">
          <mxGeometry x="1170" y="720" width="80" height="80" as="geometry" />
        </mxCell>
        <mxCell id="NDtDcy1t038R8GpBM-gv-17" value="" style="edgeStyle=orthogonalEdgeStyle;rounded=0;orthogonalLoop=1;jettySize=auto;html=1;" edge="1" parent="1" source="NDtDcy1t038R8GpBM-gv-14" target="NDtDcy1t038R8GpBM-gv-16">
          <mxGeometry relative="1" as="geometry" />
        </mxCell>
        <mxCell id="NDtDcy1t038R8GpBM-gv-14" value="time = distance / (firstFriendSpeed + dogSpeed" style="whiteSpace=wrap;html=1;" vertex="1" parent="1">
          <mxGeometry x="1310" y="730" width="270" height="60" as="geometry" />
        </mxCell>
        <mxCell id="NDtDcy1t038R8GpBM-gv-24" style="edgeStyle=orthogonalEdgeStyle;rounded=0;orthogonalLoop=1;jettySize=auto;html=1;entryX=1;entryY=0.75;entryDx=0;entryDy=0;" edge="1" parent="1" source="NDtDcy1t038R8GpBM-gv-16" target="NDtDcy1t038R8GpBM-gv-22">
          <mxGeometry relative="1" as="geometry" />
        </mxCell>
        <mxCell id="NDtDcy1t038R8GpBM-gv-16" value="friend = 2" style="whiteSpace=wrap;html=1;" vertex="1" parent="1">
          <mxGeometry x="1390" y="840" width="120" height="60" as="geometry" />
        </mxCell>
        <mxCell id="NDtDcy1t038R8GpBM-gv-21" value="" style="edgeStyle=orthogonalEdgeStyle;rounded=0;orthogonalLoop=1;jettySize=auto;html=1;" edge="1" parent="1" source="NDtDcy1t038R8GpBM-gv-18" target="NDtDcy1t038R8GpBM-gv-20">
          <mxGeometry relative="1" as="geometry" />
        </mxCell>
        <mxCell id="NDtDcy1t038R8GpBM-gv-18" value="time = distance / (secondFriendSpeed + dogSpeed" style="whiteSpace=wrap;html=1;" vertex="1" parent="1">
          <mxGeometry x="820" y="730" width="290" height="60" as="geometry" />
        </mxCell>
        <mxCell id="NDtDcy1t038R8GpBM-gv-23" style="edgeStyle=orthogonalEdgeStyle;rounded=0;orthogonalLoop=1;jettySize=auto;html=1;entryX=0;entryY=0.75;entryDx=0;entryDy=0;" edge="1" parent="1" source="NDtDcy1t038R8GpBM-gv-20" target="NDtDcy1t038R8GpBM-gv-22">
          <mxGeometry relative="1" as="geometry" />
        </mxCell>
        <mxCell id="NDtDcy1t038R8GpBM-gv-20" value="friend =1" style="whiteSpace=wrap;html=1;" vertex="1" parent="1">
          <mxGeometry x="890" y="840" width="120" height="60" as="geometry" />
        </mxCell>
        <mxCell id="NDtDcy1t038R8GpBM-gv-26" value="" style="edgeStyle=orthogonalEdgeStyle;rounded=0;orthogonalLoop=1;jettySize=auto;html=1;" edge="1" parent="1" source="NDtDcy1t038R8GpBM-gv-22" target="NDtDcy1t038R8GpBM-gv-25">
          <mxGeometry relative="1" as="geometry" />
        </mxCell>
        <mxCell id="NDtDcy1t038R8GpBM-gv-22" value="distance = distance - (irstFriendSpeed + secondFriendSpeed) * time" style="rounded=0;whiteSpace=wrap;html=1;" vertex="1" parent="1">
          <mxGeometry x="1010" y="920" width="395" height="60" as="geometry" />
        </mxCell>
        <mxCell id="NDtDcy1t038R8GpBM-gv-28" style="edgeStyle=orthogonalEdgeStyle;rounded=0;orthogonalLoop=1;jettySize=auto;html=1;entryX=0;entryY=0.5;entryDx=0;entryDy=0;" edge="1" parent="1" source="NDtDcy1t038R8GpBM-gv-25" target="NDtDcy1t038R8GpBM-gv-5">
          <mxGeometry relative="1" as="geometry">
            <Array as="points">
              <mxPoint x="800" y="1090" />
              <mxPoint x="800" y="585" />
            </Array>
          </mxGeometry>
        </mxCell>
        <mxCell id="NDtDcy1t038R8GpBM-gv-25" value="count = count + 1" style="whiteSpace=wrap;html=1;rounded=0;" vertex="1" parent="1">
          <mxGeometry x="1147.5" y="1060" width="120" height="60" as="geometry" />
        </mxCell>
      </root>
    </mxGraphModel>
  </diagram>
</mxfile>
